<svg width="20" height="23" viewBox="0 0 20 23" fill="none" xmlns="http://www.w3.org/2000/svg">
<path d="M9.85714 22.2138C9.48966 22.2138 9.18184 22.0822 8.93368 21.8189C8.68466 21.5565 8.56015 21.2311 8.56015 20.8426V5.51892L2.23731 12.2037C1.97791 12.478 1.66966 12.6151 1.31256 12.6151C0.956316 12.6151 0.648496 12.478 0.389097 12.2037C0.129699 11.9295 0 11.6095 0 11.2439C0 10.8782 0.129699 10.5582 0.389097 10.284L8.94925 1.23378C9.07895 1.09666 9.21945 0.999299 9.37077 0.941706C9.52209 0.885028 9.68421 0.856689 9.85714 0.856689C10.0301 0.856689 10.1978 0.885028 10.3604 0.941706C10.5221 0.999299 10.657 1.09666 10.765 1.23378L19.3252 10.284C19.5846 10.5582 19.7143 10.8782 19.7143 11.2439C19.7143 11.6095 19.5846 11.9295 19.3252 12.2037C19.0658 12.478 18.7575 12.6151 18.4004 12.6151C18.0442 12.6151 17.7364 12.478 17.477 12.2037L11.1541 5.51892V20.8426C11.1541 21.2311 11.0301 21.5565 10.7819 21.8189C10.5329 22.0822 10.2246 22.2138 9.85714 22.2138Z" fill="#076932"/>
</svg>
