<svg width="242" height="65" viewBox="0 0 242 65" fill="none" xmlns="http://www.w3.org/2000/svg">
<path d="M146.769 44.0351H148.591C148.638 44.1455 148.662 44.2598 148.662 44.378C148.662 44.4962 148.642 44.5672 148.606 44.6105C148.571 44.6539 148.512 44.6736 148.429 44.6736H148.173L146.422 46.6203C147.132 47.8893 147.577 48.6657 147.763 48.9533C147.948 49.241 148.106 49.4499 148.236 49.5799C148.366 49.71 148.524 49.777 148.717 49.777C148.776 50.041 148.768 50.2302 148.693 50.3445C148.618 50.4588 148.397 50.5139 148.023 50.5139C147.605 50.5139 147.317 50.4666 147.159 50.376C147.002 50.2854 146.86 50.0844 146.73 49.7691C146.6 49.4538 146.249 48.6735 145.673 47.4243L144.959 48.3425C144.959 48.977 144.967 49.4538 144.979 49.777H145.421C145.468 49.8873 145.492 50.0056 145.492 50.1238C145.492 50.2341 145.472 50.309 145.436 50.3524C145.401 50.3957 145.342 50.4193 145.259 50.4193H143.055C143.004 50.2814 142.98 50.1514 142.98 50.0213C142.98 49.9386 143 49.8755 143.043 49.8361C143.086 49.7967 143.146 49.777 143.228 49.777H143.619C143.634 49.379 143.646 48.3307 143.646 46.6361C143.646 45.7218 143.638 45.0637 143.619 44.6657H143.059C143.008 44.5277 142.984 44.3977 142.984 44.2716C142.984 44.1849 143.004 44.1218 143.047 44.0824C143.09 44.043 143.15 44.0233 143.232 44.0233H145.421C145.468 44.1376 145.492 44.2558 145.492 44.3701C145.492 44.4844 145.472 44.5593 145.436 44.6026C145.401 44.646 145.342 44.6657 145.259 44.6657H144.967C144.955 45.0637 144.951 45.8873 144.951 47.1327C145.22 46.8253 145.547 46.447 145.929 45.9898C146.312 45.5327 146.655 45.0952 146.962 44.6696H146.588C146.536 44.5317 146.513 44.4016 146.513 44.2755C146.513 44.1888 146.533 44.1258 146.576 44.0864C146.619 44.047 146.678 44.0273 146.761 44.0273L146.769 44.0351Z" fill="white"/>
<path d="M150.665 50.5192C150.034 50.5192 149.561 50.3379 149.242 49.9714C148.922 49.6049 148.76 49.0768 148.76 48.3832C148.76 47.5162 148.954 46.8463 149.34 46.3694C149.727 45.8926 150.271 45.6561 150.969 45.6561C151.599 45.6561 152.073 45.8374 152.392 46.2039C152.711 46.5704 152.869 47.0985 152.869 47.7921C152.869 48.6591 152.676 49.329 152.289 49.8059C151.903 50.2827 151.363 50.5192 150.661 50.5192H150.665ZM150.862 49.7113C151.091 49.7113 151.26 49.6088 151.371 49.4078C151.481 49.2069 151.536 48.8167 151.536 48.2335C151.536 47.599 151.477 47.1458 151.351 46.8739C151.229 46.6019 151.036 46.4679 150.771 46.4679C150.543 46.4679 150.373 46.5704 150.263 46.7714C150.152 46.9724 150.097 47.3625 150.097 47.9458C150.097 48.5803 150.16 49.0335 150.282 49.3054C150.405 49.5773 150.598 49.7113 150.862 49.7113Z" fill="white"/>
<path d="M153.232 46.0226C153.232 45.9122 153.267 45.8374 153.342 45.8019C153.417 45.7664 153.882 45.7349 154.738 45.7073C154.754 45.8374 154.754 46.0187 154.738 46.2512C155.093 46.0187 155.412 45.865 155.7 45.7822C155.988 45.6994 156.24 45.66 156.461 45.66C156.563 45.66 156.63 45.6719 156.662 45.6994C156.698 45.727 156.713 45.7861 156.713 45.8847C156.713 46.0581 156.69 46.2354 156.642 46.4206C156.595 46.6058 156.54 46.728 156.469 46.7792C156.402 46.8305 156.291 46.8699 156.142 46.8975C155.992 46.9211 155.905 46.929 155.881 46.9172C155.858 46.9053 155.779 46.7989 155.641 46.6019C155.432 46.6019 155.274 46.6847 155.164 46.8541C155.053 47.0196 154.998 47.4531 154.998 48.1428C154.998 48.7773 155.006 49.325 155.018 49.7822H155.68C155.732 49.8846 155.755 49.9989 155.755 50.129C155.755 50.2393 155.735 50.3142 155.692 50.3576C155.653 50.4009 155.574 50.4245 155.456 50.4245H153.303C153.251 50.2945 153.228 50.1684 153.228 50.0541C153.228 49.9556 153.247 49.8886 153.287 49.8452C153.326 49.8019 153.389 49.7822 153.476 49.7822H153.784C153.8 49.3211 153.803 48.7891 153.803 48.1861C153.803 47.3113 153.768 46.795 153.693 46.6374C153.618 46.4797 153.488 46.397 153.303 46.397C153.251 46.2709 153.228 46.1487 153.228 46.0226H153.232Z" fill="white"/>
<path d="M159.094 45.6561C159.678 45.6561 160.104 45.8019 160.368 46.0975C160.632 46.3931 160.766 46.8581 160.766 47.4965C160.766 47.8118 160.711 48.0364 160.597 48.1704C160.486 48.3044 160.238 48.3714 159.859 48.3714H158.29C158.298 48.7812 158.381 49.1005 158.539 49.333C158.696 49.5655 158.972 49.6837 159.37 49.6837C159.769 49.6837 160.159 49.5576 160.569 49.3093C160.715 49.4669 160.79 49.6403 160.79 49.8256C160.79 50.0778 160.624 50.2512 160.293 50.3497C159.962 50.4482 159.575 50.4995 159.13 50.4995C158.365 50.4995 157.809 50.3261 157.462 49.9832C157.115 49.6403 156.942 49.0729 156.942 48.2847C156.942 47.4965 157.135 46.8187 157.525 46.3576C157.916 45.8926 158.436 45.664 159.094 45.664V45.6561ZM158.925 46.4679C158.716 46.4679 158.558 46.5625 158.448 46.7477C158.337 46.9369 158.282 47.2601 158.278 47.729H158.503C158.815 47.729 159.055 47.7172 159.217 47.6975C159.382 47.6778 159.477 47.6423 159.505 47.595C159.532 47.5477 159.548 47.465 159.548 47.3546C159.548 47.0748 159.493 46.8542 159.382 46.7005C159.272 46.5468 159.118 46.4679 158.921 46.4679H158.925Z" fill="white"/>
<path d="M163.865 50.0656C163.652 50.1838 163.412 50.2902 163.144 50.3809C162.875 50.4754 162.619 50.5188 162.379 50.5188C161.969 50.5188 161.673 50.4124 161.484 50.2035C161.294 49.9946 161.2 49.6991 161.2 49.3208C161.2 48.7927 161.361 48.4025 161.689 48.1464C162.016 47.8902 162.528 47.7641 163.234 47.7641H163.696C163.668 47.2833 163.597 46.9562 163.483 46.7789C163.364 46.6016 163.187 46.5149 162.95 46.5149C162.82 46.5149 162.682 46.5346 162.528 46.57C162.43 46.775 162.371 46.8853 162.351 46.8971C162.331 46.9089 162.237 46.9365 162.059 46.9799C161.882 47.0232 161.76 47.0114 161.685 46.9365C161.61 46.8656 161.539 46.7395 161.464 46.5582C161.389 46.3769 161.353 46.2232 161.353 46.0971C161.353 46.0183 161.381 45.9592 161.44 45.9158C161.499 45.8725 161.712 45.8252 162.079 45.774C162.446 45.7227 162.84 45.6991 163.258 45.6991C163.751 45.6991 164.141 45.7937 164.421 45.9828C164.701 46.172 164.843 46.5385 164.843 47.0823V48.3237C164.843 49.0134 164.871 49.439 164.926 49.5966C164.981 49.7543 165.076 49.8173 165.214 49.7818C165.257 49.8685 165.277 49.9552 165.277 50.038C165.277 50.1799 165.202 50.2863 165.052 50.3572C164.898 50.4321 164.697 50.4676 164.441 50.4676C164.326 50.4676 164.24 50.4518 164.173 50.4203C164.11 50.3887 164.007 50.2705 163.869 50.0577L163.865 50.0656ZM163.692 48.5089C163.491 48.4616 163.285 48.438 163.077 48.438C162.84 48.438 162.67 48.4814 162.572 48.5681C162.469 48.6547 162.422 48.8203 162.422 49.0646C162.422 49.2774 162.473 49.435 162.572 49.5454C162.67 49.6518 162.816 49.707 163.009 49.707C163.163 49.707 163.297 49.6715 163.412 49.6006C163.526 49.5296 163.605 49.4272 163.64 49.2932C163.676 49.1592 163.696 48.9897 163.696 48.7769V48.5089H163.692Z" fill="white"/>
<path d="M170.245 43.9413C170.714 43.9413 170.978 43.957 171.041 43.9925C171.104 44.028 171.38 44.8477 171.873 46.4556C172.366 48.0634 172.721 49.1708 172.942 49.7856H173.34C173.387 49.8959 173.411 50.0142 173.411 50.1324C173.411 50.2427 173.391 50.3176 173.356 50.361C173.32 50.4043 173.261 50.428 173.178 50.428H171.022C170.974 50.29 170.951 50.16 170.951 50.0299C170.951 49.9472 170.97 49.8841 171.014 49.8447C171.057 49.8053 171.116 49.7856 171.199 49.7856H171.384C171.341 49.561 171.234 49.1117 171.061 48.4418H169.271C169.113 49.0959 169.015 49.5452 168.975 49.7856H169.377C169.425 49.8959 169.448 50.0142 169.448 50.1324C169.448 50.2427 169.429 50.3176 169.393 50.361C169.358 50.4043 169.299 50.428 169.22 50.428H167.378C167.331 50.29 167.307 50.16 167.307 50.0299C167.307 49.9472 167.327 49.8841 167.37 49.8447C167.41 49.8053 167.473 49.7856 167.552 49.7856H167.781C167.978 49.1826 168.281 48.2053 168.683 46.8496C169.086 45.4979 169.354 44.6743 169.488 44.3827C169.618 44.091 169.87 43.9452 170.241 43.9452L170.245 43.9413ZM169.456 47.6575H170.852C170.422 46.0851 170.182 45.2969 170.127 45.2969C170.071 45.2969 169.851 46.0851 169.452 47.6575H169.456Z" fill="white"/>
<path d="M177.026 46.28C177.164 46.6031 177.231 46.9263 177.231 47.2415C177.231 47.7972 177.066 48.2386 176.735 48.5696C176.403 48.9006 175.914 49.0622 175.272 49.0622C174.992 49.0622 174.818 49.0937 174.747 49.1529C174.676 49.212 174.641 49.3026 174.641 49.4248C174.641 49.5469 174.684 49.6376 174.771 49.7006C174.858 49.7637 175.311 49.7913 176.127 49.7913C176.837 49.7913 177.306 49.878 177.535 50.0553C177.76 50.2327 177.874 50.4888 177.874 50.8238C177.874 51.34 177.626 51.746 177.129 52.0415C176.632 52.3371 175.855 52.4868 174.803 52.4868C174.314 52.4868 173.99 52.4198 173.829 52.2819C173.671 52.144 173.588 51.9509 173.588 51.7065C173.588 51.5253 173.632 51.344 173.722 51.1588C173.809 50.9775 173.935 50.7962 174.089 50.6228C173.947 50.5676 173.829 50.4809 173.742 50.3509C173.655 50.2208 173.608 50.0671 173.608 49.8819C173.608 49.6652 173.671 49.4721 173.805 49.3066C173.939 49.141 174.113 49.0031 174.337 48.8888C174.152 48.8021 173.998 48.6484 173.88 48.4238C173.762 48.2031 173.699 47.9194 173.699 47.5765C173.699 47.0248 173.864 46.5637 174.191 46.2011C174.519 45.8386 175.015 45.6573 175.67 45.6573C176.001 45.6573 176.324 45.7164 176.636 45.8386C177.038 45.6297 177.279 45.5233 177.354 45.5233C177.76 45.5233 177.984 45.5351 178.028 45.5588C178.067 45.5824 178.091 45.6258 178.091 45.6888C178.091 45.7795 178.051 45.9135 177.969 46.0947C177.886 46.276 177.811 46.3627 177.736 46.3627C177.661 46.3627 177.452 46.2878 177.105 46.1381L177.03 46.28H177.026ZM174.795 50.6898C174.732 50.7726 174.676 50.8711 174.641 50.9814C174.605 51.0918 174.586 51.2021 174.586 51.3085C174.586 51.4937 174.641 51.6238 174.739 51.6987C174.842 51.7735 175.047 51.8129 175.358 51.8129C175.792 51.8129 176.119 51.7578 176.336 51.6474C176.549 51.5371 176.66 51.3755 176.66 51.1588C176.66 50.9775 176.581 50.8553 176.423 50.7883C176.265 50.7213 175.725 50.6859 174.799 50.6859L174.795 50.6898ZM175.453 46.3312C175.252 46.3312 175.106 46.4021 175.008 46.544C174.909 46.6859 174.858 46.9617 174.858 47.3795C174.858 47.7617 174.909 48.0297 175.012 48.1716C175.114 48.3174 175.264 48.3883 175.465 48.3883C175.666 48.3883 175.824 48.3174 175.922 48.1795C176.021 48.0415 176.068 47.7617 176.068 47.3479C176.068 46.9933 176.017 46.7332 175.914 46.5716C175.812 46.41 175.658 46.3312 175.453 46.3312Z" fill="white"/>
<path d="M180.421 45.6561C181.005 45.6561 181.431 45.8019 181.695 46.0975C181.959 46.3931 182.093 46.8581 182.093 47.4965C182.093 47.8118 182.038 48.0364 181.924 48.1704C181.809 48.3044 181.565 48.3714 181.186 48.3714H179.617C179.625 48.7812 179.708 49.1005 179.865 49.333C180.023 49.5655 180.299 49.6837 180.697 49.6837C181.096 49.6837 181.486 49.5576 181.896 49.3093C182.042 49.4669 182.113 49.6403 182.113 49.8256C182.113 50.0778 181.947 50.2512 181.616 50.3497C181.285 50.4482 180.898 50.4995 180.457 50.4995C179.692 50.4995 179.136 50.3261 178.789 49.9832C178.442 49.6403 178.269 49.0729 178.269 48.2847C178.269 47.4965 178.462 46.8187 178.852 46.3576C179.242 45.8926 179.763 45.664 180.421 45.664V45.6561ZM180.256 46.4679C180.047 46.4679 179.889 46.5625 179.779 46.7477C179.668 46.9369 179.613 47.2601 179.609 47.729H179.834C180.145 47.729 180.382 47.7172 180.548 47.6975C180.713 47.6778 180.808 47.6423 180.835 47.595C180.863 47.5477 180.879 47.465 180.879 47.3546C180.879 47.0748 180.824 46.8542 180.713 46.7005C180.603 46.5468 180.449 46.4679 180.256 46.4679Z" fill="white"/>
<path d="M184.025 46.2472C184.332 46.0344 184.628 45.8847 184.908 45.794C185.192 45.7034 185.428 45.66 185.618 45.66C186.016 45.66 186.308 45.7586 186.501 45.9517C186.694 46.1448 186.789 46.5349 186.789 47.1221C186.789 48.659 186.816 49.4866 186.864 49.6088C186.915 49.731 187.021 49.7861 187.191 49.7861C187.234 49.8965 187.254 50.0147 187.254 50.1369C187.254 50.2512 187.222 50.326 187.155 50.3654C187.088 50.4048 186.962 50.4245 186.777 50.4245C186.323 50.4245 186.032 50.4167 185.913 50.4009C185.791 50.3851 185.708 50.3339 185.665 50.2472C185.618 50.1605 185.598 50.0147 185.598 49.8137V48.1585C185.598 47.5201 185.547 47.0945 185.44 46.8778C185.334 46.661 185.164 46.5507 184.928 46.5507C184.727 46.5507 184.569 46.6137 184.455 46.7438C184.34 46.8738 184.281 47.1457 184.281 47.5556V48.4975C184.281 48.8915 184.289 49.3172 184.301 49.7782H184.802C184.849 49.8807 184.873 49.995 184.873 50.125C184.873 50.2354 184.853 50.3103 184.809 50.3536C184.77 50.397 184.691 50.4206 184.573 50.4206H182.586C182.534 50.2906 182.511 50.1645 182.511 50.0502C182.511 49.9516 182.53 49.8846 182.57 49.8413C182.609 49.798 182.672 49.7782 182.759 49.7782H183.067C183.079 49.262 183.086 48.73 183.086 48.1822C183.086 47.3073 183.051 46.7911 182.976 46.6334C182.901 46.4758 182.771 46.393 182.586 46.393C182.534 46.2669 182.511 46.1448 182.511 46.0187C182.511 45.9083 182.55 45.8334 182.621 45.798C182.696 45.7625 183.161 45.731 184.017 45.7034C184.033 45.8334 184.033 46.0147 184.017 46.2433L184.025 46.2472Z" fill="white"/>
<path d="M189.699 50.5192C188.922 50.5192 188.374 50.3576 188.066 50.0384C187.759 49.7192 187.601 49.1674 187.601 48.3911C187.601 47.5162 187.802 46.8423 188.204 46.3694C188.607 45.8965 189.21 45.6561 190.014 45.6561C190.436 45.6561 190.728 45.6955 190.889 45.7783C191.051 45.8611 191.134 45.995 191.142 46.1881C191.142 46.4325 191.075 46.6532 190.933 46.8542C190.468 46.598 190.089 46.4719 189.793 46.4719C189.498 46.4719 189.285 46.5862 189.147 46.8147C189.009 47.0433 188.938 47.4492 188.938 48.0246C188.938 48.6 189.005 49.0216 189.143 49.2975C189.281 49.5734 189.529 49.7113 189.888 49.7113C190.18 49.7113 190.554 49.5891 191.016 49.3487C191.134 49.53 191.193 49.7192 191.193 49.9202C191.193 50.1211 191.043 50.2748 190.747 50.3734C190.448 50.4719 190.101 50.5231 189.699 50.5231V50.5192Z" fill="white"/>
<path d="M195.535 46.4911C195.448 46.7434 195.204 47.6301 194.801 49.1512C194.403 50.6724 194.092 51.5709 193.875 51.8468C193.658 52.1226 193.402 52.3 193.11 52.3749C192.814 52.4497 192.491 52.4891 192.132 52.4891C191.773 52.4891 191.525 52.4537 191.407 52.3827C191.288 52.3118 191.229 52.1936 191.229 52.0241C191.229 51.8231 191.288 51.6419 191.411 51.4763C192.014 51.6182 192.448 51.6773 192.72 51.6576C192.992 51.6379 193.236 51.2438 193.453 50.4714C193.011 50.4832 192.775 50.4793 192.739 50.4596C192.704 50.4399 192.578 49.9355 192.361 48.9463C192.144 47.9571 192.006 47.3503 191.951 47.1256C191.896 46.901 191.852 46.7355 191.817 46.633C191.781 46.5306 191.734 46.4636 191.679 46.436C191.62 46.4084 191.521 46.3966 191.387 46.3966C191.34 46.2547 191.316 46.1207 191.316 46.0025C191.316 45.8606 191.375 45.7739 191.489 45.7463C191.604 45.7187 191.86 45.7069 192.254 45.7069C192.519 45.7069 192.7 45.7266 192.802 45.7621C192.901 45.8015 192.972 45.8685 193.007 45.967C193.047 46.0655 193.106 46.365 193.185 46.8655C193.264 47.366 193.366 47.9611 193.492 48.6468C193.619 49.3325 193.697 49.6754 193.737 49.6754C193.776 49.6754 193.895 49.2103 194.1 48.2842C194.305 47.3581 194.419 46.7591 194.451 46.4833H194.222C194.171 46.3729 194.147 46.2586 194.147 46.1365C194.147 46.0143 194.171 45.9276 194.214 45.8724C194.257 45.8173 194.328 45.7897 194.427 45.7897H195.862C195.913 45.8961 195.937 46.0104 195.937 46.1286C195.937 46.2665 195.913 46.3611 195.866 46.4084C195.819 46.4596 195.736 46.4833 195.618 46.4833H195.543L195.535 46.4911Z" fill="white"/>
<path d="M199.903 50.5192C199.272 50.5192 198.799 50.3379 198.48 49.9714C198.16 49.6049 198.003 49.0768 198.003 48.3832C198.003 47.5162 198.196 46.8463 198.582 46.3694C198.969 45.8926 199.513 45.6561 200.211 45.6561C200.842 45.6561 201.315 45.8374 201.63 46.2039C201.95 46.5704 202.107 47.0985 202.107 47.7921C202.107 48.6591 201.914 49.329 201.528 49.8059C201.141 50.2827 200.601 50.5192 199.899 50.5192H199.903ZM200.1 49.7113C200.329 49.7113 200.499 49.6088 200.609 49.4078C200.719 49.2069 200.775 48.8167 200.775 48.2335C200.775 47.599 200.711 47.1458 200.589 46.8739C200.467 46.6019 200.274 46.4679 200.01 46.4679C199.781 46.4679 199.611 46.5704 199.501 46.7714C199.391 46.9724 199.335 47.3625 199.335 47.9458C199.335 48.5803 199.398 49.0335 199.517 49.3054C199.639 49.5773 199.832 49.7113 200.096 49.7113H200.1Z" fill="white"/>
<path d="M204.221 49.7871H204.887C204.934 49.8896 204.958 50.0039 204.958 50.1339C204.958 50.2443 204.938 50.3192 204.899 50.3625C204.859 50.4059 204.78 50.4295 204.658 50.4295H202.466C202.419 50.2995 202.395 50.1733 202.395 50.0591C202.395 49.9605 202.415 49.8935 202.454 49.8502C202.494 49.8068 202.557 49.7871 202.643 49.7871H202.99C203.002 49.3891 203.01 48.9596 203.01 48.5064V46.4926H202.466C202.415 46.3586 202.391 46.2246 202.391 46.0867C202.391 45.9803 202.411 45.9054 202.446 45.862C202.482 45.8187 202.549 45.795 202.64 45.795H203.01C203.026 45.0305 203.195 44.4985 203.511 44.199C203.826 43.8995 204.335 43.7537 205.033 43.7537C205.439 43.7537 205.735 43.797 205.92 43.8837C206.105 43.9704 206.2 44.1123 206.2 44.3093C206.2 44.5064 206.125 44.7113 205.975 44.9241C205.411 44.6561 204.997 44.5221 204.729 44.5221C204.504 44.5221 204.359 44.6049 204.296 44.7665C204.232 44.932 204.197 45.196 204.197 45.5625V45.8029H205.34C205.388 45.929 205.411 46.0591 205.411 46.2009C205.411 46.3192 205.392 46.398 205.352 46.4413C205.313 46.4807 205.238 46.5005 205.124 46.5005H204.193V48.5142C204.193 48.9674 204.201 49.3931 204.217 49.795L204.221 49.7871Z" fill="white"/>
<path d="M211.487 44.0351H213.332C213.379 44.1494 213.403 44.2676 213.403 44.3819C213.403 44.4962 213.383 44.571 213.348 44.6144C213.312 44.6577 213.253 44.6774 213.174 44.6774H212.973C212.792 45.2804 212.496 46.2814 212.086 47.6843C211.676 49.0873 211.408 49.9109 211.274 50.1513C211.14 50.3956 210.864 50.5178 210.442 50.5178C209.996 50.5178 209.748 50.502 209.701 50.4666C209.653 50.4311 209.389 49.6114 208.912 48.0035C208.435 46.3956 208.088 45.2883 207.867 44.6735H207.512C207.461 44.5356 207.438 44.4055 207.438 44.2794C207.438 44.1927 207.457 44.1296 207.501 44.0902C207.544 44.0508 207.603 44.0311 207.686 44.0311H209.784C209.831 44.1454 209.854 44.2636 209.854 44.3779C209.854 44.4922 209.835 44.5671 209.799 44.6104C209.764 44.6538 209.705 44.6735 209.626 44.6735H209.417C209.48 45.0124 209.689 45.8439 210.052 47.172C210.414 48.5001 210.619 49.1661 210.671 49.1661C210.722 49.1661 210.903 48.508 211.207 47.1956C211.514 45.8794 211.676 45.04 211.696 44.6735H211.298C211.25 44.5356 211.227 44.4055 211.227 44.2794C211.227 44.1927 211.246 44.1296 211.29 44.0902C211.329 44.0508 211.392 44.0311 211.479 44.0311L211.487 44.0351Z" fill="white"/>
<path d="M215.257 45.6561C215.841 45.6561 216.266 45.8019 216.531 46.0975C216.795 46.3931 216.929 46.8581 216.929 47.4965C216.929 47.8118 216.874 48.0364 216.759 48.1704C216.645 48.3044 216.4 48.3714 216.022 48.3714H214.453C214.461 48.7812 214.543 49.1005 214.701 49.333C214.859 49.5655 215.135 49.6837 215.533 49.6837C215.931 49.6837 216.322 49.5576 216.732 49.3093C216.878 49.4669 216.949 49.6403 216.949 49.8256C216.949 50.0778 216.783 50.2512 216.452 50.3497C216.121 50.4482 215.734 50.4995 215.293 50.4995C214.528 50.4995 213.972 50.3261 213.625 49.9832C213.278 49.6403 213.104 49.0729 213.104 48.2847C213.104 47.4965 213.297 46.8187 213.688 46.3576C214.078 45.8926 214.599 45.664 215.257 45.664V45.6561ZM215.091 46.4679C214.882 46.4679 214.725 46.5625 214.614 46.7477C214.504 46.9369 214.449 47.2601 214.445 47.729H214.67C214.981 47.729 215.218 47.7172 215.383 47.6975C215.549 47.6778 215.643 47.6423 215.671 47.595C215.699 47.5477 215.714 47.465 215.714 47.3546C215.714 47.0748 215.659 46.8542 215.549 46.7005C215.438 46.5468 215.285 46.4679 215.091 46.4679Z" fill="white"/>
<path d="M220.848 46.28C220.986 46.6031 221.053 46.9263 221.053 47.2415C221.053 47.7972 220.887 48.2386 220.556 48.5696C220.225 48.9006 219.736 49.0622 219.093 49.0622C218.813 49.0622 218.64 49.0937 218.569 49.1529C218.498 49.212 218.462 49.3026 218.462 49.4248C218.462 49.5469 218.506 49.6376 218.592 49.7006C218.679 49.7637 219.132 49.7913 219.949 49.7913C220.658 49.7913 221.128 49.878 221.356 50.0553C221.581 50.2327 221.695 50.4888 221.695 50.8238C221.695 51.34 221.447 51.746 220.95 52.0415C220.453 52.3371 219.677 52.4868 218.624 52.4868C218.135 52.4868 217.812 52.4198 217.65 52.2819C217.492 52.144 217.409 51.9509 217.409 51.7065C217.409 51.5253 217.453 51.344 217.543 51.1588C217.63 50.9775 217.756 50.7962 217.91 50.6228C217.768 50.5676 217.65 50.4809 217.563 50.3509C217.476 50.2208 217.429 50.0671 217.429 49.8819C217.429 49.6652 217.492 49.4721 217.626 49.3066C217.76 49.141 217.934 49.0031 218.159 48.8888C217.973 48.8021 217.819 48.6484 217.701 48.4238C217.583 48.2031 217.52 47.9194 217.52 47.5765C217.52 47.0248 217.685 46.5637 218.013 46.2011C218.34 45.8386 218.837 45.6573 219.491 45.6573C219.822 45.6573 220.146 45.7164 220.457 45.8386C220.859 45.6297 221.1 45.5233 221.175 45.5233C221.581 45.5233 221.806 45.5351 221.849 45.5588C221.889 45.5824 221.912 45.6258 221.912 45.6888C221.912 45.7795 221.873 45.9135 221.79 46.0947C221.707 46.276 221.632 46.3627 221.557 46.3627C221.482 46.3627 221.273 46.2878 220.926 46.1381L220.852 46.28H220.848ZM218.616 50.6898C218.553 50.7726 218.498 50.8711 218.462 50.9814C218.427 51.0918 218.407 51.2021 218.407 51.3085C218.407 51.4937 218.462 51.6238 218.561 51.6987C218.663 51.7735 218.868 51.8129 219.18 51.8129C219.613 51.8129 219.941 51.7578 220.158 51.6474C220.371 51.5371 220.481 51.3755 220.481 51.1588C220.481 50.9775 220.402 50.8553 220.244 50.7883C220.087 50.7213 219.546 50.6859 218.62 50.6859L218.616 50.6898ZM219.274 46.3312C219.073 46.3312 218.927 46.4021 218.829 46.544C218.73 46.6859 218.679 46.9617 218.679 47.3795C218.679 47.7617 218.73 48.0297 218.833 48.1716C218.935 48.3174 219.085 48.3883 219.286 48.3883C219.487 48.3883 219.645 48.3174 219.744 48.1795C219.842 48.0415 219.889 47.7617 219.889 47.3479C219.889 46.9933 219.838 46.7332 219.736 46.5716C219.633 46.41 219.479 46.3312 219.274 46.3312Z" fill="white"/>
<path d="M224.767 50.0656C224.554 50.1838 224.314 50.2902 224.045 50.3809C223.777 50.4754 223.521 50.5188 223.28 50.5188C222.874 50.5188 222.575 50.4124 222.385 50.2035C222.196 49.9946 222.102 49.6991 222.102 49.3208C222.102 48.7927 222.263 48.4025 222.59 48.1464C222.918 47.8902 223.43 47.7641 224.136 47.7641H224.593C224.57 47.2833 224.495 46.9562 224.381 46.7789C224.262 46.6016 224.085 46.5149 223.848 46.5149C223.718 46.5149 223.58 46.5346 223.426 46.57C223.328 46.775 223.269 46.8853 223.253 46.8971C223.233 46.9089 223.139 46.9365 222.961 46.9799C222.784 47.0232 222.661 47.0114 222.587 46.9365C222.516 46.8656 222.441 46.7395 222.366 46.5582C222.291 46.3769 222.255 46.2232 222.255 46.0971C222.255 46.0183 222.283 45.9592 222.342 45.9158C222.401 45.8725 222.614 45.8252 222.981 45.774C223.348 45.7227 223.742 45.6991 224.16 45.6991C224.653 45.6991 225.043 45.7937 225.323 45.9828C225.603 46.172 225.745 46.5385 225.745 47.0823V48.3237C225.745 49.0134 225.772 49.439 225.828 49.5966C225.879 49.7543 225.977 49.8173 226.115 49.7818C226.159 49.8685 226.179 49.9552 226.179 50.038C226.179 50.1799 226.104 50.2863 225.954 50.3572C225.804 50.4321 225.599 50.4676 225.343 50.4676C225.232 50.4676 225.142 50.4518 225.078 50.4203C225.015 50.3887 224.913 50.2705 224.775 50.0577L224.767 50.0656ZM224.593 48.5089C224.392 48.4616 224.187 48.438 223.978 48.438C223.742 48.438 223.572 48.4814 223.47 48.5681C223.367 48.6547 223.316 48.8203 223.316 49.0646C223.316 49.2774 223.367 49.435 223.466 49.5454C223.568 49.6518 223.71 49.707 223.903 49.707C224.057 49.707 224.191 49.6715 224.306 49.6006C224.424 49.5296 224.499 49.4272 224.538 49.2932C224.574 49.1592 224.593 48.9897 224.593 48.7769V48.5089Z" fill="white"/>
<path d="M228.056 46.2472C228.364 46.0344 228.659 45.8847 228.939 45.794C229.223 45.7034 229.46 45.66 229.649 45.66C230.047 45.66 230.339 45.7586 230.532 45.9517C230.725 46.1448 230.82 46.5349 230.82 47.1221C230.82 48.659 230.848 49.4866 230.895 49.6088C230.946 49.731 231.053 49.7861 231.222 49.7861C231.266 49.8965 231.285 50.0147 231.285 50.1369C231.285 50.2512 231.254 50.326 231.187 50.3654C231.12 50.4048 230.993 50.4245 230.808 50.4245C230.355 50.4245 230.063 50.4167 229.945 50.4009C229.826 50.3851 229.74 50.3339 229.696 50.2472C229.649 50.1605 229.629 50.0147 229.629 49.8137V48.1585C229.629 47.5201 229.578 47.0945 229.472 46.8778C229.365 46.661 229.196 46.5507 228.959 46.5507C228.758 46.5507 228.6 46.6137 228.486 46.7438C228.371 46.8738 228.312 47.1457 228.312 47.5556V48.4975C228.312 48.8915 228.32 49.3172 228.332 49.7782H228.833C228.88 49.8807 228.904 49.995 228.904 50.125C228.904 50.2354 228.884 50.3103 228.841 50.3536C228.801 50.397 228.722 50.4206 228.604 50.4206H226.617C226.566 50.2906 226.542 50.1645 226.542 50.0502C226.542 49.9516 226.562 49.8846 226.601 49.8413C226.641 49.798 226.704 49.7782 226.79 49.7782H227.098C227.11 49.262 227.118 48.73 227.118 48.1822C227.118 47.3073 227.082 46.7911 227.007 46.6334C226.932 46.4758 226.802 46.393 226.617 46.393C226.566 46.2669 226.542 46.1448 226.542 46.0187C226.542 45.9083 226.581 45.8334 226.652 45.798C226.727 45.7625 227.193 45.731 228.048 45.7034C228.064 45.8334 228.064 46.0147 228.048 46.2433L228.056 46.2472Z" fill="white"/>
<path d="M145.984 59.9912C146.461 59.9912 146.903 59.8494 147.305 59.5617C147.494 59.7942 147.589 60.0188 147.589 60.2395C147.589 60.4602 147.392 60.6139 146.998 60.7242C146.603 60.8346 146.142 60.8898 145.61 60.8898C144.754 60.8898 144.119 60.6809 143.701 60.2671C143.283 59.8533 143.078 59.077 143.078 57.938C143.078 56.6927 143.327 55.7745 143.824 55.1873C144.32 54.6001 145.026 54.3046 145.941 54.3046C146.54 54.3046 146.954 54.3519 147.187 54.4464C147.419 54.541 147.534 54.7144 147.534 54.9706C147.534 55.1676 147.443 55.3804 147.266 55.609C146.733 55.341 146.225 55.207 145.74 55.207C145.334 55.207 145.03 55.3686 144.829 55.6957C144.632 56.0188 144.533 56.606 144.533 57.4494C144.533 58.4464 144.64 59.1203 144.857 59.4671C145.073 59.8178 145.448 59.9912 145.988 59.9912H145.984Z" fill="white"/>
<path d="M150.196 56.0311C150.779 56.0311 151.205 56.1769 151.469 56.4725C151.733 56.7681 151.867 57.2331 151.867 57.8715C151.867 58.1868 151.812 58.4114 151.698 58.5454C151.587 58.6794 151.339 58.7464 150.96 58.7464H149.391C149.399 59.1562 149.482 59.4755 149.64 59.708C149.797 59.9405 150.073 60.0587 150.472 60.0587C150.87 60.0587 151.26 59.9326 151.67 59.6843C151.816 59.842 151.891 60.0153 151.891 60.2006C151.891 60.4528 151.725 60.6262 151.394 60.7247C151.063 60.8232 150.677 60.8745 150.231 60.8745C149.466 60.8745 148.91 60.7011 148.563 60.3582C148.216 60.0154 148.043 59.4479 148.043 58.6597C148.043 57.8715 148.236 57.1937 148.626 56.7326C149.017 56.2676 149.537 56.0351 150.196 56.0351V56.0311ZM150.026 56.839C149.817 56.839 149.659 56.9336 149.549 57.1188C149.439 57.308 149.383 57.6311 149.379 58.1001H149.604C149.916 58.1001 150.156 58.0883 150.318 58.0686C150.483 58.0489 150.578 58.0134 150.606 57.9661C150.633 57.9188 150.649 57.836 150.649 57.7257C150.649 57.4459 150.594 57.2252 150.483 57.0715C150.373 56.9178 150.219 56.839 150.022 56.839H150.026Z" fill="white"/>
<path d="M152.289 56.3937C152.289 56.2833 152.324 56.2085 152.399 56.173C152.474 56.1375 152.939 56.106 153.795 56.0784C153.811 56.2085 153.811 56.3897 153.795 56.6223C154.15 56.3897 154.469 56.2361 154.757 56.1533C155.045 56.0705 155.297 56.0311 155.518 56.0311C155.62 56.0311 155.687 56.043 155.719 56.0705C155.754 56.0981 155.77 56.1572 155.77 56.2558C155.77 56.4292 155.747 56.6065 155.699 56.7917C155.652 56.9769 155.597 57.0991 155.526 57.1503C155.459 57.2016 155.348 57.241 155.198 57.2686C155.049 57.2922 154.962 57.3001 154.938 57.2883C154.915 57.2764 154.836 57.17 154.698 56.973C154.489 56.973 154.331 57.0558 154.221 57.2252C154.11 57.3907 154.055 57.8242 154.055 58.5139C154.055 59.1484 154.063 59.6961 154.075 60.1533H154.737C154.788 60.2557 154.812 60.37 154.812 60.5001C154.812 60.6104 154.792 60.6853 154.749 60.7287C154.71 60.772 154.631 60.7956 154.512 60.7956H152.36C152.308 60.6656 152.285 60.5395 152.285 60.4252C152.285 60.3267 152.304 60.2597 152.344 60.2163C152.383 60.173 152.446 60.1533 152.533 60.1533H152.841C152.856 59.6922 152.86 59.1602 152.86 58.5572C152.86 57.6824 152.825 57.1661 152.75 57.0085C152.675 56.8508 152.545 56.7681 152.36 56.7681C152.308 56.642 152.285 56.5198 152.285 56.3937H152.289Z" fill="white"/>
<path d="M156.169 56.1607H156.465L156.883 54.7499C157.024 54.7972 157.159 54.8563 157.281 54.9312C157.403 55.006 157.494 55.0927 157.557 55.1873C157.62 55.2819 157.651 55.5223 157.651 55.9046V56.1568H159.079C159.126 56.2829 159.15 56.4129 159.15 56.5548C159.15 56.673 159.13 56.7518 159.091 56.7952C159.051 56.8346 158.976 56.8543 158.862 56.8543H157.651V58.7065C157.651 59.2425 157.691 59.609 157.774 59.8021C157.856 59.9952 157.99 60.0976 158.18 60.1055C158.369 60.1134 158.602 60.0385 158.874 59.8809C158.956 60.0031 158.996 60.141 158.996 60.2986C158.996 60.5114 158.893 60.6533 158.692 60.7282C158.491 60.8031 158.18 60.8385 157.754 60.8385C157.289 60.8385 156.957 60.7361 156.76 60.5311C156.563 60.3262 156.465 59.9242 156.465 59.3331V58.5174C156.465 58.0011 156.449 57.4494 156.421 56.8582H155.991C155.94 56.7243 155.917 56.5903 155.917 56.4523C155.917 56.3459 155.936 56.2711 155.972 56.2277C156.007 56.1844 156.074 56.1607 156.165 56.1607H156.169Z" fill="white"/>
<path d="M161.133 60.1543H161.629C161.677 60.2567 161.7 60.371 161.7 60.5011C161.7 60.6114 161.681 60.6863 161.641 60.7296C161.602 60.773 161.519 60.7966 161.401 60.7966H159.378C159.331 60.6666 159.307 60.5405 159.307 60.4262C159.307 60.3277 159.327 60.2607 159.366 60.2173C159.406 60.174 159.469 60.1543 159.556 60.1543H159.902C159.918 59.7562 159.922 59.3267 159.922 58.8735C159.922 58.1838 159.918 57.7267 159.906 57.4981C159.895 57.2696 159.875 57.108 159.843 57.0016C159.808 56.8991 159.757 56.8321 159.686 56.8045C159.615 56.7769 159.512 56.7651 159.378 56.7651C159.331 56.6784 159.307 56.576 159.307 56.4617C159.307 56.2883 159.37 56.1779 159.5 56.1385C159.63 56.0991 159.891 56.0794 160.289 56.0794C160.589 56.0794 160.79 56.0912 160.9 56.1149C161.006 56.1385 161.07 56.1898 161.085 56.2607C161.101 56.3356 161.109 56.438 161.109 56.5681V58.8735C161.109 59.3267 161.121 59.7523 161.133 60.1543ZM160.364 55.4686C160.111 55.4686 159.926 55.4134 159.816 55.307C159.701 55.2006 159.646 55.0469 159.646 54.8499C159.646 54.6528 159.717 54.4755 159.859 54.3415C160.001 54.2075 160.206 54.1405 160.47 54.1405C160.734 54.1405 160.932 54.1957 161.046 54.31C161.156 54.4242 161.215 54.574 161.215 54.7553C161.215 54.9602 161.148 55.1257 161.014 55.2597C160.88 55.3937 160.663 55.4607 160.364 55.4607V55.4686Z" fill="white"/>
<path d="M166.022 56.1623C166.318 56.1623 166.519 56.1742 166.629 56.2018C166.74 56.2293 166.803 56.2766 166.819 56.3515C166.835 56.4224 166.842 56.5249 166.842 56.655V58.8737C166.842 59.3269 166.85 59.7525 166.87 60.1544H167.367C167.414 60.2569 167.438 60.3712 167.438 60.5012C167.438 60.6116 167.418 60.6865 167.375 60.7298C167.331 60.7732 167.252 60.7968 167.138 60.7968H165.111C165.064 60.6668 165.041 60.5407 165.041 60.4264C165.041 60.3278 165.06 60.2609 165.1 60.2175C165.139 60.1742 165.202 60.1544 165.293 60.1544H165.636C165.652 59.7564 165.66 59.3269 165.66 58.8737C165.66 58.2155 165.656 57.7702 165.644 57.5456C165.636 57.321 165.612 57.1554 165.577 57.049C165.541 56.9466 165.49 56.8796 165.419 56.852C165.352 56.8244 165.249 56.8126 165.111 56.8126H163.676V58.8737C163.676 59.3269 163.684 59.7525 163.696 60.1544H164.323C164.37 60.2569 164.394 60.3712 164.394 60.5012C164.394 60.6116 164.374 60.6865 164.335 60.7298C164.291 60.7732 164.213 60.7968 164.094 60.7968H161.937C161.89 60.6668 161.866 60.5407 161.866 60.4264C161.866 60.3278 161.886 60.2609 161.926 60.2175C161.965 60.1742 162.028 60.1544 162.115 60.1544H162.462C162.478 59.7564 162.482 59.3269 162.482 58.8737V56.8599H161.937C161.886 56.7259 161.863 56.5919 161.863 56.454C161.863 56.3476 161.882 56.2727 161.918 56.2293C161.953 56.186 162.02 56.1623 162.111 56.1623H162.482C162.497 55.3978 162.675 54.8658 163.01 54.5663C163.345 54.2668 163.964 54.121 164.867 54.121C165.695 54.121 166.231 54.1683 166.476 54.2589C166.716 54.3535 166.838 54.5269 166.838 54.7909C166.838 55.1141 166.712 55.3742 166.46 55.5791C165.628 55.118 164.977 54.8855 164.512 54.8855C164.165 54.8855 163.94 54.9643 163.834 55.122C163.731 55.2796 163.676 55.5673 163.676 55.9929V56.1663H166.022V56.1623Z" fill="white"/>
<path d="M169.772 60.8903C168.995 60.8903 168.447 60.7287 168.14 60.4095C167.832 60.0903 167.674 59.5385 167.674 58.7622C167.674 57.8873 167.875 57.2134 168.278 56.7405C168.68 56.2676 169.283 56.0272 170.087 56.0272C170.509 56.0272 170.801 56.0666 170.963 56.1494C171.124 56.2321 171.207 56.3661 171.215 56.5553C171.215 56.7996 171.148 57.0203 171.006 57.2213C170.541 56.9651 170.162 56.839 169.867 56.839C169.571 56.839 169.358 56.9533 169.22 57.1819C169.082 57.4105 169.011 57.8164 169.011 58.3917C169.011 58.9671 169.078 59.3888 169.216 59.6646C169.354 59.9405 169.602 60.0784 169.961 60.0784C170.253 60.0784 170.628 59.9563 171.089 59.7159C171.207 59.8972 171.266 60.0863 171.266 60.2873C171.266 60.4883 171.116 60.642 170.821 60.7405C170.521 60.839 170.174 60.8903 169.772 60.8903Z" fill="white"/>
<path d="M174.271 60.4328C174.058 60.551 173.817 60.6574 173.549 60.748C173.281 60.8387 173.025 60.886 172.784 60.886C172.378 60.886 172.078 60.7796 171.889 60.5707C171.7 60.3618 171.605 60.0663 171.605 59.6879C171.605 59.1599 171.767 58.7697 172.094 58.5136C172.421 58.2574 172.934 58.1313 173.64 58.1313H174.097C174.073 57.6505 173.999 57.3234 173.884 57.1461C173.766 56.9687 173.588 56.882 173.352 56.882C173.222 56.882 173.084 56.9018 172.93 56.9372C172.831 57.1421 172.772 57.2525 172.757 57.2643C172.737 57.2761 172.642 57.3037 172.465 57.3471C172.287 57.3904 172.165 57.3786 172.09 57.3037C172.019 57.2328 171.944 57.1067 171.869 56.9254C171.794 56.7441 171.759 56.5904 171.759 56.4643C171.759 56.3855 171.787 56.3264 171.846 56.283C171.905 56.2397 172.118 56.1924 172.484 56.1412C172.851 56.0899 173.245 56.0663 173.663 56.0663C174.156 56.0663 174.547 56.1609 174.827 56.35C175.106 56.5392 175.248 56.9057 175.248 57.4495V58.6909C175.248 59.3806 175.276 59.8062 175.331 59.9638C175.382 60.1214 175.481 60.1845 175.619 60.149C175.662 60.2357 175.682 60.3224 175.682 60.4052C175.682 60.5471 175.607 60.6535 175.457 60.7244C175.308 60.7993 175.103 60.8347 174.846 60.8347C174.736 60.8347 174.645 60.819 174.582 60.7874C174.519 60.7559 174.416 60.6377 174.278 60.4249L174.271 60.4328ZM174.101 58.8761C173.9 58.8288 173.695 58.8052 173.486 58.8052C173.249 58.8052 173.08 58.8485 172.977 58.9352C172.875 59.0219 172.824 59.1875 172.824 59.4318C172.824 59.6446 172.875 59.8022 172.973 59.9126C173.076 60.019 173.218 60.0742 173.411 60.0742C173.565 60.0742 173.699 60.0387 173.813 59.9677C173.932 59.8968 174.006 59.7943 174.046 59.6604C174.081 59.5264 174.101 59.3569 174.101 59.1441V58.8761Z" fill="white"/>
<path d="M176.226 56.1607H176.522L176.94 54.7499C177.082 54.7972 177.216 54.8563 177.338 54.9312C177.461 55.006 177.555 55.0927 177.618 55.1873C177.681 55.2858 177.713 55.5223 177.713 55.9046V56.1568H179.14C179.188 56.2829 179.211 56.4129 179.211 56.5548C179.211 56.673 179.191 56.7518 179.152 56.7952C179.113 56.8346 179.038 56.8543 178.923 56.8543H177.713V58.7065C177.713 59.2425 177.756 59.609 177.835 59.8021C177.918 59.9952 178.052 60.0976 178.241 60.1055C178.43 60.1134 178.663 60.0385 178.935 59.8809C179.018 60.0031 179.057 60.141 179.057 60.2986C179.057 60.5114 178.955 60.6533 178.754 60.7282C178.553 60.8031 178.241 60.8385 177.815 60.8385C177.35 60.8385 177.023 60.7361 176.822 60.5311C176.625 60.3262 176.526 59.9242 176.526 59.3331V58.5174C176.526 58.0011 176.51 57.4494 176.483 56.8582H176.053C176.002 56.7243 175.978 56.5903 175.978 56.4523C175.978 56.3459 175.998 56.2711 176.033 56.2277C176.073 56.1844 176.136 56.1607 176.226 56.1607Z" fill="white"/>
<path d="M181.19 60.1543H181.687C181.734 60.2567 181.758 60.371 181.758 60.5011C181.758 60.6114 181.738 60.6863 181.695 60.7296C181.655 60.773 181.573 60.7966 181.458 60.7966H179.432C179.384 60.6666 179.361 60.5405 179.361 60.4262C179.361 60.3277 179.38 60.2607 179.42 60.2173C179.459 60.174 179.522 60.1543 179.609 60.1543H179.952C179.968 59.7562 179.976 59.3267 179.976 58.8735C179.976 58.1838 179.972 57.7267 179.96 57.4981C179.952 57.2735 179.928 57.108 179.893 57.0016C179.861 56.8991 179.806 56.8321 179.735 56.8045C179.664 56.7769 179.562 56.7651 179.428 56.7651C179.38 56.6784 179.357 56.576 179.357 56.4617C179.357 56.2883 179.42 56.1779 179.55 56.1385C179.68 56.0991 179.944 56.0794 180.338 56.0794C180.638 56.0794 180.839 56.0912 180.946 56.1149C181.056 56.1385 181.115 56.1898 181.131 56.2607C181.147 56.3356 181.155 56.438 181.155 56.5681V58.8735C181.155 59.3267 181.166 59.7523 181.182 60.1543H181.19ZM180.417 55.4686C180.165 55.4686 179.98 55.4134 179.869 55.307C179.759 55.2006 179.7 55.0469 179.7 54.8499C179.7 54.6528 179.771 54.4755 179.913 54.3415C180.055 54.2075 180.26 54.1405 180.524 54.1405C180.788 54.1405 180.985 54.1957 181.099 54.31C181.214 54.4242 181.269 54.574 181.269 54.7553C181.269 54.9602 181.202 55.1257 181.068 55.2597C180.934 55.3937 180.717 55.4607 180.417 55.4607V55.4686Z" fill="white"/>
<path d="M183.903 60.8903C183.273 60.8903 182.799 60.709 182.48 60.3425C182.161 59.976 182.003 59.4479 182.003 58.7543C182.003 57.8873 182.196 57.2174 182.583 56.7405C182.969 56.2637 183.513 56.0272 184.211 56.0272C184.842 56.0272 185.315 56.2085 185.63 56.575C185.95 56.9415 186.107 57.4696 186.107 58.1632C186.107 59.0302 185.914 59.7001 185.528 60.177C185.141 60.6538 184.601 60.8903 183.899 60.8903H183.903ZM184.104 60.0824C184.333 60.0824 184.503 59.9799 184.613 59.7789C184.724 59.5779 184.779 59.1878 184.779 58.6046C184.779 57.9701 184.716 57.5169 184.593 57.2449C184.471 56.973 184.278 56.839 184.014 56.839C183.785 56.839 183.616 56.9415 183.505 57.1425C183.395 57.3435 183.34 57.7336 183.34 58.3169C183.34 58.9513 183.403 59.4045 183.521 59.6765C183.643 59.9484 183.836 60.0824 184.101 60.0824H184.104Z" fill="white"/>
<path d="M187.98 56.6183C188.288 56.4055 188.583 56.2558 188.863 56.1651C189.147 56.0745 189.384 56.0311 189.573 56.0311C189.971 56.0311 190.263 56.1297 190.456 56.3228C190.649 56.5159 190.744 56.906 190.744 57.4932C190.744 59.0301 190.772 59.8577 190.819 59.9799C190.87 60.102 190.977 60.1572 191.146 60.1572C191.19 60.2676 191.209 60.3858 191.209 60.508C191.209 60.6222 191.178 60.6971 191.111 60.7365C191.044 60.7759 190.918 60.7956 190.732 60.7956C190.279 60.7956 189.987 60.7878 189.869 60.772C189.747 60.7562 189.664 60.705 189.62 60.6183C189.573 60.5316 189.553 60.3858 189.553 60.1848V58.5296C189.553 57.8912 189.502 57.4656 189.396 57.2489C189.289 57.0321 189.12 56.9218 188.883 56.9218C188.682 56.9218 188.524 56.9848 188.41 57.1149C188.296 57.2449 188.236 57.5168 188.236 57.9267V58.8686C188.236 59.2626 188.244 59.6883 188.256 60.1493H188.757C188.804 60.2518 188.828 60.3661 188.828 60.4961C188.828 60.6065 188.808 60.6814 188.765 60.7247C188.725 60.7681 188.646 60.7917 188.528 60.7917H186.541C186.49 60.6617 186.466 60.5356 186.466 60.4213C186.466 60.3227 186.486 60.2557 186.525 60.2124C186.565 60.169 186.628 60.1493 186.714 60.1493H187.022C187.034 59.6331 187.042 59.1011 187.042 58.5533C187.042 57.6784 187.006 57.1622 186.931 57.0045C186.856 56.8469 186.726 56.7641 186.541 56.7641C186.49 56.638 186.466 56.5159 186.466 56.3897C186.466 56.2794 186.505 56.2045 186.576 56.1691C186.651 56.1336 187.117 56.1021 187.972 56.0745C187.988 56.2045 187.988 56.3858 187.972 56.6144L187.98 56.6183Z" fill="white"/>
<path d="M196.142 60.4328C195.929 60.551 195.689 60.6574 195.421 60.748C195.153 60.8387 194.896 60.886 194.656 60.886C194.25 60.886 193.95 60.7796 193.761 60.5707C193.571 60.3618 193.477 60.0663 193.477 59.6879C193.477 59.1599 193.638 58.7697 193.966 58.5136C194.293 58.2574 194.806 58.1313 195.511 58.1313H195.969C195.945 57.6505 195.87 57.3234 195.756 57.1461C195.638 56.9687 195.46 56.882 195.223 56.882C195.093 56.882 194.955 56.9018 194.802 56.9372C194.703 57.1421 194.644 57.2525 194.628 57.2643C194.608 57.2761 194.514 57.3037 194.336 57.3471C194.159 57.3904 194.037 57.3786 193.962 57.3037C193.891 57.2328 193.816 57.1067 193.741 56.9254C193.666 56.7441 193.631 56.5904 193.631 56.4643C193.631 56.3855 193.658 56.3264 193.717 56.283C193.776 56.2397 193.989 56.1924 194.356 56.1412C194.723 56.0899 195.117 56.0663 195.535 56.0663C196.028 56.0663 196.418 56.1609 196.698 56.35C196.978 56.5392 197.12 56.9057 197.12 57.4495V58.6909C197.12 59.3806 197.148 59.8062 197.203 59.9638C197.254 60.1214 197.353 60.1845 197.491 60.149C197.534 60.2357 197.554 60.3224 197.554 60.4052C197.554 60.5471 197.479 60.6535 197.329 60.7244C197.179 60.7993 196.974 60.8347 196.718 60.8347C196.607 60.8347 196.517 60.819 196.454 60.7874C196.391 60.7559 196.288 60.6377 196.15 60.4249L196.142 60.4328ZM195.969 58.8761C195.768 58.8288 195.563 58.8052 195.354 58.8052C195.117 58.8052 194.947 58.8485 194.845 58.9352C194.742 59.0219 194.691 59.1875 194.691 59.4318C194.691 59.6446 194.742 59.8022 194.841 59.9126C194.944 60.019 195.085 60.0742 195.279 60.0742C195.432 60.0742 195.567 60.0387 195.681 59.9677C195.795 59.8968 195.874 59.7943 195.913 59.6604C195.949 59.5264 195.969 59.3569 195.969 59.1441V58.8761Z" fill="white"/>
<path d="M199.431 56.6183C199.738 56.4055 200.034 56.2558 200.314 56.1651C200.598 56.0745 200.834 56.0311 201.023 56.0311C201.422 56.0311 201.714 56.1297 201.907 56.3228C202.1 56.5159 202.195 56.906 202.195 57.4932C202.195 59.0301 202.222 59.8577 202.269 59.9799C202.321 60.102 202.427 60.1572 202.597 60.1572C202.64 60.2676 202.66 60.3858 202.66 60.508C202.66 60.6222 202.628 60.6971 202.561 60.7365C202.494 60.7759 202.368 60.7956 202.183 60.7956C201.729 60.7956 201.437 60.7878 201.319 60.772C201.197 60.7562 201.114 60.705 201.071 60.6183C201.023 60.5316 201.004 60.3858 201.004 60.1848V58.5296C201.004 57.8912 200.953 57.4656 200.846 57.2489C200.74 57.0321 200.57 56.9218 200.333 56.9218C200.132 56.9218 199.975 56.9848 199.86 57.1149C199.746 57.2449 199.687 57.5168 199.687 57.9267V58.8686C199.687 59.2626 199.695 59.6883 199.707 60.1493H200.207C200.255 60.2518 200.278 60.3661 200.278 60.4961C200.278 60.6065 200.259 60.6814 200.215 60.7247C200.172 60.7681 200.097 60.7917 199.979 60.7917H197.991C197.94 60.6617 197.917 60.5356 197.917 60.4213C197.917 60.3227 197.936 60.2557 197.976 60.2124C198.015 60.169 198.078 60.1493 198.165 60.1493H198.472C198.484 59.6331 198.492 59.1011 198.492 58.5533C198.492 57.6784 198.457 57.1622 198.382 57.0045C198.307 56.8469 198.177 56.7641 197.991 56.7641C197.94 56.638 197.917 56.5159 197.917 56.3897C197.917 56.2794 197.956 56.2045 198.027 56.1691C198.102 56.1336 198.567 56.1021 199.423 56.0745C199.438 56.2045 199.438 56.3858 199.423 56.6144L199.431 56.6183Z" fill="white"/>
<path d="M205.951 60.4383C205.651 60.6117 205.391 60.7338 205.17 60.7969C204.95 60.8599 204.725 60.8915 204.504 60.8915C204.027 60.8915 203.656 60.7338 203.4 60.4146C203.144 60.0993 203.014 59.5476 203.014 58.7673C203.014 57.8373 203.211 57.1476 203.601 56.6984C203.992 56.2491 204.528 56.0245 205.202 56.0245C205.324 56.0245 205.423 56.0245 205.498 56.0324C205.569 56.0402 205.651 56.0481 205.738 56.056C205.738 55.9338 205.734 55.7801 205.722 55.5989C205.711 55.4136 205.691 55.256 205.659 55.122C205.628 54.988 205.577 54.9053 205.498 54.8659C205.419 54.8265 205.32 54.8068 205.194 54.8068C205.143 54.6767 205.119 54.5506 205.119 54.4205C205.119 54.2905 205.163 54.2077 205.253 54.1683C205.34 54.1329 205.624 54.1132 206.101 54.1132C206.401 54.1132 206.602 54.125 206.712 54.1526C206.822 54.1802 206.886 54.2274 206.901 54.2984C206.917 54.3693 206.925 54.4718 206.925 54.6018V57.924C206.925 59.0156 206.953 59.6658 207.008 59.8747C207.059 60.0836 207.15 60.1703 207.272 60.1427C207.327 60.2333 207.355 60.324 207.355 60.4146C207.355 60.5289 207.233 60.6353 206.992 60.7338C206.748 60.8323 206.554 60.8796 206.412 60.8796C206.326 60.8796 206.255 60.856 206.199 60.8048C206.144 60.7535 206.065 60.6274 205.959 60.4264L205.951 60.4383ZM205.08 56.8402C204.839 56.8402 204.658 56.9388 204.532 57.1398C204.405 57.3407 204.342 57.7742 204.342 58.4481C204.342 58.9959 204.398 59.4057 204.508 59.6777C204.618 59.9456 204.8 60.0836 205.056 60.0836C205.214 60.0836 205.344 60.0481 205.454 59.9772C205.565 59.9062 205.636 59.8156 205.675 59.7013C205.715 59.587 205.73 59.3309 205.73 58.9368V57.0452C205.64 56.99 205.537 56.9427 205.427 56.9033C205.316 56.8639 205.202 56.8442 205.076 56.8442L205.08 56.8402Z" fill="white"/>
<path d="M212.063 54.3085C212.785 54.3085 213.266 54.3558 213.502 54.4504C213.735 54.545 213.853 54.7262 213.853 54.9982C213.853 55.2701 213.766 55.4908 213.597 55.6957C212.946 55.3725 212.382 55.207 211.905 55.207C211.586 55.207 211.365 55.2661 211.243 55.3883C211.121 55.5105 211.058 55.6878 211.058 55.9164C211.058 56.1922 211.136 56.3972 211.29 56.5312C211.444 56.6651 211.755 56.811 212.229 56.9607C212.82 57.1341 213.273 57.3509 213.593 57.611C213.912 57.875 214.078 58.3006 214.094 58.8957C214.094 59.5696 213.877 60.0701 213.439 60.3971C213.001 60.7242 212.363 60.8858 211.527 60.8858C210.92 60.8858 210.47 60.8346 210.182 60.7361C209.894 60.6375 209.749 60.4366 209.749 60.141C209.749 59.8809 209.847 59.6444 210.044 59.4435C210.687 59.806 211.29 59.9873 211.854 59.9873C212.221 59.9873 212.481 59.9321 212.627 59.8257C212.773 59.7193 212.848 59.538 212.848 59.2898C212.848 58.9981 212.733 58.7696 212.505 58.6041C212.276 58.4425 211.901 58.277 211.381 58.1114C210.825 57.9459 210.423 57.7174 210.182 57.4218C209.938 57.1302 209.82 56.7518 209.82 56.2947C209.82 55.6681 210.021 55.1794 210.419 54.8287C210.821 54.478 211.373 54.3046 212.075 54.3046L212.063 54.3085Z" fill="white"/>
<path d="M216.751 56.0311C217.335 56.0311 217.761 56.1769 218.025 56.4725C218.289 56.7681 218.423 57.2331 218.423 57.8715C218.423 58.1868 218.368 58.4114 218.254 58.5454C218.139 58.6794 217.895 58.7464 217.516 58.7464H215.947C215.955 59.1562 216.038 59.4755 216.195 59.708C216.353 59.9405 216.629 60.0587 217.027 60.0587C217.426 60.0587 217.816 59.9326 218.226 59.6843C218.372 59.842 218.443 60.0153 218.443 60.2006C218.443 60.4528 218.277 60.6262 217.946 60.7247C217.615 60.8232 217.229 60.8745 216.787 60.8745C216.022 60.8745 215.466 60.7011 215.119 60.3582C214.772 60.0154 214.599 59.4479 214.599 58.6597C214.599 57.8715 214.792 57.1937 215.182 56.7326C215.573 56.2676 216.093 56.0351 216.751 56.0351V56.0311ZM216.582 56.839C216.373 56.839 216.215 56.9336 216.105 57.1188C215.994 57.308 215.939 57.6311 215.935 58.1001H216.16C216.471 58.1001 216.708 58.0883 216.874 58.0686C217.039 58.0489 217.134 58.0134 217.161 57.9661C217.189 57.9188 217.205 57.836 217.205 57.7257C217.205 57.4459 217.15 57.2252 217.039 57.0715C216.929 56.9178 216.775 56.839 216.582 56.839Z" fill="white"/>
<path d="M218.848 56.3937C218.848 56.2833 218.888 56.2085 218.959 56.173C219.034 56.1375 219.499 56.106 220.355 56.0784C220.37 56.2085 220.37 56.3897 220.355 56.6223C220.709 56.3897 221.029 56.2361 221.317 56.1533C221.604 56.0705 221.857 56.0311 222.078 56.0311C222.18 56.0311 222.247 56.043 222.279 56.0705C222.314 56.0981 222.33 56.1572 222.33 56.2558C222.33 56.4292 222.306 56.6065 222.259 56.7917C222.212 56.9769 222.156 57.0991 222.085 57.1503C222.018 57.2016 221.908 57.241 221.758 57.2686C221.608 57.2922 221.522 57.3001 221.498 57.2883C221.474 57.2764 221.395 57.17 221.261 56.973C221.052 56.973 220.895 57.0558 220.784 57.2252C220.674 57.3907 220.619 57.8242 220.619 58.5139C220.619 59.1484 220.627 59.6961 220.638 60.1533H221.301C221.352 60.2557 221.376 60.37 221.376 60.5001C221.376 60.6104 221.356 60.6853 221.313 60.7287C221.269 60.772 221.19 60.7956 221.076 60.7956H218.923C218.872 60.6656 218.848 60.5395 218.848 60.4252C218.848 60.3267 218.868 60.2597 218.908 60.2163C218.947 60.173 219.01 60.1533 219.097 60.1533H219.404C219.416 59.6922 219.424 59.1602 219.424 58.5572C219.424 57.6824 219.389 57.1661 219.314 57.0085C219.239 56.8508 219.109 56.7681 218.923 56.7681C218.872 56.642 218.848 56.5198 218.848 56.3937Z" fill="white"/>
<path d="M225.646 56.8583H225.418C225.37 56.7479 225.347 56.6336 225.347 56.5115C225.347 56.3893 225.366 56.3026 225.41 56.2474C225.453 56.1923 225.52 56.1647 225.619 56.1647H226.896C226.948 56.2711 226.971 56.3854 226.971 56.5036C226.971 56.6415 226.947 56.7361 226.9 56.7834C226.853 56.8346 226.77 56.8583 226.648 56.8583H226.62C226.526 57.0908 226.309 57.745 225.978 58.8169C225.642 59.8888 225.418 60.5036 225.299 60.6573C225.181 60.811 224.98 60.8898 224.688 60.8898C224.235 60.8898 223.99 60.8661 223.955 60.8149C223.923 60.7637 223.77 60.2513 223.501 59.2819C223.233 58.3085 223.068 57.7134 222.997 57.4927C222.93 57.2721 222.875 57.1105 222.831 57.0041C222.788 56.9016 222.74 56.8346 222.685 56.807C222.63 56.7794 222.531 56.7676 222.397 56.7676C222.346 56.6258 222.323 56.4918 222.323 56.3735C222.323 56.2553 222.374 56.1804 222.476 56.141C222.579 56.1016 222.902 56.0819 223.446 56.0819C223.655 56.0819 223.801 56.1016 223.888 56.1371C223.975 56.1725 224.034 56.2435 224.073 56.342C224.113 56.4405 224.156 56.6691 224.211 57.0317C224.262 57.3942 224.381 57.9538 224.562 58.7105C224.743 59.4671 224.854 59.8454 224.889 59.8454C224.925 59.8454 225.051 59.4159 225.268 58.5607C225.481 57.7056 225.607 57.1381 225.638 56.8622L225.646 56.8583Z" fill="white"/>
<path d="M228.954 60.1543H229.451C229.498 60.2567 229.522 60.371 229.522 60.5011C229.522 60.6114 229.502 60.6863 229.459 60.7296C229.42 60.773 229.341 60.7966 229.222 60.7966H227.196C227.148 60.6666 227.125 60.5405 227.125 60.4262C227.125 60.3277 227.144 60.2607 227.184 60.2173C227.223 60.174 227.286 60.1543 227.373 60.1543H227.716C227.732 59.7562 227.74 59.3267 227.74 58.8735C227.74 58.1838 227.736 57.7267 227.724 57.4981C227.716 57.2735 227.693 57.108 227.657 57.0016C227.626 56.8991 227.57 56.8321 227.499 56.8045C227.428 56.7769 227.326 56.7651 227.192 56.7651C227.145 56.6784 227.121 56.576 227.121 56.4617C227.121 56.2883 227.184 56.1779 227.314 56.1385C227.444 56.0991 227.708 56.0794 228.103 56.0794C228.402 56.0794 228.603 56.0912 228.71 56.1149C228.82 56.1385 228.879 56.1898 228.895 56.2607C228.911 56.3356 228.919 56.438 228.919 56.5681V58.8735C228.919 59.3267 228.931 59.7523 228.946 60.1543H228.954ZM228.181 55.4686C227.929 55.4686 227.744 55.4134 227.633 55.307C227.523 55.2006 227.464 55.0469 227.464 54.8499C227.464 54.6528 227.535 54.4755 227.677 54.3415C227.819 54.2075 228.024 54.1405 228.288 54.1405C228.552 54.1405 228.749 54.1957 228.864 54.31C228.978 54.4242 229.033 54.574 229.033 54.7553C229.033 54.9602 228.966 55.1257 228.832 55.2597C228.698 55.3937 228.481 55.4607 228.181 55.4607V55.4686Z" fill="white"/>
<path d="M231.86 60.8903C231.083 60.8903 230.535 60.7287 230.228 60.4095C229.92 60.0903 229.762 59.5385 229.762 58.7622C229.762 57.8873 229.964 57.2134 230.366 56.7405C230.768 56.2676 231.371 56.0272 232.175 56.0272C232.597 56.0272 232.889 56.0666 233.051 56.1494C233.212 56.2321 233.295 56.3661 233.303 56.5553C233.303 56.7996 233.236 57.0203 233.094 57.2213C232.629 56.9651 232.25 56.839 231.955 56.839C231.659 56.839 231.446 56.9533 231.308 57.1819C231.17 57.4105 231.099 57.8164 231.099 58.3917C231.099 58.9671 231.166 59.3888 231.304 59.6646C231.442 59.9405 231.691 60.0784 232.049 60.0784C232.341 60.0784 232.716 59.9563 233.177 59.7159C233.295 59.8972 233.354 60.0863 233.354 60.2873C233.354 60.4883 233.205 60.642 232.909 60.7405C232.609 60.839 232.262 60.8903 231.86 60.8903Z" fill="white"/>
<path d="M235.839 56.0311C236.423 56.0311 236.848 56.1769 237.113 56.4725C237.377 56.7681 237.511 57.2331 237.511 57.8715C237.511 58.1868 237.456 58.4114 237.341 58.5454C237.227 58.6794 236.983 58.7464 236.604 58.7464H235.035C235.043 59.1562 235.125 59.4755 235.283 59.708C235.441 59.9405 235.717 60.0587 236.115 60.0587C236.513 60.0587 236.904 59.9326 237.314 59.6843C237.46 59.842 237.531 60.0153 237.531 60.2006C237.531 60.4528 237.365 60.6262 237.034 60.7247C236.703 60.8232 236.316 60.8745 235.875 60.8745C235.11 60.8745 234.554 60.7011 234.207 60.3582C233.86 60.0154 233.686 59.4479 233.686 58.6597C233.686 57.8715 233.879 57.1937 234.27 56.7326C234.66 56.2676 235.181 56.0351 235.839 56.0351V56.0311ZM235.673 56.839C235.465 56.839 235.307 56.9336 235.196 57.1188C235.086 57.308 235.031 57.6311 235.027 58.1001H235.252C235.563 58.1001 235.8 58.0883 235.965 58.0686C236.131 58.0489 236.225 58.0134 236.253 57.9661C236.281 57.9188 236.296 57.836 236.296 57.7257C236.296 57.4459 236.241 57.2252 236.131 57.0715C236.02 56.9178 235.867 56.839 235.673 56.839Z" fill="white"/>
<path d="M240.014 56.0311C240.44 56.0311 240.767 56.0745 240.996 56.1651C241.228 56.2558 241.343 56.4055 241.343 56.6144C241.343 56.8351 241.264 57.0597 241.102 57.2883C240.495 56.9927 240.03 56.843 239.706 56.843C239.533 56.843 239.407 56.8784 239.324 56.9494C239.241 57.0203 239.198 57.1227 239.198 57.2567C239.198 57.3907 239.253 57.5168 239.363 57.6232C239.474 57.7257 239.73 57.8558 240.132 58.0173C240.602 58.1947 240.937 58.3917 241.134 58.6045C241.331 58.8173 241.43 59.0971 241.43 59.4439C241.43 59.9129 241.256 60.2715 240.913 60.5198C240.57 60.7681 240.101 60.8942 239.513 60.8942C238.969 60.8942 238.583 60.8508 238.354 60.7681C238.125 60.6853 238.007 60.5158 238.003 60.2557C238.003 60.0626 238.07 59.8735 238.208 59.6843C238.768 59.9484 239.265 60.0823 239.699 60.0823C239.876 60.0823 240.014 60.0508 240.113 59.9838C240.211 59.9168 240.258 59.8104 240.258 59.6567C240.258 59.4794 240.172 59.3375 239.998 59.2311C239.825 59.1247 239.549 58.9907 239.166 58.8291C238.756 58.6558 238.461 58.4666 238.287 58.2656C238.11 58.0646 238.023 57.8045 238.023 57.4893C238.023 57.0439 238.2 56.6932 238.547 56.4292C238.898 56.1651 239.383 56.0351 240.006 56.0351L240.014 56.0311Z" fill="white"/>
<path d="M0 23.7383C0 23.7383 4.29773 28.4792 7.45597 36.7156C9.6561 42.4535 10.8784 50.0278 11.1386 52.9401C11.4028 55.8524 12.0139 60.0101 12.0139 60.0101L14.1194 47.2811C14.1194 47.2811 14.2929 43.1195 11.7498 37.4643C9.88478 33.3146 7.01437 29.8939 5.34654 28.0654C3.6787 26.2368 1.57715 24.8181 0 23.7383Z" fill="white"/>
<path d="M19.9979 38.043C19.9979 38.043 16.1378 42.0351 14.7342 45.2824C13.3305 48.5296 11.9268 52.77 11.8401 56.5966C11.7533 60.4232 12.9796 64.9985 12.9796 64.9985L18.2433 62.835C18.2433 62.835 16.7529 58.4685 16.6662 54.3503C16.5755 50.0705 17.2734 46.2794 17.849 43.4104C18.5509 39.9149 19.9979 38.043 19.9979 38.043Z" fill="white"/>
<path d="M17.8733 40.4551C17.8733 40.4551 23.5077 32.392 29.4732 26.9064C38.2225 18.8591 42.8514 16.0374 46.6641 14C46.4 15.8286 46.4 18.0749 44.4719 21.7359C42.9184 24.6798 41.3137 27.4778 36.5783 31.3871C32.2845 34.93 28.9488 36.0452 24.7378 37.795C21.3824 39.1861 17.8733 40.459 17.8733 40.459V40.4551Z" fill="white"/>
<path d="M22.6521 29.3069C22.6521 29.3069 16.3356 26.3316 11.959 23.0567C5.53999 18.2489 3.23341 15.6479 1.5498 13.4883C2.94558 13.5671 4.6489 13.4725 7.49171 14.4499C9.77858 15.238 11.959 16.0656 15.0936 18.6863C17.9364 21.0626 18.9024 22.9779 20.381 25.3818C21.5599 27.2971 22.6481 29.3069 22.6481 29.3069H22.6521Z" fill="white"/>
<path d="M24.8755 25.9243C24.8755 25.9243 19.1741 21.9874 15.4402 18.0623C9.96353 12.3007 8.14981 9.36871 6.87231 6.97266C8.23655 7.27216 9.93198 7.4495 12.5619 8.86822C14.6792 10.0111 16.6782 11.1697 19.3081 14.2554C21.6896 17.0495 22.3047 19.0948 23.3378 21.6958C24.1618 23.7726 24.8794 25.9282 24.8794 25.9282L24.8755 25.9243Z" fill="white"/>
<path d="M27.7266 24.7562C27.7266 24.7562 23.3973 19.4793 20.9488 14.7266C17.3608 7.75523 16.4776 4.46066 15.9453 1.82422C17.1676 2.46658 18.7448 3.08136 20.8621 5.13849C22.5615 6.78972 24.1465 8.42912 25.7749 12.0823C27.2495 15.3926 27.2456 17.5168 27.4782 20.2911C27.6635 22.502 27.7266 24.7601 27.7266 24.7601V24.7562Z" fill="white"/>
<path d="M30.4899 22.9359C30.4899 22.9359 27.7615 17.3359 26.6141 12.5832C24.9305 5.60786 24.8595 2.47487 24.966 0C25.9241 0.819701 27.2055 1.68669 28.6526 3.94875C29.8157 5.76944 30.8763 7.55859 31.5348 11.1605C32.1302 14.4275 31.657 16.3349 31.2549 18.8689C30.9355 20.8906 30.4939 22.9319 30.4939 22.9319L30.4899 22.9359Z" fill="white"/>
<path d="M33.1001 21.348C33.1001 21.348 32.1539 15.9254 32.3549 11.5865C32.6467 5.21802 33.3683 2.51064 34.078 0.410156C34.6931 1.32838 35.5802 2.36089 36.2584 4.63083C36.8025 6.45545 37.2678 8.22885 36.9366 11.4722C36.633 14.4121 35.7498 15.9411 34.7719 18.0298C33.9912 19.6928 33.1041 21.348 33.1041 21.348H33.1001Z" fill="white"/>
<path d="M21.9266 30.8046C21.9266 30.8046 17.5855 30.6391 14.2538 29.8352C9.36853 28.6608 7.38132 27.7465 5.85938 26.9347C6.66766 26.647 7.59818 26.1859 9.45922 26.0598C10.9536 25.9574 12.4006 25.9022 14.861 26.6313C17.0887 27.2894 18.1414 28.1367 19.6121 29.1377C20.7831 29.9337 21.9305 30.8046 21.9305 30.8046H21.9266Z" fill="white"/>
<path d="M29.3507 46.7843C29.2285 46.7843 29.1023 46.7764 28.9683 46.7646C28.8263 46.7528 28.7041 46.7252 28.6055 46.6818C28.4518 46.6227 28.231 46.5163 27.955 46.3705C27.6711 46.2207 27.3951 46.0434 27.1348 45.8385L27.0481 45.7715L27.6277 44.6602L27.7696 44.7035C28.1442 44.8848 28.4715 45.0109 28.7396 45.0779C29.0077 45.1449 29.2324 45.1804 29.4059 45.1804H32.6549L32.7061 45.2749C32.7377 45.3537 32.7534 45.4562 32.7534 45.5941C32.7534 45.7163 32.7455 45.8464 32.7258 45.9843C32.7061 46.1262 32.6785 46.2562 32.643 46.3823C32.6075 46.5124 32.5681 46.6188 32.5287 46.6976L32.4853 46.7803H29.3547L29.3507 46.7843Z" fill="white"/>
<path d="M27.9589 46.3587C28.2388 46.5084 28.4596 46.6109 28.6094 46.67C28.7041 46.7094 28.8263 46.737 28.9682 46.7528C29.1023 46.7646 29.2285 46.7725 29.3507 46.7725H32.4735L32.5129 46.6936C32.5523 46.6148 32.5917 46.5084 32.6272 46.3784C32.6627 46.2523 32.6903 46.1222 32.71 45.9803C32.7297 45.8464 32.7376 45.7163 32.7376 45.5941C32.7376 45.4562 32.7219 45.3537 32.6943 45.2789L32.6509 45.1882H29.402C29.2285 45.1882 29.0037 45.1528 28.7356 45.0858C28.4675 45.0188 28.1402 44.8927 27.7617 44.7114L27.6355 44.6602L27.052 45.7597L27.1387 45.8267C27.399 46.0276 27.675 46.2089 27.9549 46.3587H27.9589Z" fill="white"/>
<path d="M30.3683 55.2012C29.8084 55.2012 29.2761 55.1382 28.7872 55.0121C28.2943 54.886 27.8606 54.6968 27.4939 54.4446C27.1272 54.1924 26.8315 53.8732 26.6226 53.4988C26.4136 53.1205 26.3071 52.6751 26.3071 52.1707C26.3071 51.6663 26.4136 51.2367 26.6265 50.8663C26.8355 50.4998 27.1272 50.1845 27.4979 49.9284C27.8606 49.6801 28.2904 49.4949 28.7754 49.3727C29.2525 49.2545 29.7808 49.1914 30.3367 49.1914C30.8927 49.1914 31.4053 49.2505 31.8902 49.3727C32.3792 49.4949 32.8129 49.6801 33.1677 49.9323C33.5305 50.1845 33.8222 50.5037 34.0312 50.8781C34.2402 51.2564 34.3466 51.6978 34.3466 52.1904C34.3466 52.683 34.2362 53.1244 34.0194 53.5027C33.8025 53.8771 33.5108 54.1963 33.148 54.4446C32.7932 54.6929 32.3673 54.882 31.8902 55.0121C31.4171 55.1382 30.9045 55.2012 30.3683 55.2012ZM30.3604 50.6771C29.765 50.6771 29.2761 50.8032 28.9015 51.0554C28.5427 51.2958 28.3653 51.6623 28.3653 52.1746C28.3653 52.687 28.5467 53.0259 28.9213 53.286C29.3077 53.554 29.8045 53.6879 30.3998 53.6879C30.9558 53.6879 31.425 53.554 31.7956 53.286C32.1544 53.0259 32.3279 52.6712 32.3279 52.1904C32.3279 51.6781 32.1544 51.3077 31.7996 51.0633C31.4329 50.8072 30.9479 50.6771 30.3683 50.6771H30.3604Z" fill="white"/>
<path d="M30.3682 55.1892C30.9044 55.1892 31.4131 55.1262 31.8862 55.0001C32.3633 54.874 32.7852 54.6848 33.1401 54.4365C33.4989 54.1883 33.7906 53.869 34.0075 53.4986C34.2243 53.1242 34.3308 52.6828 34.3308 52.1902C34.3308 51.6976 34.2243 51.2602 34.0154 50.8858C33.8064 50.5114 33.5186 50.1962 33.1558 49.9439C32.797 49.6957 32.3673 49.5065 31.8823 49.3883C31.4012 49.27 30.8768 49.2109 30.3327 49.2109C29.7886 49.2109 29.2484 49.27 28.7714 49.3883C28.2864 49.5104 27.8605 49.6957 27.4978 49.9439C27.1311 50.1962 26.8393 50.5075 26.6304 50.8779C26.4214 51.2484 26.3149 51.6858 26.3149 52.1745C26.3149 52.6631 26.4214 53.1203 26.6304 53.4947C26.8393 53.869 27.1311 54.1843 27.4978 54.4365C27.8605 54.6848 28.2943 54.874 28.7871 55.0001C29.276 55.1262 29.8044 55.1892 30.3682 55.1892ZM28.3495 52.1745C28.3495 51.6582 28.5269 51.2917 28.8896 51.0474C29.2682 50.7952 29.761 50.6691 30.3564 50.6691C30.9518 50.6691 31.4249 50.7991 31.7955 51.0553C32.1543 51.3035 32.3278 51.6779 32.3278 52.1942C32.3278 52.675 32.1543 53.0375 31.7916 53.2976C31.421 53.5656 30.9518 53.6996 30.3879 53.6996C29.7926 53.6996 29.2918 53.5617 28.9054 53.2937C28.5308 53.0336 28.3455 52.6671 28.3455 52.1745H28.3495Z" fill="white"/>
<path d="M30.5099 60.8664C30.1078 60.7757 29.816 60.6457 29.6228 60.4644C29.4296 60.287 29.2876 60.0033 29.2009 59.625V57.8713C29.2009 57.7846 29.193 57.6939 29.1812 57.5994C29.1733 57.5324 29.1496 57.4811 29.1023 57.4339C29.0392 57.3787 28.9367 57.3156 28.8145 57.2526C28.6844 57.1856 28.4754 57.1146 28.1876 57.0358L28.089 57.0082L28.0732 56.09L31.2354 56.0703L31.2551 59.2388C31.2551 59.2782 31.2551 59.3058 31.263 59.3294L31.3301 59.3136H38.9359L38.9556 59.4673C38.9556 59.9284 38.8885 60.3619 38.7545 60.7639L38.719 60.8664H30.5021H30.5099Z" fill="white"/>
<path d="M31.3341 59.3254H31.2552C31.2552 59.3254 31.2474 59.2899 31.2474 59.2387L31.2395 56.082L28.0891 56.0899L28.097 56.9963L28.1956 57.0239C28.4834 57.1027 28.6963 57.1776 28.8264 57.2406C28.9526 57.3037 29.0551 57.3668 29.1182 57.4259C29.1655 57.4732 29.1931 57.5283 29.201 57.5953C29.2128 57.6899 29.2168 57.7805 29.2168 57.8672V59.617C29.3075 59.9953 29.4494 60.2751 29.6387 60.4525C29.8279 60.6298 30.1157 60.7598 30.514 60.8505H38.7191L38.7506 60.7559C38.8847 60.3579 38.9517 59.9244 38.9517 59.4672L38.9438 59.3254H31.338H31.3341Z" fill="white"/>
<path d="M25.0888 48.5295L25.073 47.43L35.2101 47.4103L35.2377 47.5521C35.2496 47.7689 35.2298 47.9935 35.1825 48.226C35.1313 48.4546 35.0721 48.6674 35.0012 48.8605L34.9696 48.9472L28.2273 48.963C28.1169 48.9748 27.9789 49.0024 27.837 49.0379C27.6911 49.0773 27.5057 49.1561 27.2849 49.2783L27.2258 49.3098L25.0927 48.5295H25.0888Z" fill="white"/>
<path d="M27.277 49.2622C27.4978 49.14 27.687 49.0612 27.8329 49.0218C27.9748 48.9863 28.1168 48.9588 28.2272 48.9469L34.9577 48.9391L34.9892 48.8524C35.0602 48.6593 35.1233 48.4464 35.1706 48.2179C35.2179 47.9854 35.2376 47.7607 35.2258 47.5479L35.21 47.4139L25.0847 47.4218L25.0926 48.5095L27.2218 49.2859L27.277 49.2543V49.2622Z" fill="white"/>
<path d="M51.9906 61.1275L51.9709 56.2842L47.1606 56.3039C46.9674 56.3039 46.8136 56.3078 46.7032 56.3196C46.5691 56.3394 46.4153 56.3788 46.2655 56.4339C46.1157 56.4891 45.9461 56.5797 45.7608 56.7137L45.6977 56.7571L43.5647 55.8192L43.5528 54.7748L48.0122 54.7512L47.9925 52.3709L44.9328 52.3906C44.7869 52.4024 44.6056 52.4379 44.4005 52.4891C44.2034 52.5443 44.0102 52.6349 43.8249 52.765L43.7697 52.8044L41.1082 51.8231L41.0964 51.5748V51.6537C41.057 51.7876 41.0215 51.8822 40.9821 51.9571L40.9426 52.028L38.3798 52.0399L38.3995 56.8241L36.361 56.8438L36.3413 46.0655C36.3413 45.9197 36.3295 45.8724 36.3255 45.8566C36.3255 45.8566 36.3058 45.829 36.2191 45.7739C36.1678 45.7345 36.0377 45.6872 35.8327 45.6359C35.6119 45.5808 35.4029 45.5374 35.2136 45.5177L35.0993 45.5059L35.0796 44.4103L38.3798 44.3906L38.3995 50.3926L41.2384 50.3729L41.2581 50.5266C41.2581 50.6014 41.2502 50.6763 41.2423 50.7512L41.2305 50.8694L41.9126 50.8576L51.131 50.8497C51.3321 50.1798 51.4977 49.4822 51.6081 48.7847C51.7225 48.0832 51.8092 47.3739 51.8683 46.6763L51.4386 46.6882L47.2276 46.696C47.0344 46.696 46.8806 46.7 46.7702 46.7118C46.6362 46.7315 46.4863 46.7709 46.3326 46.8261C46.1827 46.8813 46.0132 46.9719 45.8239 47.1059L45.7608 47.1492L43.6277 46.2074L43.6159 45.163H43.6356L43.679 45.1512L53.2917 45.1433C53.7215 45.1433 53.9778 45.368 54.0054 45.7778C53.9699 46.2625 53.9186 46.7394 53.8477 47.2399C53.7767 47.7325 53.686 48.2093 53.5835 48.6625C53.477 49.1197 53.3627 49.5571 53.2484 49.9591C53.1537 50.2901 53.0552 50.5936 52.9605 50.8694L53.8713 50.8537L56.6432 50.8458L56.6747 50.9876C56.6865 51.165 56.6747 51.3857 56.6274 51.6458C56.584 51.9098 56.5328 52.1226 56.4697 52.296L56.4381 52.3827L50.0704 52.3985L50.0901 54.7788L53.9975 54.7551L54.0172 61.1275H51.9787H51.9906Z" fill="white"/>
<path d="M53.8754 50.8653H52.9527C53.0474 50.5934 53.1459 50.286 53.2406 49.9589C53.3549 49.557 53.4692 49.1235 53.5757 48.6624C53.6822 48.2053 53.7689 47.7245 53.8399 47.2397C53.9108 46.7392 53.966 46.2624 53.9976 45.7816C53.97 45.3796 53.7176 45.159 53.2958 45.159L43.683 45.1668H43.6397H43.6318V46.1993L45.757 47.1412L45.8201 47.0979C46.0054 46.9678 46.1789 46.8732 46.3287 46.8181C46.4825 46.7629 46.6323 46.7235 46.7703 46.7038C46.8846 46.692 47.0384 46.688 47.2316 46.688L51.4426 46.6801H51.8842C51.8251 47.3777 51.7383 48.087 51.624 48.7885C51.5096 49.5018 51.3401 50.1993 51.1351 50.8614L41.9166 50.8693H41.2227L41.2345 50.7511C41.2424 50.6762 41.2503 50.6013 41.2503 50.5304L41.2424 50.3885L38.3917 50.3964L38.3838 44.422V44.4141V44.4062L35.1112 44.4141H35.1033H35.0955L35.1033 45.4939L35.2177 45.5058C35.4069 45.5294 35.6199 45.5688 35.8407 45.624C36.0457 45.6752 36.1758 45.7225 36.231 45.7658C36.3256 45.825 36.3414 45.8525 36.3414 45.8525C36.3414 45.8604 36.3572 45.8998 36.3572 46.0654L36.3651 56.8318L38.3917 56.8239L38.3838 52.0437V52.0318H40.9349L40.9703 51.957C41.0137 51.8781 41.0453 51.7836 41.0768 51.6811C41.0886 51.6496 41.1005 51.6141 41.1083 51.5826V51.819L43.7658 52.8042L43.821 52.7648C44.0064 52.6348 44.1996 52.5402 44.4006 52.489C44.6017 52.4338 44.787 52.4023 44.9329 52.3905L47.9768 52.3826H48.0005L48.0084 54.7747L43.5608 54.7826V55.8151L45.686 56.7569L45.7491 56.7136C45.9344 56.5835 46.1079 56.489 46.2577 56.4338C46.4115 56.3786 46.5613 56.3392 46.6993 56.3195C46.8137 56.3077 46.9674 56.3037 47.1606 56.3037L51.9828 56.2959L51.9907 61.1274H54.0173L54.0094 54.7786L50.0902 54.7865L50.0823 52.4062V52.3944L56.4382 52.3865L56.4698 52.2998C56.5329 52.1264 56.5802 51.9176 56.6235 51.6535C56.6669 51.3934 56.6827 51.1727 56.6669 50.9993L56.6472 50.8693L53.8754 50.8772V50.8653Z" fill="white"/>
<path d="M59.3485 56.1324C59.0607 55.963 58.8438 55.762 58.6624 55.494C58.485 55.2339 58.3825 54.9659 58.3549 54.694V48.5423C58.3549 48.4517 58.347 48.3492 58.3391 48.231C58.3312 48.1443 58.3036 48.0812 58.2603 48.0339C58.2287 48.0024 58.1972 47.9709 58.1656 47.9472C58.1459 47.9275 58.1104 47.9118 58.0671 47.8921L57.8502 47.8054C57.7674 47.7738 57.657 47.7384 57.5111 47.7068L57.4086 47.6832L57.3928 46.7768L60.3973 46.7571L60.417 49.9531L64.1312 49.9334L64.1115 48.1758C64.1115 48.0852 64.1115 47.9748 64.1036 47.8487C64.0997 47.7581 64.076 47.695 64.0326 47.6517C63.9695 47.5965 63.8946 47.5492 63.8158 47.5177C63.7566 47.4901 63.6107 47.4389 63.2559 47.3403L63.1612 47.3128L63.1455 46.4142L66.1145 46.3945L66.1342 56.1324H59.3485ZM60.4012 51.5728L60.4131 54.3472C60.4131 54.4654 60.4328 54.497 60.4328 54.497C60.4328 54.497 60.4604 54.5088 60.5235 54.5088H64.1272L64.1075 51.5492L64.0366 51.561L60.4012 51.5689V51.5728Z" fill="white"/>
<path d="M63.1811 46.4142H63.1654H63.1575L63.1654 47.3048L63.26 47.3324C63.6109 47.4309 63.7568 47.4822 63.8199 47.5098C63.8987 47.5452 63.9776 47.5925 64.0407 47.6477C64.084 47.691 64.1077 47.758 64.1117 47.8526C64.1156 47.9787 64.1195 48.0891 64.1195 48.1797L64.1274 49.9295V49.9492L60.4014 49.957L60.3935 46.7728L57.4009 46.7807L57.4088 47.6753L57.5113 47.6989C57.6532 47.7305 57.7676 47.7659 57.8504 47.7974L58.0672 47.8841C58.1145 47.9038 58.1461 47.9236 58.1697 47.9393C58.2013 47.9669 58.2328 47.9945 58.2644 48.026C58.3117 48.0733 58.3393 48.1403 58.3472 48.227C58.359 48.3452 58.3629 48.4477 58.3629 48.5383V54.69C58.3905 54.958 58.4931 55.226 58.6665 55.4821C58.84 55.7383 59.0569 55.9432 59.3447 56.1127H66.1186L66.1107 46.3984L63.1772 46.4063L63.1811 46.4142ZM64.1314 54.5245H60.5276C60.4487 54.5245 60.429 54.5048 60.429 54.5048C60.429 54.5048 60.4053 54.4733 60.4053 54.3472V51.561L64.0407 51.5531H64.1195L64.1274 54.493V54.5245H64.1314Z" fill="white"/>
<path d="M69.2017 60.8477L69.1899 60.757L69.182 46.0733C69.182 45.9236 69.1702 45.8763 69.1663 45.8645C69.1663 45.8645 69.1505 45.829 69.0598 45.7502C69.0361 45.7423 69.0007 45.7305 68.9336 45.7108C68.8469 45.6871 68.7523 45.6674 68.6419 45.6438C68.5315 45.6201 68.4171 45.5965 68.2949 45.5729C68.1766 45.5492 68.0662 45.5334 67.9637 45.5216L67.8454 45.5098L67.8257 44.4142L71.2166 44.3945L71.2363 60.8477H69.1978H69.2017Z" fill="white"/>
<path d="M67.8573 44.4141H67.8494H67.8416L67.8494 45.4979L67.9677 45.5097C68.0702 45.5215 68.1806 45.5373 68.2989 45.5609C68.4212 45.5846 68.5355 45.6082 68.6459 45.6319C68.7563 45.6555 68.8509 45.6792 68.9377 45.6989C69.0086 45.7186 69.0481 45.7343 69.0678 45.7422C69.1664 45.825 69.1742 45.8604 69.1742 45.8604C69.1742 45.8683 69.194 45.9117 69.194 46.0732L69.2018 60.7569V60.8279V60.8357H71.2285L71.2206 44.4062L67.8613 44.4141H67.8573Z" fill="white"/>
<path d="M78.629 60.8625C78.2268 60.7718 77.939 60.6418 77.7458 60.4605C77.5526 60.2832 77.4106 59.9994 77.3239 59.6211V56.9728C77.3239 56.8861 77.316 56.7955 77.3042 56.7009C77.2963 56.6378 77.2687 56.5827 77.2253 56.5393C77.1583 56.4842 77.0558 56.4211 76.9296 56.358C76.7995 56.295 76.5866 56.2201 76.2909 56.1413L76.1923 56.1137L76.1765 55.1955L79.3545 55.1758L79.3742 59.2388C79.3742 59.2861 79.3742 59.3137 79.3821 59.3295L79.4491 59.3137H87.1771L87.1968 59.4674C87.1968 59.9285 87.1298 60.362 86.9958 60.76L86.9603 60.8625H78.6211H78.629Z" fill="white"/>
<path d="M79.4531 59.3254H79.3743C79.3743 59.3254 79.3664 59.286 79.3664 59.2387L79.3585 55.2111V55.1993V55.1914L76.1924 55.1993L76.2003 56.1057L76.2988 56.1333C76.5946 56.2121 76.8114 56.287 76.9376 56.35C77.0638 56.4131 77.1663 56.4761 77.2333 56.5352C77.2806 56.5825 77.3082 56.6377 77.3161 56.7047C77.3279 56.7993 77.3319 56.8899 77.3319 56.9766V59.6209C77.4226 59.9993 77.5645 60.2791 77.7538 60.4564C77.943 60.6338 78.2308 60.7638 78.6291 60.8544H86.9604L86.9919 60.7599C87.126 60.3618 87.193 59.9283 87.193 59.4712L87.1851 59.3293H79.4571L79.4531 59.3254Z" fill="white"/>
<path d="M84.9538 56.2172L84.9341 51.3896L84.8907 51.4014L81.5353 51.4093L81.4801 51.3305C81.3658 51.1177 81.2909 50.8852 81.2554 50.6408C81.2199 50.4083 81.2002 50.1679 81.2002 49.9236V49.7936L84.9578 49.7699L84.938 46.0655C84.938 45.9157 84.9262 45.8685 84.9223 45.8566C84.9223 45.8566 84.8986 45.8251 84.8198 45.7739C84.7645 45.7345 84.6344 45.6872 84.4334 45.6359C84.2125 45.5808 84.0036 45.5374 83.8143 45.5177L83.7 45.5059L83.6803 44.4103L86.9804 44.3906L87.0002 56.2172H84.9617H84.9538Z" fill="white"/>
<path d="M83.6915 45.494L83.8059 45.5058C83.9951 45.5295 84.208 45.5689 84.4288 45.624C84.6339 45.6753 84.764 45.7226 84.8192 45.7659C84.898 45.8171 84.9256 45.8447 84.9296 45.8526C84.9335 45.8644 84.9454 45.9117 84.9454 46.0654L84.9532 49.7817L81.2075 49.7895V49.9196C81.2075 50.1639 81.2272 50.4043 81.2627 50.6329C81.2982 50.8733 81.3771 51.1058 81.4875 51.3186L81.5348 51.3935L84.8902 51.3856H84.9454L84.9532 56.2013H86.9799L86.972 44.3984L83.6994 44.4063H83.6915H83.6836L83.6915 45.4861V45.494Z" fill="white"/>
<path d="M73.4915 53.8771L73.6256 53.7747C74.4733 53.3097 75.2343 52.8289 75.8888 52.3402C76.5433 51.8515 77.1308 51.3432 77.6315 50.823C78.1323 50.3067 78.5581 49.7629 78.9012 49.2112C79.2087 48.7107 79.4729 48.1826 79.6818 47.6387L79.0155 47.6545L77.0677 47.6624L76.5788 47.7215C76.4645 47.7373 76.3304 47.8003 76.1766 47.9107L76.1135 47.958L74.2801 47.0437L74.2683 46.0939L74.3984 46.0821L81.5941 46.0742C81.8899 46.0742 82.0909 46.1767 82.1935 46.3737C82.2881 46.5589 82.2999 46.756 82.2289 46.9609C81.9017 47.9225 81.4877 48.8052 81.0027 49.5855C80.5177 50.3658 79.9421 51.087 79.2954 51.7333C78.6488 52.3796 77.9154 52.9826 77.115 53.5225C76.3146 54.0624 75.4235 54.5747 74.4654 55.0397L74.3471 55.0988L73.4836 53.8732L73.4915 53.8771Z" fill="white"/>
<path d="M79.291 51.7293C79.9377 51.083 80.5094 50.3618 80.9944 49.5815C81.4793 48.8051 81.8894 47.9224 82.2166 46.9608C82.2876 46.7598 82.2758 46.5667 82.1812 46.3815C82.0786 46.1845 81.8815 46.0859 81.5897 46.0859L74.394 46.0938H74.2836H74.2757V47.0317L76.1012 47.946L76.1683 47.8987C76.322 47.7845 76.4601 47.7214 76.5783 47.7056L77.0712 47.6465L79.019 47.6386H79.6972C79.4882 48.1825 79.2279 48.7106 78.9165 49.211C78.5734 49.7667 78.1476 50.3106 77.6469 50.8268C77.1461 51.3431 76.5586 51.8554 75.9002 52.344C75.2417 52.8327 74.4807 53.3174 73.637 53.7785L73.5147 53.8573H73.5068L74.3624 55.0829L74.4728 55.0317C75.431 54.5628 76.3221 54.0544 77.1225 53.5145C77.9189 52.9746 78.6523 52.3716 79.3029 51.7253L79.291 51.7293Z" fill="white"/>
<path d="M100.899 56.3235L100.879 46.0694C100.879 45.9118 100.863 45.8684 100.863 45.8605C100.863 45.8605 100.843 45.833 100.757 45.7778C100.705 45.7384 100.575 45.6911 100.37 45.6398C100.149 45.5847 99.9405 45.5413 99.7512 45.5216L99.6369 45.5098L99.6172 44.4142L102.917 44.3945L102.937 56.3275H100.899V56.3235Z" fill="white"/>
<path d="M99.6373 45.494L99.7516 45.5058C99.9448 45.5295 100.154 45.5689 100.375 45.624C100.58 45.6753 100.71 45.7226 100.765 45.7659C100.86 45.825 100.875 45.8526 100.875 45.8526C100.875 45.8605 100.891 45.8999 100.891 46.0654L100.899 56.2802V56.2999V56.3078H102.926L102.918 44.3984L99.6452 44.4063H99.6373H99.6294L99.6373 45.4861V45.494Z" fill="white"/>
<path d="M94.1716 53.6952C93.5289 53.6952 92.9257 53.6045 92.3855 53.4233C91.8414 53.242 91.3643 52.9779 90.9661 52.6311C90.5639 52.2843 90.2485 51.8587 90.0316 51.3661C89.8147 50.8775 89.7043 50.3257 89.7043 49.7346C89.7043 49.108 89.8147 48.5405 90.0316 48.044C90.2485 47.5474 90.56 47.1179 90.9582 46.7711C91.3485 46.4282 91.8256 46.1602 92.3697 45.9789C92.9099 45.7977 93.5053 45.707 94.1361 45.707C95.5043 45.707 96.5925 46.0617 97.3693 46.7632C98.1539 47.4686 98.5522 48.4696 98.5522 49.7346C98.5522 50.3257 98.4496 50.8656 98.2525 51.3464C98.0514 51.8272 97.7557 52.2449 97.3732 52.5917C96.9908 52.9385 96.5255 53.2104 95.9893 53.4036C95.457 53.5967 94.8459 53.6912 94.1756 53.6912L94.1716 53.6952ZM94.1361 47.2597C93.7379 47.2597 93.387 47.3228 93.0913 47.441C92.7995 47.5592 92.5511 47.7326 92.3579 47.9533C92.1608 48.178 92.0149 48.442 91.9163 48.7454C91.8177 49.0528 91.7665 49.3839 91.7665 49.7267C91.7665 50.0696 91.8177 50.3927 91.9163 50.6883C92.0149 50.976 92.1647 51.2321 92.3579 51.4449C92.5511 51.6577 92.8034 51.8272 93.1031 51.9533C93.4028 52.0794 93.7655 52.1425 94.1756 52.1425C94.5856 52.1425 94.9444 52.0794 95.2362 51.9533C95.528 51.8272 95.7685 51.6577 95.9538 51.4489C96.1352 51.24 96.2732 50.9839 96.3599 50.6962C96.4467 50.4006 96.494 50.0814 96.494 49.7464C96.494 49.0331 96.3087 48.4381 95.938 47.9691C95.5792 47.5119 94.972 47.2716 94.1361 47.2597Z" fill="white"/>
<path d="M94.1718 53.6832C94.8421 53.6832 95.4493 53.5847 95.9816 53.3955C96.5178 53.2024 96.9791 52.9305 97.3616 52.5877C97.744 52.2409 98.0398 51.8231 98.2408 51.3463C98.4419 50.8694 98.5405 50.3295 98.5405 49.7384C98.5405 48.4773 98.1462 47.4803 97.3616 46.7749C96.5848 46.0773 95.4966 45.7227 94.1363 45.7227C93.5054 45.7227 92.9101 45.8133 92.3699 45.9906C91.8258 46.1719 91.3526 46.4399 90.9623 46.7828C90.568 47.1295 90.2605 47.5552 90.0397 48.0517C89.8228 48.5483 89.7124 49.1157 89.7124 49.7384C89.7124 50.3295 89.8228 50.8773 90.0397 51.366C90.2565 51.8547 90.5719 52.2803 90.9702 52.6271C91.3684 52.9699 91.8455 53.2379 92.3857 53.4152C92.9219 53.5926 93.5212 53.6872 94.1679 53.6872L94.1718 53.6832ZM91.9046 48.7414C92.0032 48.4379 92.153 48.1699 92.3502 47.9453C92.5434 47.7246 92.7918 47.5473 93.0875 47.4291C93.3832 47.3069 93.7381 47.2478 94.1363 47.2438C94.9761 47.2557 95.5873 47.4961 95.9461 47.9571C96.3167 48.4261 96.502 49.029 96.502 49.7423C96.502 50.0773 96.4587 50.4005 96.368 50.696C96.2812 50.9877 96.1432 51.2438 95.9579 51.4527C95.7726 51.6655 95.5321 51.835 95.2364 51.9611C94.9406 52.0872 94.5819 52.1502 94.1679 52.1502C93.7538 52.1502 93.395 52.0872 93.0914 51.9571C92.7918 51.831 92.5394 51.6576 92.3423 51.4448C92.1452 51.232 91.9953 50.9758 91.8968 50.6842C91.7982 50.3886 91.7469 50.0655 91.7469 49.7187C91.7469 49.3719 91.7982 49.0409 91.8968 48.7335L91.9046 48.7414Z" fill="white"/>
<path d="M94.5938 60.8656C94.1917 60.775 93.9038 60.6449 93.7106 60.4636C93.5174 60.2863 93.3755 60.0026 93.2887 59.6242V57.0627C93.2887 56.976 93.2808 56.8853 93.269 56.7907C93.2611 56.7277 93.2335 56.6725 93.1902 56.6292C93.1271 56.574 93.0246 56.5109 92.8944 56.4479C92.7643 56.3809 92.5475 56.31 92.2557 56.2311L92.1571 56.2036L92.1414 55.2853L95.3193 55.2656L95.339 59.242C95.339 59.2814 95.339 59.309 95.3469 59.3326L95.4139 59.3168H103.142L103.162 59.4705C103.162 59.9316 103.095 60.3651 102.961 60.7631L102.925 60.8656H94.5859H94.5938Z" fill="white"/>
<path d="M95.418 59.3247H95.3391C95.3391 59.3247 95.3312 59.2892 95.3312 59.238L95.3234 55.305V55.2813V55.2734L92.1572 55.2813L92.1651 56.1877L92.2637 56.2153C92.5555 56.2941 92.7723 56.369 92.9024 56.4321C93.0286 56.4951 93.1351 56.5582 93.1981 56.6173C93.2455 56.6646 93.2731 56.7197 93.2809 56.7867C93.2928 56.8813 93.2967 56.972 93.2967 57.0587V59.6163C93.3874 59.9946 93.5293 60.2744 93.7186 60.4517C93.9079 60.6291 94.1957 60.7591 94.5939 60.8498H102.925L102.957 60.7552C103.091 60.3572 103.158 59.9237 103.158 59.4665L103.15 59.3247H95.4219H95.418Z" fill="white"/>
<path d="M106.545 50.2603L106.706 50.1854C107.365 49.9883 108.035 49.7558 108.705 49.4957C109.368 49.2356 110.022 48.944 110.657 48.6248C111.284 48.3095 111.899 47.9549 112.475 47.5805C112.944 47.277 113.385 46.9499 113.792 46.611L112.865 46.6307L111.698 46.6386C111.505 46.6386 111.351 46.6465 111.237 46.6544C111.102 46.6741 110.949 46.7135 110.799 46.7687C110.649 46.8238 110.476 46.9184 110.29 47.0485L110.231 47.0879L107.921 46.1539L107.909 45.1095H107.928L107.968 45.0977L116.587 45.0898C116.824 45.0898 117.013 45.1844 117.135 45.3696C117.226 45.5076 117.285 45.7361 117.064 46.0514C116.753 46.4691 116.37 46.8829 115.925 47.277C115.534 47.6238 115.097 47.9706 114.627 48.2977L116.082 48.9085L118.949 50.1381L118.905 50.2484L118.263 51.5174L112.798 49.4209C111.994 49.8741 111.11 50.2918 110.176 50.6622C109.234 51.0366 108.279 51.3558 107.345 51.6159L107.223 51.6475L106.537 50.2563L106.545 50.2603Z" fill="white"/>
<path d="M107.239 51.6395L107.353 51.6079C108.288 51.3518 109.242 51.0286 110.184 50.6582C111.107 50.2917 111.994 49.874 112.814 49.4168L118.267 51.5173L118.91 50.2444L118.953 50.1577L118.957 50.1498L116.091 48.9203L114.632 48.2897C115.105 47.9587 115.539 47.6158 115.929 47.269C116.374 46.875 116.753 46.4612 117.064 46.0434C117.285 45.7321 117.226 45.5075 117.135 45.3735C117.017 45.1961 116.832 45.1016 116.595 45.1016L107.976 45.1094H107.937H107.929V46.1459L110.231 47.0838L110.291 47.0444C110.476 46.9144 110.649 46.8198 110.799 46.7646C110.953 46.7094 111.103 46.67 111.237 46.6503C111.351 46.6385 111.505 46.6346 111.698 46.6346L112.861 46.6267H113.796C113.39 46.9656 112.948 47.2887 112.479 47.5961C111.899 47.9705 111.288 48.3213 110.657 48.6405C110.026 48.9597 109.368 49.2513 108.706 49.5114C108.039 49.7715 107.365 50.004 106.707 50.201L106.572 50.2523H106.557V50.2562H106.549L107.231 51.6434L107.239 51.6395Z" fill="white"/>
<path d="M104.964 53.2633L104.948 52.215L105.172 52.2032L120.506 52.1953L120.538 52.3372C120.55 52.5145 120.538 52.7352 120.491 52.9953C120.447 53.2593 120.396 53.4722 120.333 53.6456L120.301 53.7323L108.784 53.748C108.638 53.7598 108.453 53.7953 108.252 53.8465C108.055 53.9017 107.862 53.9923 107.676 54.1224L107.613 54.1657L104.96 53.2633H104.964Z" fill="white"/>
<path d="M105.173 52.2188H104.972H104.964L104.972 53.2552L107.621 54.1577L107.68 54.1183C107.866 53.9882 108.059 53.8936 108.26 53.8424C108.461 53.7872 108.646 53.7557 108.792 53.7439L120.297 53.736L120.329 53.6493C120.392 53.4759 120.439 53.2631 120.483 53.003C120.526 52.7429 120.542 52.5222 120.526 52.3488L120.506 52.2188L105.173 52.2266V52.2188Z" fill="white"/>
<path d="M112.924 61.529C111.391 61.529 110.18 61.2374 109.321 60.662C108.445 60.0748 108 59.2039 108 58.0808C108 56.9576 108.445 56.0906 109.325 55.5153C110.184 54.9517 111.379 54.668 112.873 54.668C114.367 54.668 115.55 54.9517 116.414 55.5153C117.297 56.0906 117.747 56.9616 117.747 58.1005C117.747 59.2394 117.305 60.0591 116.434 60.6542C115.582 61.2374 114.403 61.529 112.924 61.529ZM112.873 56.2167C111.04 56.2167 110.149 56.8236 110.149 58.0729C110.149 58.6955 110.362 59.1606 110.799 59.4916C111.229 59.8147 111.907 59.9803 112.818 59.9803H112.909C113.863 59.9684 114.565 59.799 114.987 59.4837C115.401 59.1724 115.602 58.7231 115.602 58.1083C115.602 57.4936 115.401 57.0128 114.987 56.6975C114.565 56.3783 113.855 56.2167 112.877 56.2167H112.873Z" fill="white"/>
<path d="M116.405 55.527C115.542 54.9634 114.355 54.6797 112.873 54.6797C111.39 54.6797 110.187 54.9634 109.328 55.527C108.453 56.1023 108.011 56.9615 108.011 58.0807C108.011 59.1999 108.453 60.0669 109.328 60.6541C110.184 61.2294 111.394 61.521 112.924 61.521C114.454 61.521 115.573 61.2255 116.425 60.6462C117.293 60.055 117.73 59.1959 117.73 58.1004C117.73 57.0048 117.285 56.1023 116.401 55.527H116.405ZM110.791 59.4994C110.349 59.1683 110.136 58.6994 110.136 58.0728C110.136 56.8156 111.031 56.2048 112.873 56.2048C113.854 56.2048 114.564 56.3664 114.99 56.6856C115.408 57.0009 115.609 57.4659 115.609 58.1043C115.609 58.7427 115.408 59.1723 114.99 59.4876C114.568 59.8068 113.866 59.9762 112.908 59.988H112.817C111.907 59.988 111.224 59.8225 110.791 59.4954V59.4994Z" fill="white"/>
<path d="M126.539 60.8458C126.129 60.7552 125.849 60.6291 125.652 60.4478C125.459 60.2704 125.317 59.9867 125.23 59.6084V58.3828C125.23 58.2961 125.222 58.2054 125.21 58.1108C125.203 58.0478 125.179 57.9926 125.132 57.9453C125.068 57.8902 124.966 57.8271 124.84 57.764C124.71 57.6971 124.493 57.6261 124.201 57.5473L124.102 57.5197L124.087 56.6015L127.265 56.5818L127.284 59.2261C127.284 59.2734 127.288 59.301 127.292 59.3168L127.359 59.301H135.509L135.529 59.4547C135.529 59.9118 135.462 60.3493 135.328 60.7473L135.292 60.8498H126.531L126.539 60.8458Z" fill="white"/>
<path d="M135.513 59.3051H127.284C127.284 59.3051 127.277 59.2697 127.277 59.2184L127.269 56.5859L124.103 56.5938L124.11 57.5002L124.209 57.5278C124.505 57.6066 124.718 57.6815 124.852 57.7446C124.986 57.8076 125.08 57.8707 125.147 57.9298C125.195 57.9771 125.222 58.0322 125.23 58.0992C125.242 58.1938 125.246 58.2845 125.246 58.3712V59.5968C125.337 59.9751 125.479 60.2549 125.668 60.4322C125.861 60.6135 126.141 60.7396 126.543 60.8303H135.292L135.324 60.7357C135.458 60.3376 135.525 59.9042 135.525 59.447L135.517 59.3051H135.513Z" fill="white"/>
<path d="M132.985 57.691L132.966 55.9885L130.009 56.0082L129.953 55.9334C129.851 55.7521 129.776 55.5353 129.733 55.2871C129.689 55.0467 129.669 54.8023 129.669 54.558V54.428L132.989 54.4082L132.97 46.0575C132.97 45.892 132.954 45.8487 132.954 45.8487C132.954 45.8487 132.938 45.8132 132.847 45.7344C132.816 45.7226 132.78 45.7107 132.725 45.695C132.638 45.6713 132.544 45.6516 132.433 45.628C132.323 45.6043 132.209 45.5807 132.086 45.5571C131.968 45.5334 131.858 45.5176 131.755 45.5058L131.637 45.494L131.617 44.4181L135.008 44.3984L135.02 44.5561L135.028 57.6989H132.989L132.985 57.691Z" fill="white"/>
<path d="M131.633 45.4782L131.752 45.4901C131.854 45.5019 131.965 45.5176 132.083 45.5413C132.205 45.5649 132.319 45.5886 132.43 45.6122C132.54 45.6359 132.635 45.6595 132.722 45.6792C132.793 45.6989 132.832 45.7147 132.852 45.7186C132.946 45.8014 132.962 45.8369 132.962 45.8369C132.962 45.8447 132.978 45.892 132.978 46.0497L132.986 54.4122L129.705 54.4201H129.69H129.682V54.5501C129.682 54.7945 129.701 55.0388 129.745 55.2752C129.788 55.5235 129.863 55.7403 129.962 55.9176L130.009 55.9885L132.978 55.9807L132.986 57.6713H135.012L135.005 44.5403V44.4063V44.3984L131.645 44.4063H131.637H131.629L131.637 45.4704L131.633 45.4782Z" fill="white"/>
<path d="M125.62 56.0777L125.601 53.6107C125.486 53.6383 125.372 53.6461 125.25 53.6501C125.076 53.658 124.903 53.6659 124.729 53.6777C124.489 53.6895 124.303 53.725 124.169 53.788C124.031 53.8511 123.913 53.9259 123.818 54.0087L123.763 54.056L121.248 53.3269L121.232 52.1644L121.291 52.1526L124.599 52.1447C125.195 52.1447 125.817 52.1368 126.472 52.1171C127.123 52.1013 127.793 52.0698 128.467 52.0304C129.145 51.991 129.82 51.9397 130.498 51.8806C131.156 51.8255 131.815 51.7545 132.457 51.6718L132.583 51.656L132.627 51.7979C132.65 51.9476 132.658 52.1526 132.647 52.4087C132.635 52.6728 132.587 52.8934 132.512 53.0747L132.481 53.1457L132.39 53.1693C131.57 53.2639 130.766 53.3388 129.997 53.3979C129.264 53.453 128.495 53.5043 127.694 53.5476L127.714 56.0816H125.624L125.62 56.0777Z" fill="white"/>
<path d="M124.725 53.6621C124.899 53.6503 125.072 53.6424 125.246 53.6345C125.364 53.6345 125.482 53.6227 125.589 53.6109C125.597 53.6109 125.601 53.6109 125.608 53.6109L125.616 56.0306V56.0542V56.0621H127.694L127.686 53.5281C128.483 53.4848 129.252 53.4335 129.985 53.3784C130.758 53.3193 131.566 53.2444 132.378 53.1498L132.461 53.134L132.493 53.0631C132.568 52.8858 132.615 52.6651 132.627 52.401C132.639 52.1488 132.631 51.9439 132.607 51.7941L132.576 51.6602L132.449 51.6759C131.815 51.7587 131.152 51.8296 130.49 51.8848C129.812 51.9439 129.137 51.9912 128.459 52.0345C127.785 52.0739 127.115 52.1055 126.464 52.1212C125.81 52.137 125.187 52.1488 124.591 52.1488L121.283 52.1567H121.248H121.24L121.248 53.3074L123.755 54.0365L123.811 53.9892C123.905 53.9065 124.023 53.8316 124.161 53.7646C124.295 53.7015 124.485 53.6661 124.725 53.6542V53.6621Z" fill="white"/>
<path d="M127.068 51.4499C126.449 51.4499 125.877 51.379 125.368 51.2332C124.856 51.0874 124.406 50.8785 124.04 50.6105C123.665 50.3386 123.373 50.0076 123.168 49.6174C122.967 49.2273 122.861 48.7859 122.861 48.3051C122.861 47.8243 122.963 47.3829 123.168 46.9928C123.373 46.6027 123.665 46.2677 124.04 45.9918C124.41 45.716 124.86 45.5071 125.368 45.3613C125.877 45.2194 126.449 45.1445 127.068 45.1445C127.687 45.1445 128.262 45.2155 128.775 45.3613C129.291 45.5071 129.741 45.7199 130.108 45.9918C130.474 46.2677 130.766 46.6066 130.967 46.9928C131.172 47.3829 131.275 47.8243 131.275 48.3051C131.275 48.7859 131.172 49.2273 130.967 49.6174C130.766 50.0036 130.474 50.3386 130.108 50.6105C129.745 50.8785 129.295 51.0874 128.779 51.2332C128.266 51.375 127.691 51.4499 127.072 51.4499H127.068ZM127.068 46.6972C126.378 46.6972 125.834 46.8391 125.447 47.1228C125.069 47.3987 124.887 47.7889 124.887 48.313C124.887 48.8371 125.073 49.2273 125.447 49.5031C125.834 49.7869 126.378 49.9287 127.068 49.9287C127.758 49.9287 128.306 49.7829 128.696 49.4992C129.079 49.2233 129.264 48.8332 129.264 48.3091C129.264 47.7849 129.079 47.379 128.696 47.111C128.302 46.8312 127.754 46.6933 127.064 46.6933L127.068 46.6972Z" fill="white"/>
<path d="M124.043 50.6025C124.41 50.8665 124.855 51.0754 125.368 51.2212C125.877 51.3631 126.444 51.438 127.063 51.438C127.682 51.438 128.254 51.367 128.767 51.2212C129.283 51.0754 129.729 50.8665 130.092 50.6025C130.458 50.3306 130.746 49.9995 130.947 49.6133C131.148 49.2271 131.251 48.7858 131.251 48.3089C131.251 47.8321 131.148 47.3907 130.947 47.0045C130.746 46.6183 130.458 46.2833 130.092 46.0074C129.729 45.7355 129.279 45.5227 128.763 45.3769C128.25 45.235 127.675 45.1602 127.059 45.1602C126.444 45.1602 125.869 45.2311 125.364 45.3769C124.851 45.5227 124.406 45.7316 124.039 46.0074C123.665 46.2833 123.373 46.6183 123.172 47.0045C122.971 47.3907 122.868 47.8321 122.868 48.3089C122.868 48.7858 122.971 49.2271 123.172 49.6133C123.373 49.9995 123.665 50.3345 124.039 50.6025H124.043ZM127.067 49.9444C126.373 49.9444 125.829 49.7986 125.439 49.5148C125.06 49.239 124.875 48.8449 124.875 48.3129C124.875 47.7808 125.06 47.3907 125.439 47.1109C125.829 46.8271 126.377 46.6813 127.067 46.6813C127.757 46.6813 128.309 46.8232 128.704 47.103C129.09 47.3749 129.275 47.773 129.275 48.3129C129.275 48.8528 129.086 49.235 128.704 49.5148C128.309 49.7986 127.761 49.9444 127.067 49.9444Z" fill="white"/>
</svg>
