<svg width="242" height="65" viewBox="0 0 242 65" fill="none" xmlns="http://www.w3.org/2000/svg">
<path d="M146.769 44.0392H148.59C148.638 44.1495 148.661 44.2638 148.661 44.382C148.661 44.5002 148.641 44.5712 148.606 44.6145C148.57 44.6579 148.511 44.6776 148.429 44.6776H148.172L146.422 46.6244C147.131 47.8933 147.577 48.6697 147.762 48.9573C147.948 49.245 148.105 49.4539 148.235 49.5839C148.365 49.714 148.523 49.781 148.716 49.781C148.776 50.045 148.768 50.2342 148.693 50.3484C148.618 50.4627 148.397 50.5179 148.022 50.5179C147.604 50.5179 147.317 50.4706 147.159 50.38C147.001 50.2893 146.859 50.0884 146.729 49.7731C146.599 49.4578 146.248 48.6775 145.672 47.4283L144.959 48.3465C144.959 48.981 144.967 49.4578 144.979 49.781H145.42C145.467 49.8913 145.491 50.0095 145.491 50.1278C145.491 50.2381 145.471 50.313 145.436 50.3563C145.4 50.3997 145.341 50.4233 145.258 50.4233H143.054C143.003 50.2854 142.979 50.1553 142.979 50.0253C142.979 49.9425 142.999 49.8795 143.043 49.8401C143.086 49.8007 143.145 49.781 143.228 49.781H143.618C143.634 49.3829 143.646 48.3347 143.646 46.6401C143.646 45.7258 143.638 45.0677 143.618 44.6697H143.058C143.007 44.5318 142.983 44.4017 142.983 44.2756C142.983 44.1889 143.003 44.1259 143.047 44.0865C143.09 44.047 143.149 44.0273 143.232 44.0273H145.42C145.467 44.1416 145.491 44.2599 145.491 44.3741C145.491 44.4884 145.471 44.5633 145.436 44.6066C145.4 44.65 145.341 44.6697 145.258 44.6697H144.967C144.955 45.0677 144.951 45.8914 144.951 47.1367C145.219 46.8293 145.546 46.451 145.929 45.9938C146.311 45.5367 146.654 45.0993 146.962 44.6736H146.587C146.536 44.5357 146.512 44.4057 146.512 44.2796C146.512 44.1929 146.532 44.1298 146.575 44.0904C146.619 44.051 146.678 44.0313 146.761 44.0313L146.769 44.0392Z" fill="#006F43"/>
<path d="M150.664 50.5194C150.033 50.5194 149.56 50.3381 149.241 49.9716C148.921 49.6051 148.76 49.077 148.76 48.3834C148.76 47.5164 148.953 46.8465 149.339 46.3697C149.726 45.8928 150.27 45.6564 150.968 45.6564C151.599 45.6564 152.072 45.8377 152.391 46.2041C152.711 46.5706 152.868 47.0987 152.868 47.7923C152.868 48.6593 152.675 49.3292 152.289 49.8061C151.902 50.2829 151.362 50.5194 150.66 50.5194H150.664ZM150.861 49.7115C151.09 49.7115 151.26 49.609 151.37 49.408C151.48 49.2071 151.536 48.8169 151.536 48.2337C151.536 47.5992 151.476 47.146 151.35 46.8741C151.228 46.6022 151.035 46.4682 150.771 46.4682C150.542 46.4682 150.372 46.5706 150.262 46.7716C150.152 46.9726 150.096 47.3628 150.096 47.946C150.096 48.5805 150.159 49.0337 150.282 49.3056C150.404 49.5775 150.597 49.7115 150.861 49.7115Z" fill="#006F43"/>
<path d="M153.231 46.0226C153.231 45.9122 153.266 45.8374 153.341 45.8019C153.416 45.7664 153.881 45.7349 154.737 45.7073C154.752 45.8374 154.752 46.0187 154.737 46.2512C155.092 46.0187 155.411 45.865 155.699 45.7822C155.987 45.6994 156.239 45.66 156.46 45.66C156.562 45.66 156.629 45.6719 156.661 45.6994C156.696 45.727 156.712 45.7861 156.712 45.8847C156.712 46.0581 156.688 46.2354 156.641 46.4206C156.594 46.6058 156.539 46.728 156.468 46.7792C156.401 46.8305 156.29 46.8699 156.14 46.8975C155.991 46.9211 155.904 46.929 155.88 46.9172C155.856 46.9053 155.778 46.7989 155.64 46.6019C155.431 46.6019 155.273 46.6847 155.163 46.8541C155.052 47.0196 154.997 47.4531 154.997 48.1428C154.997 48.7772 155.005 49.325 155.017 49.7821H155.679C155.73 49.8846 155.754 49.9989 155.754 50.1289C155.754 50.2393 155.734 50.3142 155.691 50.3575C155.651 50.4009 155.573 50.4245 155.454 50.4245H153.301C153.25 50.2945 153.227 50.1683 153.227 50.0541C153.227 49.9555 153.246 49.8886 153.286 49.8452C153.325 49.8019 153.388 49.7821 153.475 49.7821H153.783C153.798 49.3211 153.802 48.7891 153.802 48.1861C153.802 47.3112 153.767 46.795 153.692 46.6374C153.617 46.4797 153.487 46.397 153.301 46.397C153.25 46.2709 153.227 46.1487 153.227 46.0226H153.231Z" fill="#006F43"/>
<path d="M159.095 45.6564C159.678 45.6564 160.104 45.8022 160.368 46.0977C160.632 46.3933 160.766 46.8583 160.766 47.4967C160.766 47.812 160.711 48.0366 160.597 48.1706C160.487 48.3046 160.238 48.3716 159.86 48.3716H158.29C158.298 48.7815 158.381 49.1007 158.539 49.3332C158.696 49.5657 158.972 49.6839 159.371 49.6839C159.769 49.6839 160.159 49.5578 160.569 49.3095C160.715 49.4672 160.79 49.6406 160.79 49.8258C160.79 50.078 160.625 50.2514 160.293 50.3499C159.962 50.4484 159.576 50.4997 159.13 50.4997C158.365 50.4997 157.809 50.3263 157.462 49.9834C157.115 49.6406 156.942 49.0731 156.942 48.2849C156.942 47.4967 157.135 46.8189 157.525 46.3578C157.916 45.8928 158.436 45.6643 159.095 45.6643V45.6564ZM158.925 46.4682C158.716 46.4682 158.558 46.5628 158.448 46.748C158.338 46.9371 158.282 47.2603 158.279 47.7293H158.503C158.815 47.7293 159.055 47.7174 159.217 47.6977C159.383 47.678 159.477 47.6426 159.505 47.5953C159.532 47.548 159.548 47.4652 159.548 47.3549C159.548 47.0751 159.493 46.8544 159.383 46.7007C159.272 46.547 159.118 46.4682 158.921 46.4682H158.925Z" fill="#006F43"/>
<path d="M163.865 50.0657C163.652 50.1839 163.411 50.2903 163.143 50.3809C162.875 50.4755 162.619 50.5189 162.378 50.5189C161.968 50.5189 161.672 50.4125 161.483 50.2036C161.294 49.9947 161.199 49.6992 161.199 49.3208C161.199 48.7928 161.361 48.4026 161.688 48.1465C162.015 47.8903 162.528 47.7642 163.234 47.7642H163.695C163.667 47.2834 163.596 46.9563 163.482 46.779C163.364 46.6017 163.186 46.515 162.95 46.515C162.82 46.515 162.682 46.5347 162.528 46.5701C162.429 46.7751 162.37 46.8854 162.351 46.8972C162.331 46.9091 162.236 46.9366 162.059 46.98C161.881 47.0233 161.759 47.0115 161.684 46.9366C161.609 46.8657 161.538 46.7396 161.463 46.5583C161.388 46.377 161.353 46.2234 161.353 46.0972C161.353 46.0184 161.381 45.9593 161.44 45.916C161.499 45.8726 161.712 45.8253 162.078 45.7741C162.445 45.7229 162.839 45.6992 163.257 45.6992C163.75 45.6992 164.141 45.7938 164.421 45.983C164.701 46.1721 164.842 46.5386 164.842 47.0825V48.3238C164.842 49.0135 164.87 49.4391 164.925 49.5967C164.98 49.7543 165.075 49.8174 165.213 49.7819C165.256 49.8686 165.276 49.9553 165.276 50.0381C165.276 50.18 165.201 50.2864 165.051 50.3573C164.898 50.4322 164.697 50.4676 164.44 50.4676C164.326 50.4676 164.239 50.4519 164.172 50.4203C164.109 50.3888 164.007 50.2706 163.869 50.0578L163.865 50.0657ZM163.691 48.509C163.49 48.4617 163.285 48.4381 163.076 48.4381C162.839 48.4381 162.67 48.4814 162.571 48.5681C162.469 48.6548 162.422 48.8204 162.422 49.0647C162.422 49.2775 162.473 49.4351 162.571 49.5455C162.67 49.6519 162.816 49.707 163.009 49.707C163.163 49.707 163.297 49.6716 163.411 49.6006C163.526 49.5297 163.604 49.4272 163.64 49.2933C163.675 49.1593 163.695 48.9898 163.695 48.777V48.509H163.691Z" fill="#006F43"/>
<path d="M170.244 43.9414C170.713 43.9414 170.977 43.9572 171.041 43.9926C171.104 44.0281 171.38 44.8478 171.873 46.4557C172.365 48.0635 172.72 49.1709 172.941 49.7857H173.339C173.387 49.896 173.41 50.0142 173.41 50.1325C173.41 50.2428 173.391 50.3177 173.355 50.361C173.32 50.4044 173.26 50.428 173.178 50.428H171.021C170.974 50.2901 170.95 50.16 170.95 50.03C170.95 49.9472 170.97 49.8842 171.013 49.8448C171.056 49.8054 171.115 49.7857 171.198 49.7857H171.384C171.34 49.561 171.234 49.1118 171.06 48.4418H169.27C169.112 49.096 169.014 49.5453 168.974 49.7857H169.377C169.424 49.896 169.448 50.0142 169.448 50.1325C169.448 50.2428 169.428 50.3177 169.392 50.361C169.357 50.4044 169.298 50.428 169.219 50.428H167.378C167.33 50.2901 167.307 50.16 167.307 50.03C167.307 49.9472 167.326 49.8842 167.37 49.8448C167.409 49.8054 167.472 49.7857 167.551 49.7857H167.78C167.977 49.1827 168.281 48.2054 168.683 46.8497C169.085 45.498 169.353 44.6744 169.487 44.3828C169.617 44.0912 169.87 43.9453 170.24 43.9453L170.244 43.9414ZM169.456 47.6576H170.851C170.422 46.0852 170.181 45.2971 170.126 45.2971C170.071 45.2971 169.85 46.0852 169.452 47.6576H169.456Z" fill="#006F43"/>
<path d="M177.026 46.2801C177.164 46.6032 177.231 46.9264 177.231 47.2416C177.231 47.7973 177.066 48.2387 176.734 48.5697C176.403 48.9007 175.914 49.0623 175.271 49.0623C174.992 49.0623 174.818 49.0938 174.747 49.153C174.676 49.2121 174.641 49.3027 174.641 49.4249C174.641 49.547 174.684 49.6377 174.771 49.7007C174.857 49.7638 175.311 49.7914 176.127 49.7914C176.837 49.7914 177.306 49.8781 177.535 50.0554C177.759 50.2327 177.874 50.4889 177.874 50.8239C177.874 51.3401 177.625 51.746 177.129 52.0416C176.632 52.3371 175.855 52.4869 174.802 52.4869C174.313 52.4869 173.99 52.4199 173.828 52.282C173.671 52.144 173.588 51.9509 173.588 51.7066C173.588 51.5253 173.631 51.3441 173.722 51.1588C173.809 50.9776 173.935 50.7963 174.089 50.6229C173.947 50.5677 173.828 50.481 173.742 50.351C173.655 50.2209 173.608 50.0672 173.608 49.882C173.608 49.6653 173.671 49.4722 173.805 49.3066C173.939 49.1411 174.112 49.0032 174.337 48.8889C174.152 48.8022 173.998 48.6485 173.88 48.4239C173.761 48.2032 173.698 47.9195 173.698 47.5766C173.698 47.0249 173.864 46.5638 174.191 46.2013C174.518 45.8387 175.015 45.6574 175.67 45.6574C176.001 45.6574 176.324 45.7165 176.636 45.8387C177.038 45.6298 177.278 45.5234 177.353 45.5234C177.759 45.5234 177.984 45.5353 178.028 45.5589C178.067 45.5826 178.091 45.6259 178.091 45.689C178.091 45.7796 178.051 45.9136 177.968 46.0949C177.886 46.2761 177.811 46.3628 177.736 46.3628C177.661 46.3628 177.452 46.288 177.105 46.1382L177.03 46.2801H177.026ZM174.794 50.6899C174.731 50.7726 174.676 50.8712 174.641 50.9815C174.605 51.0918 174.585 51.2022 174.585 51.3086C174.585 51.4938 174.641 51.6239 174.739 51.6987C174.842 51.7736 175.047 51.813 175.358 51.813C175.792 51.813 176.119 51.7578 176.336 51.6475C176.549 51.5372 176.659 51.3756 176.659 51.1588C176.659 50.9776 176.581 50.8554 176.423 50.7884C176.265 50.7214 175.725 50.6859 174.798 50.6859L174.794 50.6899ZM175.453 46.3313C175.252 46.3313 175.106 46.4022 175.007 46.5441C174.909 46.686 174.857 46.9618 174.857 47.3796C174.857 47.7618 174.909 48.0298 175.011 48.1717C175.114 48.3175 175.264 48.3884 175.465 48.3884C175.666 48.3884 175.823 48.3175 175.922 48.1796C176.021 48.0416 176.068 47.7618 176.068 47.348C176.068 46.9934 176.017 46.7333 175.914 46.5717C175.812 46.4101 175.658 46.3313 175.453 46.3313Z" fill="#006F43"/>
<path d="M180.421 45.6564C181.004 45.6564 181.43 45.8022 181.694 46.0977C181.959 46.3933 182.093 46.8583 182.093 47.4967C182.093 47.812 182.037 48.0366 181.923 48.1706C181.809 48.3046 181.564 48.3716 181.186 48.3716H179.617C179.624 48.7815 179.707 49.1007 179.865 49.3332C180.023 49.5657 180.299 49.6839 180.697 49.6839C181.095 49.6839 181.485 49.5578 181.896 49.3095C182.041 49.4672 182.112 49.6406 182.112 49.8258C182.112 50.078 181.947 50.2514 181.616 50.3499C181.284 50.4484 180.898 50.4997 180.456 50.4997C179.691 50.4997 179.136 50.3263 178.789 49.9834C178.442 49.6406 178.268 49.0731 178.268 48.2849C178.268 47.4967 178.461 46.8189 178.852 46.3578C179.242 45.8928 179.762 45.6643 180.421 45.6643V45.6564ZM180.255 46.4682C180.046 46.4682 179.889 46.5628 179.778 46.748C179.668 46.9371 179.613 47.2603 179.609 47.7293H179.833C180.145 47.7293 180.381 47.7174 180.547 47.6977C180.713 47.678 180.807 47.6426 180.835 47.5953C180.862 47.548 180.878 47.4652 180.878 47.3549C180.878 47.0751 180.823 46.8544 180.713 46.7007C180.602 46.547 180.448 46.4682 180.255 46.4682Z" fill="#006F43"/>
<path d="M184.024 46.2472C184.332 46.0344 184.628 45.8847 184.908 45.794C185.191 45.7034 185.428 45.66 185.617 45.66C186.015 45.66 186.307 45.7586 186.5 45.9517C186.694 46.1448 186.788 46.5349 186.788 47.1221C186.788 48.659 186.816 49.4866 186.863 49.6088C186.914 49.7309 187.021 49.7861 187.19 49.7861C187.234 49.8964 187.254 50.0147 187.254 50.1368C187.254 50.2511 187.222 50.326 187.155 50.3654C187.088 50.4048 186.962 50.4245 186.776 50.4245C186.323 50.4245 186.031 50.4166 185.913 50.4009C185.791 50.3851 185.708 50.3339 185.665 50.2472C185.617 50.1605 185.598 50.0147 185.598 49.8137V48.1585C185.598 47.5201 185.546 47.0945 185.44 46.8778C185.333 46.661 185.164 46.5507 184.927 46.5507C184.726 46.5507 184.568 46.6137 184.454 46.7438C184.34 46.8738 184.281 47.1457 184.281 47.5556V48.4974C184.281 48.8915 184.288 49.3171 184.3 49.7782H184.801C184.848 49.8807 184.872 49.995 184.872 50.125C184.872 50.2353 184.852 50.3102 184.809 50.3536C184.77 50.3969 184.691 50.4206 184.572 50.4206H182.585C182.534 50.2905 182.51 50.1644 182.51 50.0501C182.51 49.9516 182.53 49.8846 182.569 49.8413C182.609 49.7979 182.672 49.7782 182.759 49.7782H183.066C183.078 49.262 183.086 48.7299 183.086 48.1822C183.086 47.3073 183.05 46.7911 182.976 46.6334C182.901 46.4758 182.77 46.393 182.585 46.393C182.534 46.2669 182.51 46.1448 182.51 46.0186C182.51 45.9083 182.55 45.8334 182.621 45.798C182.696 45.7625 183.161 45.731 184.016 45.7034C184.032 45.8334 184.032 46.0147 184.016 46.2433L184.024 46.2472Z" fill="#006F43"/>
<path d="M189.699 50.5194C188.922 50.5194 188.374 50.3578 188.066 50.0386C187.759 49.7194 187.601 49.1677 187.601 48.3913C187.601 47.5164 187.802 46.8426 188.204 46.3697C188.607 45.8968 189.21 45.6564 190.014 45.6564C190.436 45.6564 190.728 45.6958 190.889 45.7785C191.051 45.8613 191.134 45.9953 191.142 46.1884C191.142 46.4327 191.075 46.6534 190.933 46.8544C190.468 46.5982 190.089 46.4721 189.793 46.4721C189.498 46.4721 189.285 46.5864 189.147 46.815C189.009 47.0435 188.938 47.4495 188.938 48.0248C188.938 48.6002 189.005 49.0218 189.143 49.2977C189.281 49.5736 189.529 49.7115 189.888 49.7115C190.18 49.7115 190.554 49.5893 191.016 49.3489C191.134 49.5302 191.193 49.7194 191.193 49.9204C191.193 50.1213 191.043 50.275 190.747 50.3736C190.448 50.4721 190.101 50.5233 189.699 50.5233V50.5194Z" fill="#006F43"/>
<path d="M195.534 46.4874C195.447 46.7396 195.203 47.6263 194.801 49.1474C194.403 50.6686 194.091 51.5671 193.874 51.8429C193.657 52.1188 193.401 52.2961 193.109 52.371C192.814 52.4459 192.49 52.4853 192.131 52.4853C191.773 52.4853 191.524 52.4498 191.406 52.3789C191.288 52.308 191.229 52.1897 191.229 52.0203C191.229 51.8193 191.288 51.638 191.41 51.4725C192.013 51.6144 192.447 51.6735 192.719 51.6538C192.991 51.6341 193.235 51.24 193.452 50.4676C193.011 50.4794 192.774 50.4755 192.739 50.4558C192.703 50.4361 192.577 49.9316 192.36 48.9425C192.143 47.9533 192.005 47.3465 191.95 47.1218C191.895 46.8972 191.851 46.7317 191.816 46.6292C191.781 46.5268 191.733 46.4598 191.678 46.4322C191.619 46.4046 191.52 46.3928 191.386 46.3928C191.339 46.2509 191.315 46.1169 191.315 45.9987C191.315 45.8568 191.374 45.7701 191.489 45.7425C191.603 45.7149 191.859 45.7031 192.254 45.7031C192.518 45.7031 192.699 45.7228 192.802 45.7583C192.9 45.7977 192.971 45.8647 193.007 45.9632C193.046 46.0617 193.105 46.3612 193.184 46.8617C193.263 47.3622 193.366 47.9573 193.492 48.643C193.618 49.3287 193.697 49.6715 193.736 49.6715C193.776 49.6715 193.894 49.2065 194.099 48.2804C194.304 47.3543 194.418 46.7553 194.45 46.4795H194.221C194.17 46.3691 194.146 46.2548 194.146 46.1327C194.146 46.0105 194.17 45.9238 194.213 45.8686C194.257 45.8135 194.328 45.7859 194.426 45.7859H195.861C195.913 45.8923 195.936 46.0066 195.936 46.1248C195.936 46.2627 195.913 46.3573 195.865 46.4046C195.818 46.4558 195.735 46.4795 195.617 46.4795H195.542L195.534 46.4874Z" fill="#006F43"/>
<path d="M199.903 50.5194C199.272 50.5194 198.799 50.3381 198.48 49.9716C198.16 49.6051 198.002 49.077 198.002 48.3834C198.002 47.5164 198.196 46.8465 198.582 46.3697C198.968 45.8928 199.513 45.6564 200.21 45.6564C200.841 45.6564 201.314 45.8377 201.63 46.2041C201.949 46.5706 202.107 47.0987 202.107 47.7923C202.107 48.6593 201.914 49.3292 201.527 49.8061C201.141 50.2829 200.601 50.5194 199.899 50.5194H199.903ZM200.1 49.7115C200.329 49.7115 200.498 49.609 200.609 49.408C200.719 49.2071 200.774 48.8169 200.774 48.2337C200.774 47.5992 200.711 47.146 200.589 46.8741C200.467 46.6022 200.274 46.4682 200.009 46.4682C199.781 46.4682 199.611 46.5706 199.501 46.7716C199.39 46.9726 199.335 47.3628 199.335 47.946C199.335 48.5805 199.398 49.0337 199.517 49.3056C199.639 49.5775 199.832 49.7115 200.096 49.7115H200.1Z" fill="#006F43"/>
<path d="M204.22 49.7873H204.886C204.933 49.8898 204.957 50.0041 204.957 50.1341C204.957 50.2445 204.937 50.3193 204.898 50.3627C204.858 50.406 204.78 50.4297 204.657 50.4297H202.465C202.418 50.2996 202.394 50.1735 202.394 50.0592C202.394 49.9607 202.414 49.8937 202.453 49.8504C202.493 49.807 202.556 49.7873 202.642 49.7873H202.989C203.001 49.3893 203.009 48.9598 203.009 48.5066V46.4928H202.465C202.414 46.3588 202.39 46.2248 202.39 46.0869C202.39 45.9805 202.41 45.9056 202.445 45.8623C202.481 45.8189 202.548 45.7953 202.639 45.7953H203.009C203.025 45.0307 203.194 44.4987 203.51 44.1992C203.825 43.8997 204.334 43.7539 205.032 43.7539C205.438 43.7539 205.734 43.7973 205.919 43.884C206.104 43.9707 206.199 44.1125 206.199 44.3096C206.199 44.5066 206.124 44.7115 205.974 44.9243C205.41 44.6564 204.996 44.5224 204.728 44.5224C204.504 44.5224 204.358 44.6051 204.295 44.7667C204.231 44.9322 204.196 45.1963 204.196 45.5628V45.8031H205.339C205.387 45.9293 205.41 46.0593 205.41 46.2012C205.41 46.3194 205.391 46.3982 205.351 46.4416C205.312 46.481 205.237 46.5007 205.123 46.5007H204.192V48.5144C204.192 48.9676 204.2 49.3932 204.216 49.7952L204.22 49.7873Z" fill="#006F43"/>
<path d="M211.487 44.0352H213.332C213.379 44.1495 213.403 44.2677 213.403 44.382C213.403 44.4963 213.383 44.5711 213.348 44.6145C213.312 44.6578 213.253 44.6775 213.174 44.6775H212.973C212.792 45.2805 212.496 46.2815 212.086 47.6844C211.676 49.0873 211.408 49.911 211.274 50.1514C211.14 50.3957 210.864 50.5179 210.442 50.5179C209.996 50.5179 209.748 50.5021 209.701 50.4666C209.653 50.4312 209.389 49.6115 208.912 48.0036C208.435 46.3958 208.088 45.2884 207.867 44.6736H207.512C207.461 44.5357 207.438 44.4056 207.438 44.2795C207.438 44.1928 207.457 44.1298 207.501 44.0904C207.544 44.051 207.603 44.0312 207.686 44.0312H209.784C209.831 44.1455 209.854 44.2638 209.854 44.378C209.854 44.4923 209.835 44.5672 209.799 44.6106C209.764 44.6539 209.705 44.6736 209.626 44.6736H209.417C209.48 45.0125 209.689 45.844 210.052 47.1721C210.414 48.5002 210.619 49.1662 210.671 49.1662C210.722 49.1662 210.903 48.508 211.207 47.1957C211.514 45.8795 211.676 45.0401 211.696 44.6736H211.298C211.25 44.5357 211.227 44.4056 211.227 44.2795C211.227 44.1928 211.246 44.1298 211.29 44.0904C211.329 44.051 211.392 44.0312 211.479 44.0312L211.487 44.0352Z" fill="#006F43"/>
<path d="M215.256 45.6564C215.84 45.6564 216.266 45.8022 216.53 46.0977C216.794 46.3933 216.928 46.8583 216.928 47.4967C216.928 47.812 216.873 48.0366 216.759 48.1706C216.644 48.3046 216.4 48.3716 216.021 48.3716H214.452C214.46 48.7815 214.543 49.1007 214.7 49.3332C214.858 49.5657 215.134 49.6839 215.532 49.6839C215.931 49.6839 216.321 49.5578 216.731 49.3095C216.877 49.4672 216.948 49.6406 216.948 49.8258C216.948 50.078 216.782 50.2514 216.451 50.3499C216.12 50.4484 215.733 50.4997 215.292 50.4997C214.527 50.4997 213.971 50.3263 213.624 49.9834C213.277 49.6406 213.104 49.0731 213.104 48.2849C213.104 47.4967 213.297 46.8189 213.687 46.3578C214.077 45.8928 214.598 45.6643 215.256 45.6643V45.6564ZM215.091 46.4682C214.882 46.4682 214.724 46.5628 214.614 46.748C214.503 46.9371 214.448 47.2603 214.444 47.7293H214.669C214.98 47.7293 215.217 47.7174 215.383 47.6977C215.548 47.678 215.643 47.6426 215.67 47.5953C215.698 47.548 215.714 47.4652 215.714 47.3549C215.714 47.0751 215.659 46.8544 215.548 46.7007C215.438 46.547 215.284 46.4682 215.091 46.4682Z" fill="#006F43"/>
<path d="M220.847 46.2801C220.985 46.6032 221.052 46.9264 221.052 47.2416C221.052 47.7973 220.887 48.2387 220.556 48.5697C220.224 48.9007 219.735 49.0623 219.093 49.0623C218.813 49.0623 218.639 49.0938 218.568 49.153C218.497 49.2121 218.462 49.3027 218.462 49.4249C218.462 49.547 218.505 49.6377 218.592 49.7007C218.679 49.7638 219.132 49.7914 219.948 49.7914C220.658 49.7914 221.127 49.8781 221.356 50.0554C221.581 50.2327 221.695 50.4889 221.695 50.8239C221.695 51.3401 221.447 51.746 220.95 52.0416C220.453 52.3371 219.676 52.4869 218.624 52.4869C218.135 52.4869 217.811 52.4199 217.65 52.282C217.492 52.144 217.409 51.9509 217.409 51.7066C217.409 51.5253 217.453 51.3441 217.543 51.1588C217.63 50.9776 217.756 50.7963 217.91 50.6229C217.768 50.5677 217.65 50.481 217.563 50.351C217.476 50.2209 217.429 50.0672 217.429 49.882C217.429 49.6653 217.492 49.4722 217.626 49.3066C217.76 49.1411 217.934 49.0032 218.158 48.8889C217.973 48.8022 217.819 48.6485 217.701 48.4239C217.583 48.2032 217.52 47.9195 217.52 47.5766C217.52 47.0249 217.685 46.5638 218.012 46.2013C218.34 45.8387 218.836 45.6574 219.491 45.6574C219.822 45.6574 220.146 45.7165 220.457 45.8387C220.859 45.6298 221.1 45.5234 221.175 45.5234C221.581 45.5234 221.805 45.5353 221.849 45.5589C221.888 45.5826 221.912 45.6259 221.912 45.689C221.912 45.7796 221.873 45.9136 221.79 46.0949C221.707 46.2761 221.632 46.3628 221.557 46.3628C221.482 46.3628 221.273 46.288 220.926 46.1382L220.851 46.2801H220.847ZM218.616 50.6899C218.553 50.7726 218.497 50.8712 218.462 50.9815C218.426 51.0918 218.407 51.2022 218.407 51.3086C218.407 51.4938 218.462 51.6239 218.56 51.6987C218.663 51.7736 218.868 51.813 219.18 51.813C219.613 51.813 219.94 51.7578 220.157 51.6475C220.37 51.5372 220.481 51.3756 220.481 51.1588C220.481 50.9776 220.402 50.8554 220.244 50.7884C220.086 50.7214 219.546 50.6859 218.62 50.6859L218.616 50.6899ZM219.274 46.3313C219.073 46.3313 218.927 46.4022 218.829 46.5441C218.73 46.686 218.679 46.9618 218.679 47.3796C218.679 47.7618 218.73 48.0298 218.833 48.1717C218.935 48.3175 219.085 48.3884 219.286 48.3884C219.487 48.3884 219.645 48.3175 219.743 48.1796C219.842 48.0416 219.889 47.7618 219.889 47.348C219.889 46.9934 219.838 46.7333 219.735 46.5717C219.633 46.4101 219.479 46.3313 219.274 46.3313Z" fill="#006F43"/>
<path d="M224.766 50.0657C224.553 50.1839 224.313 50.2903 224.044 50.3809C223.776 50.4755 223.52 50.5189 223.28 50.5189C222.873 50.5189 222.574 50.4125 222.384 50.2036C222.195 49.9947 222.101 49.6992 222.101 49.3208C222.101 48.7928 222.262 48.4026 222.589 48.1465C222.917 47.8903 223.429 47.7642 224.135 47.7642H224.592C224.569 47.2834 224.494 46.9563 224.38 46.779C224.261 46.6017 224.084 46.515 223.847 46.515C223.717 46.515 223.579 46.5347 223.425 46.5701C223.327 46.7751 223.268 46.8854 223.252 46.8972C223.232 46.9091 223.138 46.9366 222.96 46.98C222.783 47.0233 222.66 47.0115 222.586 46.9366C222.515 46.8657 222.44 46.7396 222.365 46.5583C222.29 46.377 222.254 46.2234 222.254 46.0972C222.254 46.0184 222.282 45.9593 222.341 45.916C222.4 45.8726 222.613 45.8253 222.98 45.7741C223.347 45.7229 223.741 45.6992 224.159 45.6992C224.652 45.6992 225.042 45.7938 225.322 45.983C225.602 46.1721 225.744 46.5386 225.744 47.0825V48.3238C225.744 49.0135 225.771 49.4391 225.827 49.5967C225.878 49.7543 225.976 49.8174 226.114 49.7819C226.158 49.8686 226.178 49.9553 226.178 50.0381C226.178 50.18 226.103 50.2864 225.953 50.3573C225.803 50.4322 225.598 50.4676 225.342 50.4676C225.231 50.4676 225.141 50.4519 225.077 50.4203C225.014 50.3888 224.912 50.2706 224.774 50.0578L224.766 50.0657ZM224.592 48.509C224.391 48.4617 224.186 48.4381 223.977 48.4381C223.741 48.4381 223.571 48.4814 223.469 48.5681C223.366 48.6548 223.315 48.8204 223.315 49.0647C223.315 49.2775 223.366 49.4351 223.465 49.5455C223.567 49.6519 223.709 49.707 223.902 49.707C224.056 49.707 224.19 49.6716 224.305 49.6006C224.423 49.5297 224.498 49.4272 224.537 49.2933C224.573 49.1593 224.592 48.9898 224.592 48.777V48.509Z" fill="#006F43"/>
<path d="M228.055 46.2472C228.362 46.0344 228.658 45.8847 228.938 45.794C229.222 45.7034 229.458 45.66 229.648 45.66C230.046 45.66 230.338 45.7586 230.531 45.9517C230.724 46.1448 230.819 46.5349 230.819 47.1221C230.819 48.659 230.846 49.4866 230.893 49.6088C230.945 49.7309 231.051 49.7861 231.221 49.7861C231.264 49.8964 231.284 50.0147 231.284 50.1368C231.284 50.2511 231.252 50.326 231.185 50.3654C231.118 50.4048 230.992 50.4245 230.807 50.4245C230.353 50.4245 230.062 50.4166 229.943 50.4009C229.825 50.3851 229.738 50.3339 229.695 50.2472C229.648 50.1605 229.628 50.0147 229.628 49.8137V48.1585C229.628 47.5201 229.577 47.0945 229.47 46.8778C229.364 46.661 229.194 46.5507 228.958 46.5507C228.756 46.5507 228.599 46.6137 228.484 46.7438C228.37 46.8738 228.311 47.1457 228.311 47.5556V48.4974C228.311 48.8915 228.319 49.3171 228.331 49.7782H228.831C228.879 49.8807 228.902 49.995 228.902 50.125C228.902 50.2353 228.883 50.3102 228.839 50.3536C228.8 50.3969 228.721 50.4206 228.603 50.4206H226.615C226.564 50.2905 226.541 50.1644 226.541 50.0501C226.541 49.9516 226.56 49.8846 226.6 49.8413C226.639 49.7979 226.702 49.7782 226.789 49.7782H227.096C227.108 49.262 227.116 48.7299 227.116 48.1822C227.116 47.3073 227.081 46.7911 227.006 46.6334C226.931 46.4758 226.801 46.393 226.615 46.393C226.564 46.2669 226.541 46.1448 226.541 46.0186C226.541 45.9083 226.58 45.8334 226.651 45.798C226.726 45.7625 227.191 45.731 228.047 45.7034C228.062 45.8334 228.062 46.0147 228.047 46.2433L228.055 46.2472Z" fill="#006F43"/>
<path d="M145.984 59.9913C146.461 59.9913 146.903 59.8494 147.305 59.5618C147.494 59.7943 147.589 60.0189 147.589 60.2396C147.589 60.4603 147.392 60.614 146.997 60.7243C146.603 60.8347 146.142 60.8898 145.609 60.8898C144.754 60.8898 144.119 60.681 143.701 60.2672C143.283 59.8534 143.078 59.077 143.078 57.9381C143.078 56.6928 143.327 55.7746 143.823 55.1874C144.32 54.6002 145.026 54.3047 145.941 54.3047C146.54 54.3047 146.954 54.352 147.187 54.4466C147.419 54.5411 147.534 54.7145 147.534 54.9707C147.534 55.1677 147.443 55.3805 147.265 55.6091C146.733 55.3411 146.225 55.2071 145.74 55.2071C145.333 55.2071 145.03 55.3687 144.829 55.6958C144.632 56.019 144.533 56.6061 144.533 57.4495C144.533 58.4465 144.64 59.1204 144.856 59.4672C145.073 59.8179 145.448 59.9913 145.988 59.9913H145.984Z" fill="#006F43"/>
<path d="M150.195 56.0273C150.778 56.0273 151.204 56.1732 151.468 56.4687C151.733 56.7643 151.867 57.2293 151.867 57.8677C151.867 58.183 151.811 58.4076 151.697 58.5416C151.587 58.6756 151.338 58.7426 150.96 58.7426H149.39C149.398 59.1524 149.481 59.4716 149.639 59.7041C149.797 59.9367 150.073 60.0549 150.471 60.0549C150.869 60.0549 151.259 59.9288 151.669 59.6805C151.815 59.8381 151.89 60.0115 151.89 60.1968C151.89 60.449 151.725 60.6224 151.393 60.7209C151.062 60.8194 150.676 60.8706 150.23 60.8706C149.465 60.8706 148.909 60.6972 148.562 60.3544C148.215 60.0115 148.042 59.4441 148.042 58.6559C148.042 57.8677 148.235 57.1899 148.626 56.7288C149.016 56.2638 149.536 56.0313 150.195 56.0313V56.0273ZM150.025 56.8352C149.816 56.8352 149.659 56.9298 149.548 57.115C149.438 57.3042 149.383 57.6273 149.379 58.0963H149.603C149.915 58.0963 150.155 58.0845 150.317 58.0648C150.483 58.0451 150.577 58.0096 150.605 57.9623C150.632 57.915 150.648 57.8322 150.648 57.7219C150.648 57.4421 150.593 57.2214 150.483 57.0677C150.372 56.914 150.218 56.8352 150.021 56.8352H150.025Z" fill="#006F43"/>
<path d="M152.288 56.3899C152.288 56.2796 152.324 56.2047 152.399 56.1692C152.473 56.1337 152.939 56.1022 153.794 56.0746C153.81 56.2047 153.81 56.386 153.794 56.6185C154.149 56.386 154.469 56.2323 154.756 56.1495C155.044 56.0668 155.297 56.0273 155.517 56.0273C155.62 56.0273 155.687 56.0392 155.718 56.0668C155.754 56.0943 155.77 56.1535 155.77 56.252C155.77 56.4254 155.746 56.6027 155.699 56.7879C155.651 56.9731 155.596 57.0953 155.525 57.1465C155.458 57.1978 155.348 57.2372 155.198 57.2648C155.048 57.2884 154.961 57.2963 154.938 57.2845C154.914 57.2726 154.835 57.1663 154.697 56.9692C154.488 56.9692 154.331 57.052 154.22 57.2214C154.11 57.3869 154.055 57.8204 154.055 58.5101C154.055 59.1445 154.062 59.6923 154.074 60.1495H154.737C154.788 60.2519 154.812 60.3662 154.812 60.4963C154.812 60.6066 154.792 60.6815 154.748 60.7248C154.709 60.7682 154.63 60.7918 154.512 60.7918H152.359C152.308 60.6618 152.284 60.5357 152.284 60.4214C152.284 60.3229 152.304 60.2559 152.343 60.2125C152.383 60.1692 152.446 60.1495 152.533 60.1495H152.84C152.856 59.6884 152.86 59.1564 152.86 58.5534C152.86 57.6786 152.824 57.1623 152.749 57.0047C152.675 56.847 152.544 56.7643 152.359 56.7643C152.308 56.6382 152.284 56.516 152.284 56.3899H152.288Z" fill="#006F43"/>
<path d="M156.167 56.1647H156.463L156.881 54.7539C157.023 54.8012 157.157 54.8603 157.279 54.9352C157.402 55.0101 157.492 55.0968 157.555 55.1913C157.618 55.2859 157.65 55.5263 157.65 55.9086V56.1608H159.077C159.125 56.2869 159.148 56.4169 159.148 56.5588C159.148 56.677 159.128 56.7559 159.089 56.7992C159.05 56.8386 158.975 56.8583 158.86 56.8583H157.65V58.7105C157.65 59.2465 157.689 59.613 157.772 59.8061C157.855 59.9992 157.989 60.1016 158.178 60.1095C158.368 60.1174 158.6 60.0425 158.872 59.8849C158.955 60.007 158.994 60.145 158.994 60.3026C158.994 60.5154 158.892 60.6573 158.691 60.7322C158.49 60.807 158.178 60.8425 157.752 60.8425C157.287 60.8425 156.956 60.74 156.759 60.5351C156.562 60.3302 156.463 59.9282 156.463 59.3371V58.5213C156.463 58.0051 156.447 57.4534 156.42 56.8623H155.99C155.939 56.7283 155.915 56.5943 155.915 56.4563C155.915 56.3499 155.935 56.2751 155.97 56.2317C156.006 56.1884 156.073 56.1647 156.163 56.1647H156.167Z" fill="#006F43"/>
<path d="M161.133 60.1543H161.63C161.677 60.2568 161.701 60.3711 161.701 60.5011C161.701 60.6115 161.681 60.6864 161.642 60.7297C161.602 60.7731 161.52 60.7967 161.401 60.7967H159.379C159.331 60.6667 159.308 60.5405 159.308 60.4263C159.308 60.3277 159.327 60.2607 159.367 60.2174C159.406 60.174 159.469 60.1543 159.556 60.1543H159.903C159.919 59.7563 159.923 59.3268 159.923 58.8736C159.923 58.1839 159.919 57.7268 159.907 57.4982C159.895 57.2697 159.875 57.1081 159.844 57.0017C159.808 56.8992 159.757 56.8322 159.686 56.8046C159.615 56.777 159.513 56.7652 159.379 56.7652C159.331 56.6785 159.308 56.5761 159.308 56.4618C159.308 56.2884 159.371 56.178 159.501 56.1386C159.631 56.0992 159.891 56.0795 160.289 56.0795C160.589 56.0795 160.79 56.0913 160.901 56.115C161.007 56.1386 161.07 56.1899 161.086 56.2608C161.102 56.3357 161.11 56.4381 161.11 56.5682V58.8736C161.11 59.3268 161.121 59.7524 161.133 60.1543ZM160.364 55.4687C160.112 55.4687 159.927 55.4135 159.816 55.3071C159.702 55.2007 159.647 55.047 159.647 54.85C159.647 54.6529 159.718 54.4756 159.86 54.3416C160.002 54.2076 160.207 54.1406 160.471 54.1406C160.735 54.1406 160.932 54.1958 161.046 54.3101C161.157 54.4244 161.216 54.5741 161.216 54.7554C161.216 54.9603 161.149 55.1258 161.015 55.2598C160.881 55.3938 160.664 55.4608 160.364 55.4608V55.4687Z" fill="#006F43"/>
<path d="M166.021 56.1625C166.317 56.1625 166.518 56.1743 166.628 56.2019C166.739 56.2294 166.802 56.2767 166.818 56.3516C166.833 56.4225 166.841 56.525 166.841 56.6551V58.8737C166.841 59.3269 166.849 59.7526 166.869 60.1545H167.366C167.413 60.257 167.437 60.3713 167.437 60.5013C167.437 60.6117 167.417 60.6865 167.373 60.7299C167.33 60.7732 167.251 60.7969 167.137 60.7969H165.11C165.063 60.6668 165.039 60.5407 165.039 60.4264C165.039 60.3279 165.059 60.2609 165.098 60.2176C165.138 60.1742 165.201 60.1545 165.292 60.1545H165.635C165.65 59.7565 165.658 59.3269 165.658 58.8737C165.658 58.2156 165.654 57.7703 165.643 57.5457C165.635 57.3211 165.611 57.1555 165.576 57.0491C165.54 56.9467 165.489 56.8797 165.418 56.8521C165.351 56.8245 165.248 56.8127 165.11 56.8127H163.675V58.8737C163.675 59.3269 163.683 59.7526 163.695 60.1545H164.322C164.369 60.257 164.393 60.3713 164.393 60.5013C164.393 60.6117 164.373 60.6865 164.334 60.7299C164.29 60.7732 164.211 60.7969 164.093 60.7969H161.936C161.889 60.6668 161.865 60.5407 161.865 60.4264C161.865 60.3279 161.885 60.2609 161.924 60.2176C161.964 60.1742 162.027 60.1545 162.114 60.1545H162.461C162.476 59.7565 162.48 59.3269 162.48 58.8737V56.86H161.936C161.885 56.726 161.861 56.592 161.861 56.4541C161.861 56.3477 161.881 56.2728 161.917 56.2294C161.952 56.1861 162.019 56.1625 162.11 56.1625H162.48C162.496 55.3979 162.674 54.8659 163.009 54.5664C163.344 54.2669 163.963 54.1211 164.866 54.1211C165.694 54.1211 166.23 54.1684 166.475 54.259C166.715 54.3536 166.837 54.527 166.837 54.791C166.837 55.1142 166.711 55.3743 166.459 55.5792C165.627 55.1181 164.976 54.8856 164.511 54.8856C164.164 54.8856 163.939 54.9644 163.833 55.1221C163.73 55.2797 163.675 55.5674 163.675 55.993V56.1664H166.021V56.1625Z" fill="#006F43"/>
<path d="M169.771 60.8864C168.995 60.8864 168.447 60.7249 168.139 60.4056C167.832 60.0864 167.674 59.5347 167.674 58.7584C167.674 57.8835 167.875 57.2096 168.277 56.7367C168.679 56.2638 169.283 56.0234 170.087 56.0234C170.509 56.0234 170.801 56.0628 170.962 56.1456C171.124 56.2284 171.207 56.3623 171.215 56.5515C171.215 56.7958 171.148 57.0165 171.006 57.2175C170.54 56.9614 170.162 56.8352 169.866 56.8352C169.57 56.8352 169.357 56.9495 169.219 57.1781C169.081 57.4067 169.01 57.8126 169.01 58.3879C169.01 58.9633 169.077 59.385 169.215 59.6608C169.353 59.9367 169.602 60.0746 169.961 60.0746C170.252 60.0746 170.627 59.9525 171.088 59.7121C171.207 59.8933 171.266 60.0825 171.266 60.2835C171.266 60.4845 171.116 60.6382 170.82 60.7367C170.521 60.8352 170.174 60.8864 169.771 60.8864Z" fill="#006F43"/>
<path d="M174.27 60.4331C174.057 60.5513 173.817 60.6577 173.549 60.7484C173.281 60.839 173.024 60.8863 172.784 60.8863C172.378 60.8863 172.078 60.7799 171.889 60.571C171.7 60.3622 171.605 60.0666 171.605 59.6883C171.605 59.1602 171.767 58.7701 172.094 58.5139C172.421 58.2578 172.934 58.1317 173.64 58.1317H174.097C174.073 57.6509 173.998 57.3238 173.884 57.1464C173.766 56.9691 173.588 56.8824 173.352 56.8824C173.222 56.8824 173.084 56.9021 172.93 56.9376C172.831 57.1425 172.772 57.2528 172.756 57.2647C172.737 57.2765 172.642 57.3041 172.465 57.3474C172.287 57.3908 172.165 57.3789 172.09 57.3041C172.019 57.2331 171.944 57.107 171.869 56.9258C171.794 56.7445 171.759 56.5908 171.759 56.4647C171.759 56.3859 171.786 56.3267 171.845 56.2834C171.905 56.24 172.118 56.1928 172.484 56.1415C172.851 56.0903 173.245 56.0667 173.663 56.0667C174.156 56.0667 174.546 56.1612 174.826 56.3504C175.106 56.5396 175.248 56.906 175.248 57.4499V58.6912C175.248 59.3809 175.276 59.8065 175.331 59.9641C175.382 60.1218 175.481 60.1848 175.619 60.1494C175.662 60.2361 175.682 60.3228 175.682 60.4055C175.682 60.5474 175.607 60.6538 175.457 60.7247C175.307 60.7996 175.102 60.8351 174.846 60.8351C174.736 60.8351 174.645 60.8193 174.582 60.7878C174.519 60.7562 174.416 60.638 174.278 60.4252L174.27 60.4331ZM174.101 58.8765C173.9 58.8292 173.695 58.8055 173.486 58.8055C173.249 58.8055 173.08 58.8489 172.977 58.9356C172.875 59.0223 172.823 59.1878 172.823 59.4321C172.823 59.6449 172.875 59.8026 172.973 59.9129C173.076 60.0193 173.218 60.0745 173.411 60.0745C173.565 60.0745 173.699 60.039 173.813 59.9681C173.931 59.8971 174.006 59.7947 174.046 59.6607C174.081 59.5267 174.101 59.3572 174.101 59.1444V58.8765Z" fill="#006F43"/>
<path d="M176.226 56.1647H176.522L176.94 54.7539C177.082 54.8012 177.216 54.8603 177.338 54.9352C177.46 55.0101 177.555 55.0968 177.618 55.1913C177.681 55.2899 177.712 55.5263 177.712 55.9086V56.1608H179.14C179.187 56.2869 179.211 56.4169 179.211 56.5588C179.211 56.677 179.191 56.7559 179.152 56.7992C179.112 56.8386 179.037 56.8583 178.923 56.8583H177.712V58.7105C177.712 59.2465 177.756 59.613 177.835 59.8061C177.917 59.9992 178.051 60.1016 178.241 60.1095C178.43 60.1174 178.663 60.0425 178.935 59.8849C179.018 60.007 179.057 60.145 179.057 60.3026C179.057 60.5154 178.954 60.6573 178.753 60.7322C178.552 60.807 178.241 60.8425 177.815 60.8425C177.35 60.8425 177.022 60.74 176.821 60.5351C176.624 60.3302 176.526 59.9282 176.526 59.3371V58.5213C176.526 58.0051 176.51 57.4534 176.482 56.8623H176.052C176.001 56.7283 175.978 56.5943 175.978 56.4563C175.978 56.3499 175.997 56.2751 176.033 56.2317C176.072 56.1884 176.135 56.1647 176.226 56.1647Z" fill="#006F43"/>
<path d="M181.191 60.1543H181.688C181.735 60.2568 181.759 60.3711 181.759 60.5011C181.759 60.6115 181.739 60.6864 181.696 60.7297C181.656 60.7731 181.573 60.7967 181.459 60.7967H179.432C179.385 60.6667 179.361 60.5405 179.361 60.4263C179.361 60.3277 179.381 60.2607 179.42 60.2174C179.46 60.174 179.523 60.1543 179.61 60.1543H179.953C179.969 59.7563 179.976 59.3268 179.976 58.8736C179.976 58.1839 179.973 57.7268 179.961 57.4982C179.953 57.2736 179.929 57.1081 179.894 57.0017C179.862 56.8992 179.807 56.8322 179.736 56.8046C179.665 56.777 179.562 56.7652 179.428 56.7652C179.381 56.6785 179.357 56.5761 179.357 56.4618C179.357 56.2884 179.421 56.178 179.551 56.1386C179.681 56.0992 179.945 56.0795 180.339 56.0795C180.639 56.0795 180.84 56.0913 180.946 56.115C181.057 56.1386 181.116 56.1899 181.132 56.2608C181.147 56.3357 181.155 56.4381 181.155 56.5682V58.8736C181.155 59.3268 181.167 59.7524 181.183 60.1543H181.191ZM180.418 55.4687C180.166 55.4687 179.98 55.4135 179.87 55.3071C179.76 55.2007 179.7 55.047 179.7 54.85C179.7 54.6529 179.771 54.4756 179.913 54.3416C180.055 54.2076 180.26 54.1406 180.525 54.1406C180.789 54.1406 180.986 54.1958 181.1 54.3101C181.215 54.4244 181.27 54.5741 181.27 54.7554C181.27 54.9603 181.203 55.1258 181.069 55.2598C180.935 55.3938 180.718 55.4608 180.418 55.4608V55.4687Z" fill="#006F43"/>
<path d="M183.903 60.8864C183.272 60.8864 182.799 60.7052 182.48 60.3387C182.16 59.9722 182.002 59.4441 182.002 58.7505C182.002 57.8835 182.196 57.2136 182.582 56.7367C182.968 56.2599 183.513 56.0234 184.21 56.0234C184.841 56.0234 185.314 56.2047 185.63 56.5712C185.949 56.9377 186.107 57.4658 186.107 58.1594C186.107 59.0264 185.914 59.6963 185.527 60.1731C185.141 60.65 184.601 60.8864 183.899 60.8864H183.903ZM184.104 60.0786C184.333 60.0786 184.502 59.9761 184.613 59.7751C184.723 59.5741 184.778 59.184 184.778 58.6007C184.778 57.9663 184.715 57.5131 184.593 57.2412C184.471 56.9692 184.277 56.8352 184.013 56.8352C183.785 56.8352 183.615 56.9377 183.505 57.1387C183.394 57.3397 183.339 57.7298 183.339 58.3131C183.339 58.9475 183.402 59.4007 183.52 59.6727C183.643 59.9446 183.836 60.0786 184.1 60.0786H184.104Z" fill="#006F43"/>
<path d="M187.98 56.6145C188.287 56.4017 188.583 56.252 188.863 56.1613C189.147 56.0707 189.384 56.0273 189.573 56.0273C189.971 56.0273 190.263 56.1259 190.456 56.319C190.649 56.5121 190.744 56.9022 190.744 57.4894C190.744 59.0263 190.771 59.8539 190.819 59.9761C190.87 60.0982 190.976 60.1534 191.146 60.1534C191.189 60.2637 191.209 60.382 191.209 60.5041C191.209 60.6184 191.178 60.6933 191.111 60.7327C191.044 60.7721 190.917 60.7918 190.732 60.7918C190.279 60.7918 189.987 60.7839 189.869 60.7682C189.746 60.7524 189.663 60.7012 189.62 60.6145C189.573 60.5278 189.553 60.382 189.553 60.181V58.5258C189.553 57.8874 189.502 57.4618 189.395 57.2451C189.289 57.0283 189.119 56.918 188.883 56.918C188.682 56.918 188.524 56.981 188.41 57.1111C188.295 57.2411 188.236 57.513 188.236 57.9229V58.8648C188.236 59.2588 188.244 59.6844 188.256 60.1455H188.757C188.804 60.248 188.828 60.3623 188.828 60.4923C188.828 60.6027 188.808 60.6775 188.765 60.7209C188.725 60.7642 188.646 60.7879 188.528 60.7879H186.541C186.489 60.6578 186.466 60.5317 186.466 60.4174C186.466 60.3189 186.486 60.2519 186.525 60.2086C186.564 60.1652 186.627 60.1455 186.714 60.1455H187.022C187.034 59.6293 187.041 59.0973 187.041 58.5495C187.041 57.6746 187.006 57.1584 186.931 57.0007C186.856 56.8431 186.726 56.7603 186.541 56.7603C186.489 56.6342 186.466 56.5121 186.466 56.386C186.466 56.2756 186.505 56.2007 186.576 56.1653C186.651 56.1298 187.116 56.0983 187.972 56.0707C187.988 56.2007 187.988 56.382 187.972 56.6106L187.98 56.6145Z" fill="#006F43"/>
<path d="M196.142 60.4331C195.929 60.5513 195.689 60.6577 195.42 60.7484C195.152 60.839 194.896 60.8863 194.655 60.8863C194.249 60.8863 193.95 60.7799 193.76 60.571C193.571 60.3622 193.477 60.0666 193.477 59.6883C193.477 59.1602 193.638 58.7701 193.965 58.5139C194.293 58.2578 194.805 58.1317 195.511 58.1317H195.968C195.945 57.6509 195.87 57.3238 195.756 57.1464C195.637 56.9691 195.46 56.8824 195.223 56.8824C195.093 56.8824 194.955 56.9021 194.801 56.9376C194.703 57.1425 194.644 57.2528 194.628 57.2647C194.608 57.2765 194.514 57.3041 194.336 57.3474C194.159 57.3908 194.036 57.3789 193.962 57.3041C193.891 57.2331 193.816 57.107 193.741 56.9258C193.666 56.7445 193.63 56.5908 193.63 56.4647C193.63 56.3859 193.658 56.3267 193.717 56.2834C193.776 56.24 193.989 56.1928 194.356 56.1415C194.723 56.0903 195.117 56.0667 195.535 56.0667C196.028 56.0667 196.418 56.1612 196.698 56.3504C196.978 56.5396 197.12 56.906 197.12 57.4499V58.6912C197.12 59.3809 197.147 59.8065 197.203 59.9641C197.254 60.1218 197.352 60.1848 197.49 60.1494C197.534 60.2361 197.554 60.3228 197.554 60.4055C197.554 60.5474 197.479 60.6538 197.329 60.7247C197.179 60.7996 196.974 60.8351 196.718 60.8351C196.607 60.8351 196.517 60.8193 196.453 60.7878C196.39 60.7562 196.288 60.638 196.15 60.4252L196.142 60.4331ZM195.968 58.8765C195.767 58.8292 195.562 58.8055 195.353 58.8055C195.117 58.8055 194.947 58.8489 194.845 58.9356C194.742 59.0223 194.691 59.1878 194.691 59.4321C194.691 59.6449 194.742 59.8026 194.841 59.9129C194.943 60.0193 195.085 60.0745 195.278 60.0745C195.432 60.0745 195.566 60.039 195.681 59.9681C195.795 59.8971 195.874 59.7947 195.913 59.6607C195.949 59.5267 195.968 59.3572 195.968 59.1444V58.8765Z" fill="#006F43"/>
<path d="M199.429 56.6145C199.737 56.4017 200.032 56.252 200.312 56.1613C200.596 56.0707 200.833 56.0273 201.022 56.0273C201.42 56.0273 201.712 56.1259 201.905 56.319C202.098 56.5121 202.193 56.9022 202.193 57.4894C202.193 59.0263 202.221 59.8539 202.268 59.9761C202.319 60.0982 202.426 60.1534 202.595 60.1534C202.639 60.2637 202.658 60.382 202.658 60.5041C202.658 60.6184 202.627 60.6933 202.56 60.7327C202.493 60.7721 202.367 60.7918 202.181 60.7918C201.728 60.7918 201.436 60.7839 201.318 60.7682C201.196 60.7524 201.113 60.7012 201.069 60.6145C201.022 60.5278 201.002 60.382 201.002 60.181V58.5258C201.002 57.8874 200.951 57.4618 200.845 57.2451C200.738 57.0283 200.569 56.918 200.332 56.918C200.131 56.918 199.973 56.981 199.859 57.1111C199.745 57.2411 199.685 57.513 199.685 57.9229V58.8648C199.685 59.2588 199.693 59.6844 199.705 60.1455H200.206C200.253 60.248 200.277 60.3623 200.277 60.4923C200.277 60.6027 200.257 60.6775 200.214 60.7209C200.17 60.7642 200.095 60.7879 199.977 60.7879H197.99C197.939 60.6578 197.915 60.5317 197.915 60.4174C197.915 60.3189 197.935 60.2519 197.974 60.2086C198.014 60.1652 198.077 60.1455 198.163 60.1455H198.471C198.483 59.6293 198.491 59.0973 198.491 58.5495C198.491 57.6746 198.455 57.1584 198.38 57.0007C198.305 56.8431 198.175 56.7603 197.99 56.7603C197.939 56.6342 197.915 56.5121 197.915 56.386C197.915 56.2756 197.954 56.2007 198.025 56.1653C198.1 56.1298 198.566 56.0983 199.421 56.0707C199.437 56.2007 199.437 56.382 199.421 56.6106L199.429 56.6145Z" fill="#006F43"/>
<path d="M205.952 60.4344C205.652 60.6078 205.392 60.73 205.171 60.793C204.95 60.8561 204.725 60.8876 204.505 60.8876C204.027 60.8876 203.657 60.73 203.401 60.4108C203.144 60.0955 203.014 59.5438 203.014 58.7635C203.014 57.8335 203.211 57.1438 203.602 56.6946C203.992 56.2453 204.528 56.0207 205.202 56.0207C205.325 56.0207 205.423 56.0207 205.498 56.0286C205.569 56.0364 205.652 56.0443 205.739 56.0522C205.739 55.93 205.735 55.7764 205.723 55.5951C205.711 55.4099 205.691 55.2522 205.66 55.1182C205.628 54.9842 205.577 54.9015 205.498 54.8621C205.419 54.8227 205.321 54.803 205.195 54.803C205.143 54.6729 205.12 54.5468 205.12 54.4168C205.12 54.2867 205.163 54.204 205.254 54.1645C205.34 54.1291 205.624 54.1094 206.101 54.1094C206.401 54.1094 206.602 54.1212 206.713 54.1488C206.823 54.1764 206.886 54.2237 206.902 54.2946C206.918 54.3655 206.925 54.468 206.925 54.598V57.9202C206.925 59.0118 206.953 59.662 207.008 59.8709C207.06 60.0797 207.15 60.1664 207.272 60.1389C207.328 60.2295 207.355 60.3201 207.355 60.4108C207.355 60.5251 207.233 60.6315 206.993 60.73C206.748 60.8285 206.555 60.8758 206.413 60.8758C206.326 60.8758 206.255 60.8521 206.2 60.8009C206.145 60.7497 206.066 60.6236 205.959 60.4226L205.952 60.4344ZM205.08 56.8364C204.84 56.8364 204.658 56.935 204.532 57.1359C204.406 57.3369 204.343 57.7704 204.343 58.4443C204.343 58.9921 204.398 59.4019 204.509 59.6738C204.619 59.9418 204.8 60.0797 205.057 60.0797C205.214 60.0797 205.344 60.0443 205.455 59.9733C205.565 59.9024 205.636 59.8118 205.676 59.6975C205.715 59.5832 205.731 59.327 205.731 58.933V57.0414C205.64 56.9862 205.538 56.9389 205.427 56.8995C205.317 56.8601 205.202 56.8404 205.076 56.8404L205.08 56.8364Z" fill="#006F43"/>
<path d="M212.063 54.3086C212.784 54.3086 213.265 54.3559 213.502 54.4505C213.734 54.5451 213.853 54.7264 213.853 54.9983C213.853 55.2702 213.766 55.4909 213.596 55.6958C212.946 55.3727 212.382 55.2071 211.905 55.2071C211.585 55.2071 211.365 55.2663 211.242 55.3884C211.12 55.5106 211.057 55.6879 211.057 55.9165C211.057 56.1923 211.136 56.3973 211.29 56.5313C211.444 56.6652 211.755 56.8111 212.228 56.9608C212.82 57.1342 213.273 57.351 213.592 57.611C213.912 57.8751 214.077 58.3007 214.093 58.8958C214.093 59.5696 213.876 60.0701 213.439 60.3972C213.001 60.7243 212.362 60.8859 211.526 60.8859C210.919 60.8859 210.47 60.8347 210.182 60.7361C209.894 60.6376 209.748 60.4366 209.748 60.1411C209.748 59.881 209.847 59.6445 210.044 59.4435C210.686 59.8061 211.29 59.9874 211.854 59.9874C212.22 59.9874 212.48 59.9322 212.626 59.8258C212.772 59.7194 212.847 59.5381 212.847 59.2898C212.847 58.9982 212.733 58.7697 212.504 58.6041C212.275 58.4426 211.901 58.2771 211.38 58.1115C210.824 57.946 210.422 57.7175 210.182 57.4219C209.937 57.1303 209.819 56.7519 209.819 56.2948C209.819 55.6682 210.02 55.1796 210.418 54.8288C210.821 54.4781 211.373 54.3047 212.074 54.3047L212.063 54.3086Z" fill="#006F43"/>
<path d="M216.75 56.0273C217.334 56.0273 217.76 56.1732 218.024 56.4687C218.288 56.7643 218.422 57.2293 218.422 57.8677C218.422 58.183 218.367 58.4076 218.253 58.5416C218.138 58.6756 217.894 58.7426 217.515 58.7426H215.946C215.954 59.1524 216.037 59.4716 216.195 59.7041C216.352 59.9367 216.628 60.0549 217.026 60.0549C217.425 60.0549 217.815 59.9288 218.225 59.6805C218.371 59.8381 218.442 60.0115 218.442 60.1968C218.442 60.449 218.276 60.6224 217.945 60.7209C217.614 60.8194 217.228 60.8706 216.786 60.8706C216.021 60.8706 215.465 60.6972 215.118 60.3544C214.771 60.0115 214.598 59.4441 214.598 58.6559C214.598 57.8677 214.791 57.1899 215.181 56.7288C215.572 56.2638 216.092 56.0313 216.75 56.0313V56.0273ZM216.581 56.8352C216.372 56.8352 216.214 56.9298 216.104 57.115C215.993 57.3042 215.938 57.6273 215.934 58.0963H216.159C216.471 58.0963 216.707 58.0845 216.873 58.0648C217.038 58.0451 217.133 58.0096 217.161 57.9623C217.188 57.915 217.204 57.8322 217.204 57.7219C217.204 57.4421 217.149 57.2214 217.038 57.0677C216.928 56.914 216.774 56.8352 216.581 56.8352Z" fill="#006F43"/>
<path d="M218.849 56.3899C218.849 56.2796 218.889 56.2047 218.96 56.1692C219.034 56.1337 219.5 56.1022 220.355 56.0746C220.371 56.2047 220.371 56.386 220.355 56.6185C220.71 56.386 221.03 56.2323 221.317 56.1495C221.605 56.0668 221.858 56.0273 222.078 56.0273C222.181 56.0273 222.248 56.0392 222.279 56.0668C222.315 56.0943 222.331 56.1535 222.331 56.252C222.331 56.4254 222.307 56.6027 222.26 56.7879C222.212 56.9731 222.157 57.0953 222.086 57.1465C222.019 57.1978 221.909 57.2372 221.759 57.2648C221.609 57.2884 221.522 57.2963 221.499 57.2845C221.475 57.2726 221.396 57.1663 221.262 56.9692C221.053 56.9692 220.895 57.052 220.785 57.2214C220.675 57.3869 220.619 57.8204 220.619 58.5101C220.619 59.1445 220.627 59.6923 220.639 60.1495H221.302C221.353 60.2519 221.377 60.3662 221.377 60.4963C221.377 60.6066 221.357 60.6815 221.313 60.7248C221.27 60.7682 221.191 60.7918 221.077 60.7918H218.924C218.873 60.6618 218.849 60.5357 218.849 60.4214C218.849 60.3229 218.869 60.2559 218.908 60.2125C218.948 60.1692 219.011 60.1495 219.098 60.1495H219.405C219.417 59.6884 219.425 59.1564 219.425 58.5534C219.425 57.6786 219.389 57.1623 219.314 57.0047C219.239 56.847 219.109 56.7643 218.924 56.7643C218.873 56.6382 218.849 56.516 218.849 56.3899Z" fill="#006F43"/>
<path d="M225.646 56.8545H225.417C225.37 56.7441 225.346 56.6298 225.346 56.5077C225.346 56.3855 225.366 56.2988 225.41 56.2436C225.453 56.1885 225.52 56.1609 225.619 56.1609H226.896C226.947 56.2673 226.971 56.3816 226.971 56.4998C226.971 56.6377 226.947 56.7323 226.9 56.7796C226.853 56.8308 226.77 56.8545 226.648 56.8545H226.62C226.525 57.087 226.309 57.7412 225.977 58.8131C225.642 59.885 225.417 60.4997 225.299 60.6534C225.181 60.8071 224.98 60.8859 224.688 60.8859C224.235 60.8859 223.99 60.8623 223.955 60.8111C223.923 60.7598 223.769 60.2475 223.501 59.2781C223.233 58.3047 223.067 57.7096 222.997 57.4889C222.929 57.2683 222.874 57.1067 222.831 57.0003C222.788 56.8978 222.74 56.8308 222.685 56.8032C222.63 56.7757 222.531 56.7638 222.397 56.7638C222.346 56.622 222.322 56.488 222.322 56.3697C222.322 56.2515 222.374 56.1766 222.476 56.1372C222.579 56.0978 222.902 56.0781 223.446 56.0781C223.655 56.0781 223.801 56.0978 223.888 56.1333C223.974 56.1688 224.033 56.2397 224.073 56.3382C224.112 56.4367 224.156 56.6653 224.211 57.0279C224.262 57.3904 224.38 57.95 224.562 58.7067C224.743 59.4633 224.854 59.8416 224.889 59.8416C224.925 59.8416 225.051 59.4121 225.268 58.5569C225.481 57.7018 225.607 57.1343 225.638 56.8584L225.646 56.8545Z" fill="#006F43"/>
<path d="M228.955 60.1543H229.451C229.499 60.2568 229.522 60.3711 229.522 60.5011C229.522 60.6115 229.503 60.6864 229.459 60.7297C229.42 60.7731 229.341 60.7967 229.223 60.7967H227.196C227.149 60.6667 227.125 60.5405 227.125 60.4263C227.125 60.3277 227.145 60.2607 227.184 60.2174C227.224 60.174 227.287 60.1543 227.373 60.1543H227.716C227.732 59.7563 227.74 59.3268 227.74 58.8736C227.74 58.1839 227.736 57.7268 227.724 57.4982C227.716 57.2736 227.693 57.1081 227.657 57.0017C227.626 56.8992 227.571 56.8322 227.5 56.8046C227.429 56.777 227.326 56.7652 227.192 56.7652C227.145 56.6785 227.121 56.5761 227.121 56.4618C227.121 56.2884 227.184 56.178 227.314 56.1386C227.444 56.0992 227.709 56.0795 228.103 56.0795C228.403 56.0795 228.604 56.0913 228.71 56.115C228.82 56.1386 228.88 56.1899 228.895 56.2608C228.911 56.3357 228.919 56.4381 228.919 56.5682V58.8736C228.919 59.3268 228.931 59.7524 228.947 60.1543H228.955ZM228.182 55.4687C227.929 55.4687 227.744 55.4135 227.634 55.3071C227.523 55.2007 227.464 55.047 227.464 54.85C227.464 54.6529 227.535 54.4756 227.677 54.3416C227.819 54.2076 228.024 54.1406 228.288 54.1406C228.552 54.1406 228.749 54.1958 228.864 54.3101C228.978 54.4244 229.033 54.5741 229.033 54.7554C229.033 54.9603 228.966 55.1258 228.832 55.2598C228.698 55.3938 228.481 55.4608 228.182 55.4608V55.4687Z" fill="#006F43"/>
<path d="M231.86 60.8864C231.084 60.8864 230.535 60.7249 230.228 60.4056C229.92 60.0864 229.763 59.5347 229.763 58.7584C229.763 57.8835 229.964 57.2096 230.366 56.7367C230.768 56.2638 231.371 56.0234 232.176 56.0234C232.598 56.0234 232.889 56.0628 233.051 56.1456C233.213 56.2284 233.296 56.3623 233.303 56.5515C233.303 56.7958 233.236 57.0165 233.094 57.2175C232.629 56.9614 232.251 56.8352 231.955 56.8352C231.659 56.8352 231.446 56.9495 231.308 57.1781C231.17 57.4067 231.099 57.8126 231.099 58.3879C231.099 58.9633 231.166 59.385 231.304 59.6608C231.442 59.9367 231.691 60.0746 232.05 60.0746C232.341 60.0746 232.716 59.9525 233.177 59.7121C233.296 59.8933 233.355 60.0825 233.355 60.2835C233.355 60.4845 233.205 60.6382 232.909 60.7367C232.609 60.8352 232.262 60.8864 231.86 60.8864Z" fill="#006F43"/>
<path d="M235.838 56.0273C236.422 56.0273 236.848 56.1732 237.112 56.4687C237.376 56.7643 237.51 57.2293 237.51 57.8677C237.51 58.183 237.455 58.4076 237.341 58.5416C237.226 58.6756 236.982 58.7426 236.603 58.7426H235.034C235.042 59.1524 235.125 59.4716 235.282 59.7041C235.44 59.9367 235.716 60.0549 236.114 60.0549C236.513 60.0549 236.903 59.9288 237.313 59.6805C237.459 59.8381 237.53 60.0115 237.53 60.1968C237.53 60.449 237.364 60.6224 237.033 60.7209C236.702 60.8194 236.315 60.8706 235.874 60.8706C235.109 60.8706 234.553 60.6972 234.206 60.3544C233.859 60.0115 233.686 59.4441 233.686 58.6559C233.686 57.8677 233.879 57.1899 234.269 56.7288C234.659 56.2638 235.18 56.0313 235.838 56.0313V56.0273ZM235.673 56.8352C235.464 56.8352 235.306 56.9298 235.196 57.115C235.085 57.3042 235.03 57.6273 235.026 58.0963H235.251C235.562 58.0963 235.799 58.0845 235.965 58.0648C236.13 58.0451 236.225 58.0096 236.252 57.9623C236.28 57.915 236.296 57.8322 236.296 57.7219C236.296 57.4421 236.241 57.2214 236.13 57.0677C236.02 56.914 235.866 56.8352 235.673 56.8352Z" fill="#006F43"/>
<path d="M240.014 56.0273C240.44 56.0273 240.767 56.0707 240.996 56.1613C241.229 56.252 241.343 56.4017 241.343 56.6106C241.343 56.8313 241.264 57.0559 241.103 57.2845C240.495 56.9889 240.03 56.8392 239.707 56.8392C239.533 56.8392 239.407 56.8746 239.324 56.9456C239.241 57.0165 239.198 57.119 239.198 57.2529C239.198 57.3869 239.253 57.513 239.364 57.6194C239.474 57.7219 239.73 57.852 240.133 58.0135C240.602 58.1909 240.937 58.3879 241.134 58.6007C241.331 58.8135 241.43 59.0933 241.43 59.4401C241.43 59.9091 241.256 60.2677 240.913 60.516C240.57 60.7642 240.101 60.8903 239.514 60.8903C238.969 60.8903 238.583 60.847 238.354 60.7642C238.126 60.6815 238.007 60.512 238.003 60.2519C238.003 60.0588 238.07 59.8697 238.208 59.6805C238.768 59.9445 239.265 60.0785 239.699 60.0785C239.876 60.0785 240.014 60.047 240.113 59.98C240.211 59.913 240.259 59.8066 240.259 59.6529C240.259 59.4756 240.172 59.3337 239.999 59.2273C239.825 59.1209 239.549 58.9869 239.167 58.8253C238.757 58.6519 238.461 58.4628 238.287 58.2618C238.11 58.0608 238.023 57.8007 238.023 57.4855C238.023 57.0401 238.201 56.6894 238.548 56.4254C238.898 56.1613 239.383 56.0313 240.006 56.0313L240.014 56.0273Z" fill="#006F43"/>
<path d="M0 23.7344C0 23.7344 4.29774 28.4752 7.45599 36.7116C9.65612 42.4494 10.8784 50.0237 11.1386 52.936C11.4028 55.8483 12.014 60.0058 12.014 60.0058L14.1195 47.2769C14.1195 47.2769 14.293 43.1154 11.7498 37.4603C9.88481 33.3106 7.01439 29.89 5.34655 28.0614C3.67871 26.2329 1.57715 24.8142 0 23.7344Z" fill="#006F43"/>
<path d="M19.9982 38.043C19.9982 38.043 16.1381 42.035 14.7344 45.2823C13.3307 48.5295 11.9271 52.7699 11.8403 56.5964C11.7536 60.423 12.9798 64.9983 12.9798 64.9983L18.2436 62.8348C18.2436 62.8348 16.7532 58.4683 16.6664 54.3502C16.5757 50.0704 17.2736 46.2793 17.8493 43.4104C18.5511 39.9149 19.9982 38.043 19.9982 38.043Z" fill="#2A9942"/>
<path d="M17.8726 40.4548C17.8726 40.4548 23.5069 32.3919 29.4725 26.9062C38.2218 18.8591 42.8507 16.0374 46.6635 14C46.3993 15.8285 46.3993 18.0748 44.4713 21.7359C42.9178 24.6797 41.313 27.4777 36.5776 31.387C32.2838 34.9298 28.9481 36.045 24.7371 37.7948C21.3817 39.1859 17.8726 40.4588 17.8726 40.4588V40.4548Z" fill="#006F43"/>
<path d="M22.6521 29.3068C22.6521 29.3068 16.3356 26.3315 11.959 23.0566C5.54 18.2488 3.23342 15.6479 1.5498 13.4883C2.94559 13.5671 4.64891 13.4725 7.49173 14.4498C9.7786 15.238 11.959 16.0656 15.0936 18.6862C17.9364 21.0626 18.9024 22.9778 20.381 25.3817C21.5599 27.297 22.6482 29.3068 22.6482 29.3068H22.6521Z" fill="#73C3D5"/>
<path d="M24.8753 25.928C24.8753 25.928 19.1739 21.9912 15.44 18.0661C9.96329 12.3046 8.14956 9.37259 6.87207 6.97656C8.23631 7.27607 9.93175 7.4534 12.5617 8.87211C14.679 10.0149 16.678 11.1736 19.3079 14.2592C21.6894 17.0533 22.3045 19.0986 23.3376 21.6995C24.1616 23.7764 24.8792 25.932 24.8792 25.932L24.8753 25.928Z" fill="#73C3D5"/>
<path d="M27.7257 24.756C27.7257 24.756 23.3964 19.4792 20.9479 14.7265C17.3598 7.75518 16.4766 4.46064 15.9443 1.82422C17.1666 2.46658 18.7438 3.08135 20.8611 5.13846C22.5605 6.78967 24.1455 8.42906 25.7739 12.0822C27.2486 15.3925 27.2446 17.5166 27.4773 20.291C27.6626 22.5018 27.7257 24.7599 27.7257 24.7599V24.756Z" fill="#73C3D5"/>
<path d="M30.4904 22.9357C30.4904 22.9357 27.762 17.3357 26.6146 12.5831C24.931 5.60781 24.86 2.47485 24.9665 0C25.9246 0.819694 27.206 1.68668 28.6531 3.94872C29.8162 5.76939 30.8769 7.55853 31.5353 11.1605C32.1307 14.4274 31.6575 16.3348 31.2554 18.8687C30.936 20.8904 30.4944 22.9317 30.4944 22.9317L30.4904 22.9357Z" fill="#73C3D5"/>
<path d="M33.1014 21.3439C33.1014 21.3439 32.1551 15.9213 32.3562 11.5825C32.6479 5.21407 33.3695 2.50672 34.0792 0.40625C34.6943 1.32447 35.5814 2.35696 36.2596 4.62689C36.8037 6.45149 37.269 8.22487 36.9378 11.4682C36.6342 14.408 35.751 15.9371 34.7732 18.0257C33.9925 19.6888 33.1053 21.3439 33.1053 21.3439H33.1014Z" fill="#73C3D5"/>
<path d="M21.9271 30.8046C21.9271 30.8046 17.586 30.6391 14.2543 29.8352C9.36903 28.6608 7.38182 27.7465 5.85986 26.9347C6.66815 26.647 7.59868 26.1859 9.45972 26.0598C10.9541 25.9574 12.4011 25.9022 14.8615 26.6313C17.0892 27.2894 18.1419 28.1367 19.6126 29.1376C20.7837 29.9337 21.9311 30.8046 21.9311 30.8046H21.9271Z" fill="#73C3D5"/>
<path d="M29.3505 46.7882C29.2283 46.7882 29.1021 46.7803 28.968 46.7685C28.8261 46.7566 28.7039 46.7291 28.6053 46.6857C28.4515 46.6266 28.2307 46.5202 27.9547 46.3744C27.6708 46.2246 27.3948 46.0473 27.1346 45.8424L27.0479 45.7754L27.6275 44.6641L27.7694 44.7074C28.144 44.8887 28.4712 45.0148 28.7393 45.0818C29.0075 45.1488 29.2322 45.1843 29.4057 45.1843H32.6546L32.7059 45.2788C32.7374 45.3576 32.7532 45.4601 32.7532 45.598C32.7532 45.7202 32.7453 45.8503 32.7256 45.9882C32.7059 46.1301 32.6783 46.2601 32.6428 46.3862C32.6073 46.5163 32.5679 46.6227 32.5285 46.7015L32.4851 46.7842H29.3544L29.3505 46.7882Z" fill="#006F43"/>
<path d="M27.9591 46.3626C28.2391 46.5123 28.4599 46.6148 28.6097 46.6739C28.7043 46.7133 28.8265 46.7409 28.9685 46.7566C29.1025 46.7685 29.2287 46.7764 29.3509 46.7764H32.4737L32.5131 46.6975C32.5526 46.6187 32.592 46.5123 32.6275 46.3823C32.663 46.2562 32.6906 46.1261 32.7103 45.9842C32.73 45.8503 32.7379 45.7202 32.7379 45.598C32.7379 45.4601 32.7221 45.3576 32.6945 45.2828L32.6511 45.1921H29.4022C29.2287 45.1921 29.004 45.1567 28.7359 45.0897C28.4677 45.0227 28.1405 44.8966 27.762 44.7153L27.6358 44.6641L27.0522 45.7636L27.139 45.8306C27.3992 46.0315 27.6752 46.2128 27.9552 46.3626H27.9591Z" fill="#006F43"/>
<path d="M30.3683 55.2011C29.8084 55.2011 29.2761 55.138 28.7872 55.0119C28.2943 54.8858 27.8606 54.6966 27.4939 54.4444C27.1272 54.1922 26.8315 53.873 26.6226 53.4986C26.4136 53.1203 26.3071 52.675 26.3071 52.1706C26.3071 51.6661 26.4136 51.2366 26.6265 50.8661C26.8355 50.4996 27.1272 50.1844 27.4979 49.9282C27.8606 49.6799 28.2904 49.4947 28.7754 49.3726C29.2525 49.2543 29.7808 49.1913 30.3368 49.1913C30.8927 49.1913 31.4053 49.2504 31.8903 49.3726C32.3792 49.4947 32.8129 49.6799 33.1677 49.9322C33.5305 50.1844 33.8223 50.5036 34.0312 50.878C34.2402 51.2563 34.3467 51.6977 34.3467 52.1903C34.3467 52.6829 34.2363 53.1242 34.0194 53.5026C33.8025 53.8769 33.5108 54.1961 33.148 54.4444C32.7932 54.6927 32.3673 54.8819 31.8903 55.0119C31.4171 55.138 30.9045 55.2011 30.3683 55.2011ZM30.3604 50.677C29.765 50.677 29.2761 50.8031 28.9015 51.0553C28.5427 51.2957 28.3653 51.6622 28.3653 52.1745C28.3653 52.6868 28.5467 53.0257 28.9213 53.2858C29.3077 53.5538 29.8045 53.6878 30.3998 53.6878C30.9558 53.6878 31.425 53.5538 31.7956 53.2858C32.1544 53.0257 32.3279 52.671 32.3279 52.1903C32.3279 51.678 32.1544 51.3075 31.7996 51.0632C31.4329 50.807 30.9479 50.677 30.3683 50.677H30.3604Z" fill="#006F43"/>
<path d="M30.3672 55.1892C30.9035 55.1892 31.4121 55.1261 31.8853 55C32.3623 54.8739 32.7842 54.6848 33.1391 54.4365C33.4979 54.1882 33.7897 53.869 34.0065 53.4986C34.2234 53.1242 34.3298 52.6828 34.3298 52.1902C34.3298 51.6976 34.2234 51.2602 34.0144 50.8858C33.8054 50.5114 33.5176 50.1961 33.1549 49.9439C32.7961 49.6957 32.3663 49.5065 31.8813 49.3883C31.4003 49.27 30.8759 49.2109 30.3318 49.2109C29.7876 49.2109 29.2475 49.27 28.7704 49.3883C28.2854 49.5104 27.8596 49.6957 27.4968 49.9439C27.1301 50.1961 26.8384 50.5075 26.6294 50.8779C26.4204 51.2484 26.314 51.6858 26.314 52.1744C26.314 52.6631 26.4204 53.1202 26.6294 53.4946C26.8384 53.869 27.1301 54.1843 27.4968 54.4365C27.8596 54.6848 28.2933 54.8739 28.7862 55C29.2751 55.1261 29.8034 55.1892 30.3672 55.1892ZM28.3485 52.1744C28.3485 51.6582 28.5259 51.2917 28.8887 51.0474C29.2672 50.7952 29.76 50.669 30.3554 50.669C30.9508 50.669 31.4239 50.7991 31.7946 51.0552C32.1534 51.3035 32.3269 51.6779 32.3269 52.1942C32.3269 52.6749 32.1534 53.0375 31.7906 53.2976C31.42 53.5656 30.9508 53.6995 30.387 53.6995C29.7916 53.6995 29.2908 53.5616 28.9044 53.2936C28.5299 53.0335 28.3446 52.6671 28.3446 52.1744H28.3485Z" fill="#006F43"/>
<path d="M30.5099 60.8663C30.1078 60.7757 29.816 60.6456 29.6228 60.4643C29.4296 60.287 29.2877 60.0033 29.2009 59.6249V57.8713C29.2009 57.7846 29.193 57.6939 29.1812 57.5994C29.1733 57.5324 29.1496 57.4811 29.1023 57.4338C29.0392 57.3787 28.9367 57.3156 28.8145 57.2526C28.6844 57.1856 28.4754 57.1146 28.1876 57.0358L28.089 57.0082L28.0732 56.09L31.2354 56.0703L31.2551 59.2387C31.2551 59.2782 31.2552 59.3057 31.263 59.3294L31.3301 59.3136H38.9359L38.9556 59.4673C38.9556 59.9284 38.8886 60.3619 38.7545 60.7638L38.719 60.8663H30.5021H30.5099Z" fill="#006F43"/>
<path d="M31.3348 59.3253H31.256C31.256 59.3253 31.2481 59.2899 31.2481 59.2386L31.2402 56.082L28.0898 56.0899L28.0977 56.9963L28.1963 57.0239C28.4841 57.1027 28.697 57.1776 28.8272 57.2406C28.9533 57.3037 29.0559 57.3667 29.1189 57.4259C29.1663 57.4731 29.1939 57.5283 29.2017 57.5953C29.2136 57.6899 29.2175 57.7805 29.2175 57.8672V59.617C29.3082 59.9953 29.4501 60.2751 29.6394 60.4524C29.8287 60.6298 30.1165 60.7598 30.5147 60.8504H38.7199L38.7514 60.7559C38.8855 60.3578 38.9525 59.9243 38.9525 59.4672L38.9446 59.3253H31.3388H31.3348Z" fill="#006F43"/>
<path d="M25.0885 48.5294L25.0728 47.4299L35.2099 47.4102L35.2375 47.552C35.2493 47.7688 35.2296 47.9934 35.1823 48.2259C35.1311 48.4545 35.0719 48.6673 35.0009 48.8604L34.9694 48.9471L28.2271 48.9628C28.1167 48.9747 27.9787 49.0023 27.8367 49.0377C27.6908 49.0771 27.5055 49.1559 27.2847 49.2781L27.2256 49.3096L25.0925 48.5294H25.0885Z" fill="#006F43"/>
<path d="M27.2777 49.2622C27.4985 49.14 27.6878 49.0612 27.8336 49.0218C27.9756 48.9863 28.1175 48.9587 28.2279 48.9469L34.9584 48.939L34.99 48.8523C35.0609 48.6592 35.124 48.4464 35.1713 48.2179C35.2187 47.9854 35.2384 47.7607 35.2265 47.5479L35.2108 47.4139L25.0854 47.4218L25.0933 48.5095L27.2225 49.2858L27.2777 49.2543V49.2622Z" fill="#006F43"/>
<path d="M51.9906 61.1274L51.9709 56.2841L47.1606 56.3038C46.9674 56.3038 46.8136 56.3077 46.7032 56.3195C46.5691 56.3392 46.4154 56.3787 46.2655 56.4338C46.1157 56.489 45.9462 56.5796 45.7609 56.7136L45.6978 56.757L43.5647 55.8191L43.5528 54.7747L48.0122 54.7511L47.9925 52.3708L44.9329 52.3905C44.787 52.4023 44.6056 52.4378 44.4006 52.489C44.2034 52.5442 44.0102 52.6349 43.8249 52.7649L43.7697 52.8043L41.1083 51.823L41.0964 51.5748V51.6536C41.057 51.7876 41.0215 51.8822 40.9821 51.957L40.9427 52.028L38.3798 52.0398L38.3995 56.824L36.361 56.8437L36.3413 46.0655C36.3413 45.9197 36.3295 45.8724 36.3255 45.8566C36.3255 45.8566 36.3058 45.829 36.2191 45.7739C36.1678 45.7345 36.0377 45.6872 35.8327 45.6359C35.6119 45.5808 35.4029 45.5374 35.2136 45.5177L35.0993 45.5059L35.0796 44.4103L38.3798 44.3906L38.3995 50.3925L41.2384 50.3728L41.2581 50.5265C41.2581 50.6014 41.2502 50.6763 41.2423 50.7511L41.2305 50.8694L41.9126 50.8575L51.1311 50.8497C51.3322 50.1797 51.4978 49.4822 51.6082 48.7847C51.7225 48.0832 51.8092 47.3738 51.8684 46.6763L51.4386 46.6881L47.2276 46.696C47.0344 46.696 46.8806 46.7 46.7702 46.7118C46.6362 46.7315 46.4864 46.7709 46.3326 46.8261C46.1827 46.8812 46.0132 46.9719 45.8239 47.1059L45.7609 47.1492L43.6278 46.2074L43.6159 45.163H43.6356L43.679 45.1512L53.2918 45.1433C53.7215 45.1433 53.9778 45.368 54.0054 45.7778C53.9699 46.2625 53.9187 46.7394 53.8477 47.2399C53.7767 47.7325 53.6861 48.2093 53.5835 48.6625C53.4771 49.1196 53.3627 49.5571 53.2484 49.959C53.1538 50.2901 53.0552 50.5935 52.9606 50.8694L53.8714 50.8536L56.6432 50.8457L56.6748 50.9876C56.6866 51.1649 56.6748 51.3856 56.6274 51.6457C56.5841 51.9097 56.5328 52.1225 56.4697 52.2959L56.4382 52.3826L50.0704 52.3984L50.0901 54.7787L53.9975 54.755L54.0173 61.1274H51.9788H51.9906Z" fill="#006F43"/>
<path d="M53.8747 50.8653H52.952C53.0467 50.5934 53.1452 50.286 53.2399 49.9589C53.3542 49.5569 53.4686 49.1234 53.575 48.6624C53.6815 48.2052 53.7682 47.7244 53.8392 47.2397C53.9102 46.7392 53.9654 46.2624 53.9969 45.7816C53.9693 45.3796 53.717 45.1589 53.2951 45.1589L43.6823 45.1668H43.639H43.6311V46.1993L45.7563 47.1412L45.8194 47.0978C46.0047 46.9678 46.1782 46.8732 46.328 46.818C46.4818 46.7629 46.6316 46.7235 46.7696 46.7038C46.8839 46.6919 47.0377 46.688 47.2309 46.688L51.4419 46.6801H51.8835C51.8244 47.3776 51.7376 48.087 51.6233 48.7885C51.5089 49.5018 51.3394 50.1993 51.1344 50.8613L41.9159 50.8692H41.222L41.2338 50.751C41.2417 50.6761 41.2496 50.6012 41.2496 50.5303L41.2417 50.3884L38.391 50.3963L38.3831 44.422V44.4141V44.4062L35.1105 44.4141H35.1026H35.0947L35.1026 45.4939L35.217 45.5057C35.4062 45.5294 35.6191 45.5688 35.8399 45.624C36.045 45.6752 36.1751 45.7225 36.2303 45.7658C36.3249 45.825 36.3407 45.8525 36.3407 45.8525C36.3407 45.8604 36.3564 45.8998 36.3564 46.0653L36.3643 56.8317L38.391 56.8238L38.3831 52.0436V52.0318H40.9341L40.9696 51.9569C41.013 51.8781 41.0445 51.7835 41.0761 51.681C41.0879 51.6495 41.0997 51.614 41.1076 51.5825V51.819L43.7651 52.8042L43.8203 52.7648C44.0056 52.6347 44.1988 52.5401 44.3999 52.4889C44.601 52.4337 44.7863 52.4022 44.9322 52.3904L47.9761 52.3825H47.9998L48.0077 54.7746L43.5601 54.7825V55.815L45.6853 56.7568L45.7484 56.7135C45.9337 56.5834 46.1072 56.4889 46.257 56.4337C46.4108 56.3785 46.5606 56.3391 46.6986 56.3194C46.813 56.3076 46.9667 56.3036 47.16 56.3036L51.9821 56.2958L51.99 61.1272H54.0166L54.0087 54.7785L50.0895 54.7864L50.0816 52.4061V52.3943L56.4376 52.3864L56.4691 52.2998C56.5322 52.1264 56.5795 51.9175 56.6229 51.6535C56.6662 51.3934 56.682 51.1727 56.6662 50.9993L56.6465 50.8692L53.8747 50.8771V50.8653Z" fill="#006F43"/>
<path d="M59.3483 56.1284C59.0604 55.959 58.8436 55.758 58.6622 55.49C58.4848 55.2299 58.3822 54.9619 58.3546 54.69V48.5384C58.3546 48.4477 58.3468 48.3453 58.3389 48.2271C58.331 48.1404 58.3034 48.0773 58.26 48.03C58.2285 47.9985 58.1969 47.967 58.1654 47.9433C58.1457 47.9236 58.1102 47.9078 58.0668 47.8881L57.85 47.8014C57.7672 47.7699 57.6568 47.7345 57.5109 47.7029L57.4084 47.6793L57.3926 46.7729L60.3971 46.7532L60.4168 49.9492L64.131 49.9295L64.1113 48.1719C64.1113 48.0812 64.1113 47.9709 64.1034 47.8448C64.0994 47.7542 64.0758 47.6911 64.0324 47.6478C63.9693 47.5926 63.8944 47.5453 63.8155 47.5138C63.7564 47.4862 63.6105 47.4349 63.2556 47.3364L63.161 47.3088L63.1452 46.4103L66.1142 46.3906L66.134 56.1284H59.3483ZM60.401 51.5689L60.4128 54.3432C60.4128 54.4615 60.4325 54.493 60.4325 54.493C60.4325 54.493 60.4601 54.5048 60.5232 54.5048H64.127L64.1073 51.5452L64.0363 51.5571L60.401 51.5649V51.5689Z" fill="#006F43"/>
<path d="M63.1811 46.4142H63.1654H63.1575L63.1654 47.3048L63.26 47.3324C63.6109 47.4309 63.7568 47.4822 63.8199 47.5098C63.8988 47.5452 63.9776 47.5925 64.0407 47.6477C64.0841 47.691 64.1077 47.758 64.1117 47.8526C64.1156 47.9787 64.1195 48.0891 64.1195 48.1797L64.1274 49.9294V49.9491L60.4014 49.957L60.3935 46.7728L57.4009 46.7807L57.4088 47.6753L57.5113 47.6989C57.6532 47.7304 57.7676 47.7659 57.8504 47.7974L58.0672 47.8841C58.1145 47.9038 58.1461 47.9235 58.1697 47.9393C58.2013 47.9669 58.2328 47.9945 58.2644 48.026C58.3117 48.0733 58.3393 48.1403 58.3472 48.227C58.359 48.3452 58.3629 48.4477 58.3629 48.5383V54.69C58.3905 54.9579 58.4931 55.2259 58.6665 55.4821C58.84 55.7382 59.0569 55.9431 59.3447 56.1126H66.1186L66.1107 46.3984L63.1772 46.4063L63.1811 46.4142ZM64.1314 54.5244H60.5276C60.4487 54.5244 60.429 54.5047 60.429 54.5047C60.429 54.5047 60.4054 54.4732 60.4054 54.3471V51.5609L64.0407 51.5531H64.1195L64.1274 54.4929V54.5244H64.1314Z" fill="#006F43"/>
<path d="M69.2013 60.8475L69.1894 60.7569L69.1815 46.0733C69.1815 45.9236 69.1697 45.8763 69.1658 45.8645C69.1658 45.8645 69.15 45.829 69.0593 45.7502C69.0357 45.7423 69.0002 45.7305 68.9331 45.7108C68.8464 45.6871 68.7518 45.6674 68.6414 45.6438C68.531 45.6201 68.4166 45.5965 68.2944 45.5728C68.1761 45.5492 68.0657 45.5334 67.9632 45.5216L67.8449 45.5098L67.8252 44.4142L71.2161 44.3945L71.2358 60.8475H69.1973H69.2013Z" fill="#006F43"/>
<path d="M67.8566 44.4141H67.8487H67.8408L67.8487 45.4979L67.967 45.5097C68.0695 45.5215 68.1799 45.5373 68.2982 45.5609C68.4204 45.5846 68.5348 45.6082 68.6452 45.6319C68.7556 45.6555 68.8502 45.6791 68.9369 45.6988C69.0079 45.7185 69.0473 45.7343 69.0671 45.7422C69.1656 45.825 69.1735 45.8604 69.1735 45.8604C69.1735 45.8683 69.1932 45.9117 69.1932 46.0732L69.2011 60.7568V60.8277V60.8356H71.2278L71.2199 44.4062L67.8605 44.4141H67.8566Z" fill="#006F43"/>
<path d="M78.6297 60.8624C78.2275 60.7718 77.9397 60.6417 77.7465 60.4604C77.5533 60.2831 77.4114 59.9994 77.3246 59.621V56.9728C77.3246 56.8861 77.3167 56.7955 77.3049 56.7009C77.297 56.6378 77.2694 56.5827 77.2261 56.5393C77.159 56.4841 77.0565 56.4211 76.9303 56.358C76.8002 56.295 76.5873 56.2201 76.2916 56.1413L76.193 56.1137L76.1772 55.1955L79.3552 55.1758L79.3749 59.2388C79.3749 59.2861 79.3749 59.3137 79.3828 59.3294L79.4498 59.3137H87.1779L87.1976 59.4674C87.1976 59.9284 87.1306 60.3619 86.9965 60.7599L86.961 60.8624H78.6218H78.6297Z" fill="#006F43"/>
<path d="M79.4531 59.3253H79.3743C79.3743 59.3253 79.3664 59.2859 79.3664 59.2386L79.3585 55.2111V55.1993V55.1914L76.1924 55.1993L76.2003 56.1057L76.2988 56.1333C76.5946 56.2121 76.8114 56.287 76.9376 56.35C77.0638 56.4131 77.1663 56.4761 77.2333 56.5352C77.2806 56.5825 77.3082 56.6377 77.3161 56.7047C77.3279 56.7993 77.3319 56.8899 77.3319 56.9766V59.6209C77.4226 59.9992 77.5645 60.279 77.7538 60.4564C77.943 60.6337 78.2309 60.7637 78.6291 60.8544H86.9604L86.9919 60.7598C87.126 60.3618 87.193 59.9283 87.193 59.4712L87.1851 59.3293H79.4571L79.4531 59.3253Z" fill="#006F43"/>
<path d="M84.9538 56.2171L84.9341 51.3896L84.8907 51.4014L81.5353 51.4093L81.4801 51.3304C81.3658 51.1176 81.2909 50.8851 81.2554 50.6408C81.2199 50.4083 81.2002 50.1679 81.2002 49.9236V49.7935L84.9578 49.7699L84.938 46.0655C84.938 45.9157 84.9262 45.8684 84.9223 45.8566C84.9223 45.8566 84.8986 45.8251 84.8198 45.7739C84.7646 45.7345 84.6344 45.6872 84.4334 45.6359C84.2126 45.5808 84.0036 45.5374 83.8143 45.5177L83.7 45.5059L83.6803 44.4103L86.9805 44.3906L87.0002 56.2171H84.9617H84.9538Z" fill="#006F43"/>
<path d="M83.692 45.494L83.8064 45.5058C83.9956 45.5295 84.2085 45.5689 84.4293 45.624C84.6344 45.6753 84.7645 45.7226 84.8197 45.7659C84.8985 45.8171 84.9261 45.8447 84.9301 45.8526C84.934 45.8644 84.9459 45.9117 84.9459 46.0654L84.9537 49.7816L81.208 49.7895V49.9195C81.208 50.1639 81.2277 50.4043 81.2632 50.6328C81.2987 50.8732 81.3775 51.1057 81.4879 51.3185L81.5353 51.3934L84.8907 51.3855H84.9459L84.9537 56.2012H86.9804L86.9725 44.3984L83.6999 44.4063H83.692H83.6841L83.692 45.4861V45.494Z" fill="#006F43"/>
<path d="M73.4918 53.8771L73.6258 53.7746C74.4736 53.3096 75.2345 52.8288 75.889 52.3401C76.5436 51.8515 77.1311 51.3431 77.6318 50.8229C78.1325 50.3067 78.5584 49.7628 78.9014 49.2111C79.209 48.7106 79.4731 48.1826 79.6821 47.6387L79.0158 47.6545L77.068 47.6624L76.5791 47.7215C76.4647 47.7372 76.3306 47.8003 76.1769 47.9106L76.1138 47.9579L74.2804 47.0437L74.2685 46.0939L74.3986 46.0821L81.5944 46.0742C81.8901 46.0742 82.0912 46.1767 82.1937 46.3737C82.2884 46.5589 82.3002 46.756 82.2292 46.9609C81.9019 47.9225 81.4879 48.8052 81.003 49.5855C80.518 50.3658 79.9423 51.087 79.2957 51.7333C78.6491 52.3796 77.9157 52.9825 77.1153 53.5224C76.3149 54.0623 75.4238 54.5746 74.4657 55.0396L74.3474 55.0987L73.4839 53.8731L73.4918 53.8771Z" fill="#006F43"/>
<path d="M79.2915 51.7292C79.9382 51.0829 80.5099 50.3617 80.9949 49.5815C81.4798 48.8051 81.8899 47.9224 82.2172 46.9608C82.2881 46.7598 82.2763 46.5667 82.1817 46.3815C82.0792 46.1845 81.882 46.0859 81.5902 46.0859L74.3945 46.0938H74.2841H74.2762V47.0317L76.1017 47.946L76.1688 47.8987C76.3225 47.7844 76.4605 47.7214 76.5788 47.7056L77.0717 47.6465L79.0195 47.6386H79.6977C79.4887 48.1825 79.2284 48.7105 78.917 49.211C78.5739 49.7667 78.1481 50.3105 77.6474 50.8268C77.1466 51.343 76.5591 51.8553 75.9007 52.344C75.2422 52.8327 74.4812 53.3174 73.6374 53.7785L73.5152 53.8573H73.5073L74.3629 55.0829L74.4733 55.0316C75.4315 54.5627 76.3225 54.0543 77.123 53.5144C77.9194 52.9745 78.6528 52.3716 79.3034 51.7253L79.2915 51.7292Z" fill="#006F43"/>
<path d="M100.899 56.3234L100.879 46.0694C100.879 45.9118 100.863 45.8684 100.863 45.8605C100.863 45.8605 100.843 45.8329 100.757 45.7778C100.705 45.7384 100.575 45.6911 100.37 45.6398C100.149 45.5847 99.9405 45.5413 99.7513 45.5216L99.6369 45.5098L99.6172 44.4142L102.917 44.3945L102.937 56.3274H100.899V56.3234Z" fill="#006F43"/>
<path d="M99.6363 45.494L99.7507 45.5058C99.9439 45.5295 100.153 45.5689 100.374 45.624C100.579 45.6753 100.709 45.7226 100.764 45.7659C100.859 45.825 100.874 45.8526 100.874 45.8526C100.874 45.8605 100.89 45.8999 100.89 46.0654L100.898 56.2801V56.2998V56.3076H102.925L102.917 44.3984L99.6442 44.4063H99.6363H99.6284L99.6363 45.4861V45.494Z" fill="#006F43"/>
<path d="M94.1724 53.699C93.5297 53.699 92.9264 53.6084 92.3862 53.4271C91.8421 53.2458 91.365 52.9818 90.9668 52.635C90.5646 52.2882 90.2492 51.8626 90.0323 51.37C89.8155 50.8813 89.7051 50.3296 89.7051 49.7385C89.7051 49.1119 89.8155 48.5444 90.0323 48.0479C90.2492 47.5513 90.5607 47.1218 90.9589 46.775C91.3493 46.4321 91.8264 46.1641 92.3705 45.9829C92.9106 45.8016 93.506 45.7109 94.1369 45.7109C95.5051 45.7109 96.5933 46.0656 97.37 46.7671C98.1547 47.4725 98.5529 48.4735 98.5529 49.7385C98.5529 50.3296 98.4504 50.8695 98.2533 51.3503C98.0522 51.8311 97.7565 52.2488 97.374 52.5956C96.9915 52.9424 96.5263 53.2143 95.99 53.4074C95.4577 53.6005 94.8466 53.6951 94.1763 53.6951L94.1724 53.699ZM94.1369 47.2636C93.7387 47.2636 93.3877 47.3267 93.092 47.4449C92.8002 47.5631 92.5518 47.7365 92.3586 47.9572C92.1615 48.1818 92.0156 48.4459 91.917 48.7493C91.8185 49.0567 91.7672 49.3877 91.7672 49.7306C91.7672 50.0734 91.8185 50.3966 91.917 50.6922C92.0156 50.9798 92.1654 51.236 92.3586 51.4488C92.5518 51.6616 92.8042 51.8311 93.1038 51.9572C93.4035 52.0833 93.7663 52.1463 94.1763 52.1463C94.5864 52.1463 94.9452 52.0833 95.2369 51.9572C95.5287 51.8311 95.7692 51.6616 95.9546 51.4527C96.1359 51.2439 96.2739 50.9877 96.3607 50.7C96.4474 50.4045 96.4947 50.0853 96.4947 49.7503C96.4947 49.037 96.3094 48.4419 95.9388 47.973C95.58 47.5158 94.9728 47.2754 94.1369 47.2636Z" fill="#006F43"/>
<path d="M94.1718 53.6832C94.8421 53.6832 95.4493 53.5846 95.9816 53.3955C96.5178 53.2024 96.9791 52.9305 97.3616 52.5876C97.7441 52.2408 98.0398 51.8231 98.2409 51.3462C98.4419 50.8694 98.5405 50.3295 98.5405 49.7384C98.5405 48.4773 98.1462 47.4803 97.3616 46.7749C96.5848 46.0773 95.4966 45.7227 94.1363 45.7227C93.5055 45.7227 92.9101 45.8133 92.3699 45.9906C91.8258 46.1719 91.3526 46.4399 90.9623 46.7827C90.568 47.1295 90.2605 47.5551 90.0397 48.0517C89.8228 48.5482 89.7124 49.1157 89.7124 49.7384C89.7124 50.3295 89.8228 50.8773 90.0397 51.3659C90.2565 51.8546 90.572 52.2802 90.9702 52.627C91.3684 52.9699 91.8455 53.2378 92.3857 53.4152C92.9219 53.5925 93.5212 53.6871 94.1679 53.6871L94.1718 53.6832ZM91.9046 48.7413C92.0032 48.4379 92.153 48.1699 92.3502 47.9453C92.5434 47.7246 92.7918 47.5473 93.0875 47.429C93.3832 47.3069 93.7381 47.2478 94.1363 47.2438C94.9762 47.2556 95.5873 47.496 95.9461 47.9571C96.3167 48.4261 96.502 49.029 96.502 49.7423C96.502 50.0773 96.4587 50.4004 96.368 50.696C96.2812 50.9876 96.1432 51.2438 95.9579 51.4526C95.7726 51.6654 95.5321 51.8349 95.2364 51.961C94.9407 52.0871 94.5819 52.1502 94.1679 52.1502C93.7539 52.1502 93.3951 52.0871 93.0915 51.9571C92.7918 51.831 92.5394 51.6576 92.3423 51.4448C92.1452 51.2319 91.9953 50.9758 91.8968 50.6842C91.7982 50.3886 91.7469 50.0655 91.7469 49.7187C91.7469 49.3719 91.7982 49.0408 91.8968 48.7335L91.9046 48.7413Z" fill="#006F43"/>
<path d="M94.5931 60.8656C94.1909 60.7749 93.9031 60.6449 93.7099 60.4636C93.5167 60.2863 93.3747 60.0025 93.288 59.6242V57.0626C93.288 56.9759 93.2801 56.8853 93.2683 56.7907C93.2604 56.7277 93.2328 56.6725 93.1894 56.6292C93.1263 56.574 93.0238 56.5109 92.8937 56.4479C92.7636 56.3809 92.5467 56.3099 92.255 56.2311L92.1564 56.2035L92.1406 55.2853L95.3186 55.2656L95.3383 59.2419C95.3383 59.2813 95.3383 59.3089 95.3462 59.3326L95.4132 59.3168H103.141L103.161 59.4705C103.161 59.9316 103.094 60.3651 102.96 60.7631L102.924 60.8656H94.5852H94.5931Z" fill="#006F43"/>
<path d="M95.418 59.3285H95.3391C95.3391 59.3285 95.3312 59.2931 95.3312 59.2418L95.3234 55.3089V55.2852V55.2773L92.1572 55.2852L92.1651 56.1916L92.2637 56.2192C92.5555 56.298 92.7723 56.3729 92.9024 56.436C93.0286 56.499 93.1351 56.5621 93.1981 56.6212C93.2455 56.6685 93.2731 56.7236 93.281 56.7906C93.2928 56.8852 93.2967 56.9758 93.2967 57.0625V59.6201C93.3874 59.9985 93.5294 60.2783 93.7186 60.4556C93.9079 60.6329 94.1957 60.763 94.5939 60.8536H102.925L102.957 60.7591C103.091 60.361 103.158 59.9275 103.158 59.4704L103.15 59.3285H95.4219H95.418Z" fill="#006F43"/>
<path d="M106.545 50.2602L106.706 50.1853C107.365 49.9883 108.035 49.7558 108.705 49.4957C109.368 49.2356 110.022 48.944 110.657 48.6248C111.284 48.3095 111.899 47.9548 112.475 47.5805C112.944 47.277 113.385 46.9499 113.792 46.611L112.865 46.6307L111.698 46.6386C111.505 46.6386 111.351 46.6465 111.237 46.6544C111.102 46.6741 110.949 46.7135 110.799 46.7686C110.649 46.8238 110.476 46.9184 110.29 47.0484L110.231 47.0878L107.921 46.1539L107.909 45.1095H107.928L107.968 45.0977L116.587 45.0898C116.824 45.0898 117.013 45.1844 117.135 45.3696C117.226 45.5076 117.285 45.7361 117.064 46.0514C116.753 46.4691 116.37 46.8829 115.925 47.277C115.534 47.6238 115.097 47.9706 114.627 48.2977L116.082 48.9085L118.949 50.1381L118.905 50.2484L118.263 51.5173L112.798 49.4208C111.994 49.874 111.11 50.2917 110.176 50.6622C109.234 51.0366 108.279 51.3558 107.345 51.6159L107.223 51.6474L106.537 50.2563L106.545 50.2602Z" fill="#006F43"/>
<path d="M107.239 51.6394L107.354 51.6079C108.288 51.3517 109.242 51.0286 110.185 50.6581C111.107 50.2916 111.994 49.8739 112.815 49.4168L118.268 51.5172L118.91 50.2444L118.954 50.1577L118.958 50.1498L116.091 48.9202L114.632 48.2897C115.105 47.9587 115.539 47.6158 115.929 47.269C116.375 46.8749 116.753 46.4612 117.065 46.0434C117.286 45.7321 117.227 45.5075 117.136 45.3735C117.018 45.1961 116.832 45.1016 116.596 45.1016L107.977 45.1094H107.937H107.929V46.1459L110.232 47.0838L110.291 47.0444C110.476 46.9143 110.65 46.8198 110.8 46.7646C110.954 46.7094 111.103 46.67 111.237 46.6503C111.352 46.6385 111.506 46.6345 111.699 46.6345L112.862 46.6267H113.796C113.39 46.9656 112.949 47.2887 112.479 47.5961C111.9 47.9705 111.289 48.3212 110.658 48.6404C110.027 48.9596 109.368 49.2513 108.706 49.5114C108.04 49.7715 107.365 50.004 106.707 50.201L106.573 50.2522H106.557V50.2562H106.549L107.231 51.6433L107.239 51.6394Z" fill="#006F43"/>
<path d="M104.964 53.2633L104.948 52.215L105.172 52.2032L120.506 52.1953L120.538 52.3372C120.55 52.5145 120.538 52.7352 120.491 52.9953C120.447 53.2593 120.396 53.4721 120.333 53.6455L120.301 53.7322L108.784 53.748C108.638 53.7598 108.453 53.7953 108.252 53.8465C108.055 53.9017 107.862 53.9923 107.676 54.1224L107.613 54.1657L104.96 53.2633H104.964Z" fill="#006F43"/>
<path d="M105.173 52.2148H104.972H104.964L104.972 53.2513L107.621 54.1537L107.681 54.1143C107.866 53.9843 108.059 53.8897 108.26 53.8385C108.461 53.7833 108.647 53.7518 108.792 53.7399L120.298 53.7321L120.329 53.6454C120.392 53.472 120.44 53.2592 120.483 52.9991C120.526 52.739 120.542 52.5183 120.526 52.3449L120.507 52.2148L105.173 52.2227V52.2148Z" fill="#006F43"/>
<path d="M112.924 61.529C111.39 61.529 110.179 61.2373 109.32 60.662C108.445 60.0748 107.999 59.2039 107.999 58.0807C107.999 56.9576 108.445 56.0906 109.324 55.5152C110.183 54.9517 111.378 54.668 112.872 54.668C114.367 54.668 115.55 54.9517 116.413 55.5152C117.296 56.0906 117.746 56.9615 117.746 58.1004C117.746 59.2393 117.304 60.059 116.433 60.6541C115.581 61.2373 114.402 61.529 112.924 61.529ZM112.872 56.2167C111.039 56.2167 110.148 56.8236 110.148 58.0729C110.148 58.6955 110.361 59.1605 110.798 59.4916C111.228 59.8147 111.906 59.9802 112.817 59.9802H112.908C113.862 59.9684 114.564 59.7989 114.986 59.4837C115.4 59.1723 115.601 58.7231 115.601 58.1083C115.601 57.4935 115.4 57.0128 114.986 56.6975C114.564 56.3783 113.854 56.2167 112.876 56.2167H112.872Z" fill="#006F43"/>
<path d="M116.405 55.527C115.542 54.9634 114.355 54.6797 112.872 54.6797C111.39 54.6797 110.187 54.9634 109.328 55.527C108.452 56.1023 108.011 56.9614 108.011 58.0806C108.011 59.1998 108.452 60.0668 109.328 60.654C110.183 61.2294 111.394 61.521 112.924 61.521C114.453 61.521 115.573 61.2254 116.425 60.6461C117.292 60.055 117.73 59.1959 117.73 58.1003C117.73 57.0048 117.284 56.1023 116.401 55.527H116.405ZM110.79 59.4993C110.349 59.1683 110.136 58.6993 110.136 58.0727C110.136 56.8156 111.031 56.2048 112.872 56.2048C113.854 56.2048 114.564 56.3664 114.99 56.6856C115.408 57.0008 115.609 57.4659 115.609 58.1043C115.609 58.7427 115.408 59.1722 114.99 59.4875C114.568 59.8067 113.866 59.9762 112.908 59.988H112.817C111.906 59.988 111.224 59.8225 110.79 59.4954V59.4993Z" fill="#006F43"/>
<path d="M126.539 60.8499C126.129 60.7593 125.849 60.6332 125.652 60.4519C125.459 60.2746 125.317 59.9908 125.23 59.6125V58.3869C125.23 58.3002 125.222 58.2096 125.211 58.115C125.203 58.0519 125.179 57.9968 125.132 57.9495C125.069 57.8943 124.966 57.8312 124.84 57.7682C124.71 57.7012 124.493 57.6303 124.201 57.5514L124.103 57.5239L124.087 56.6056L127.265 56.5859L127.285 59.2302C127.285 59.2775 127.289 59.3051 127.292 59.3209L127.36 59.3051H135.509L135.529 59.4588C135.529 59.9159 135.462 60.3534 135.328 60.7514L135.293 60.8539H126.532L126.539 60.8499Z" fill="#006F43"/>
<path d="M135.513 59.309H127.284C127.284 59.309 127.276 59.2736 127.276 59.2223L127.268 56.5898L124.102 56.5977L124.11 57.5041L124.209 57.5317C124.504 57.6105 124.717 57.6854 124.851 57.7485C124.985 57.8115 125.08 57.8746 125.147 57.9337C125.194 57.981 125.222 58.0361 125.23 58.1031C125.242 58.1977 125.245 58.2883 125.245 58.375V59.6006C125.336 59.979 125.478 60.2588 125.667 60.4361C125.861 60.6174 126.141 60.7435 126.543 60.8341H135.292L135.323 60.7395C135.458 60.3415 135.525 59.908 135.525 59.4509L135.517 59.309H135.513Z" fill="#006F43"/>
<path d="M132.986 57.6909L132.966 55.9884L130.009 56.0081L129.954 55.9333C129.851 55.752 129.776 55.5352 129.733 55.287C129.69 55.0466 129.67 54.8022 129.67 54.5579V54.4279L132.99 54.4082L132.97 46.0575C132.97 45.892 132.954 45.8487 132.954 45.8487C132.954 45.8487 132.939 45.8132 132.848 45.7344C132.816 45.7226 132.781 45.7107 132.726 45.695C132.639 45.6713 132.544 45.6516 132.434 45.628C132.323 45.6043 132.209 45.5807 132.087 45.557C131.969 45.5334 131.858 45.5176 131.756 45.5058L131.637 45.494L131.618 44.4181L135.009 44.3984L135.02 44.5561L135.028 57.6988H132.99L132.986 57.6909Z" fill="#006F43"/>
<path d="M131.634 45.4782L131.752 45.49C131.855 45.5019 131.965 45.5176 132.083 45.5413C132.206 45.5649 132.32 45.5886 132.43 45.6122C132.541 45.6359 132.635 45.6595 132.722 45.6792C132.793 45.6989 132.832 45.7147 132.852 45.7186C132.947 45.8014 132.963 45.8368 132.963 45.8368C132.963 45.8447 132.978 45.892 132.978 46.0496L132.986 54.4121L129.706 54.42H129.69H129.682V54.55C129.682 54.7944 129.702 55.0387 129.745 55.2751C129.789 55.5234 129.863 55.7402 129.962 55.9175L130.009 55.9884L132.978 55.9806L132.986 57.6712H135.013L135.005 44.5403V44.4063V44.3984L131.646 44.4063H131.638H131.63L131.638 45.4703L131.634 45.4782Z" fill="#006F43"/>
<path d="M125.621 56.0779L125.601 53.6109C125.487 53.6385 125.372 53.6464 125.25 53.6503C125.077 53.6582 124.903 53.6661 124.73 53.6779C124.489 53.6897 124.304 53.7252 124.17 53.7882C124.032 53.8513 123.914 53.9262 123.819 54.0089L123.764 54.0562L121.248 53.3272L121.232 52.1646L121.292 52.1528L124.6 52.1449C125.195 52.1449 125.818 52.137 126.473 52.1173C127.123 52.1016 127.793 52.07 128.468 52.0306C129.146 51.9912 129.82 51.94 130.498 51.8809C131.157 51.8257 131.815 51.7548 132.458 51.672L132.584 51.6562L132.627 51.7981C132.651 51.9479 132.659 52.1528 132.647 52.409C132.635 52.673 132.588 52.8937 132.513 53.0749L132.481 53.1459L132.391 53.1695C131.571 53.2641 130.766 53.339 129.997 53.3981C129.264 53.4533 128.495 53.5045 127.695 53.5479L127.715 56.0818H125.625L125.621 56.0779Z" fill="#006F43"/>
<path d="M124.725 53.6621C124.898 53.6503 125.072 53.6424 125.245 53.6345C125.364 53.6345 125.482 53.6227 125.588 53.6109C125.596 53.6109 125.6 53.6109 125.608 53.6109L125.616 56.0305V56.0542V56.0621H127.694L127.686 53.5281C128.482 53.4848 129.251 53.4335 129.985 53.3784C130.757 53.3192 131.566 53.2444 132.378 53.1498L132.461 53.134L132.492 53.0631C132.567 52.8858 132.614 52.6651 132.626 52.401C132.638 52.1488 132.63 51.9439 132.607 51.7941L132.575 51.6602L132.449 51.6759C131.814 51.7587 131.152 51.8296 130.489 51.8848C129.811 51.9439 129.137 51.9912 128.459 52.0345C127.784 52.0739 127.114 52.1055 126.464 52.1212C125.809 52.137 125.186 52.1488 124.591 52.1488L121.283 52.1567H121.247H121.239L121.247 53.3074L123.755 54.0365L123.81 53.9892C123.905 53.9064 124.023 53.8316 124.161 53.7646C124.295 53.7015 124.484 53.666 124.725 53.6542V53.6621Z" fill="#006F43"/>
<path d="M127.067 51.4499C126.448 51.4499 125.876 51.3789 125.368 51.2331C124.855 51.0873 124.405 50.8784 124.039 50.6105C123.664 50.3386 123.372 50.0075 123.167 49.6174C122.966 49.2272 122.86 48.7859 122.86 48.3051C122.86 47.8243 122.962 47.3829 123.167 46.9928C123.372 46.6026 123.664 46.2677 124.039 45.9918C124.409 45.716 124.859 45.5071 125.368 45.3613C125.876 45.2194 126.448 45.1445 127.067 45.1445C127.686 45.1445 128.262 45.2155 128.774 45.3613C129.291 45.5071 129.74 45.7199 130.107 45.9918C130.474 46.2677 130.765 46.6066 130.966 46.9928C131.171 47.3829 131.274 47.8243 131.274 48.3051C131.274 48.7859 131.171 49.2272 130.966 49.6174C130.765 50.0036 130.474 50.3386 130.107 50.6105C129.744 50.8784 129.295 51.0873 128.778 51.2331C128.266 51.375 127.69 51.4499 127.071 51.4499H127.067ZM127.067 46.6972C126.377 46.6972 125.833 46.8391 125.446 47.1228C125.068 47.3987 124.886 47.7888 124.886 48.313C124.886 48.8371 125.072 49.2272 125.446 49.5031C125.833 49.7868 126.377 49.9287 127.067 49.9287C127.757 49.9287 128.305 49.7829 128.695 49.4992C129.078 49.2233 129.263 48.8332 129.263 48.309C129.263 47.7849 129.078 47.379 128.695 47.111C128.301 46.8312 127.753 46.6933 127.063 46.6933L127.067 46.6972Z" fill="#006F43"/>
<path d="M124.044 50.5985C124.411 50.8626 124.856 51.0714 125.369 51.2173C125.878 51.3591 126.445 51.434 127.064 51.434C127.683 51.434 128.255 51.3631 128.768 51.2173C129.284 51.0714 129.73 50.8626 130.093 50.5985C130.459 50.3266 130.747 49.9956 130.948 49.6094C131.149 49.2232 131.252 48.7818 131.252 48.305C131.252 47.8281 131.149 47.3868 130.948 47.0006C130.747 46.6144 130.459 46.2794 130.093 46.0035C129.73 45.7316 129.28 45.5188 128.764 45.373C128.251 45.2311 127.676 45.1562 127.06 45.1562C126.445 45.1562 125.87 45.2272 125.365 45.373C124.852 45.5188 124.407 45.7277 124.04 46.0035C123.666 46.2794 123.374 46.6144 123.173 47.0006C122.972 47.3868 122.869 47.8281 122.869 48.305C122.869 48.7818 122.972 49.2232 123.173 49.6094C123.374 49.9956 123.666 50.3306 124.04 50.5985H124.044ZM127.068 49.9404C126.374 49.9404 125.83 49.7946 125.44 49.5109C125.061 49.235 124.876 48.8409 124.876 48.3089C124.876 47.7769 125.061 47.3868 125.44 47.107C125.83 46.8232 126.378 46.6774 127.068 46.6774C127.758 46.6774 128.31 46.8193 128.705 47.0991C129.091 47.371 129.276 47.769 129.276 48.3089C129.276 48.8488 129.087 49.2311 128.705 49.5109C128.31 49.7946 127.762 49.9404 127.068 49.9404Z" fill="#006F43"/>
</svg>
