<svg width="72" height="73" viewBox="0 0 72 73" fill="none" xmlns="http://www.w3.org/2000/svg">
<g clip-path="url(#clip0_85_13620)">
<path d="M18.17 37.2305H53.84C62.21 37.2305 69.01 44.0305 69.01 52.4005V66.0005C69.01 68.2105 67.22 70.0005 65.01 70.0005H7C4.79 70.0005 3 68.2105 3 66.0005V52.4005C3 44.0305 9.8 37.2305 18.17 37.2305Z" stroke="white" stroke-width="6" stroke-linecap="round" stroke-linejoin="round"/>
<path d="M11.01 37.95V23.5H22.64V36.41" stroke="white" stroke-width="6" stroke-linecap="round" stroke-linejoin="round"/>
<path d="M22.6398 23.4976H11.0098L5.83984 7.4576C11.9498 1.8976 21.4498 1.8276 27.6398 7.3076L27.8198 7.4576L22.6498 23.4976H22.6398Z" stroke="white" stroke-width="6" stroke-linecap="round" stroke-linejoin="round"/>
<path d="M33.72 36.13V23.5H44.12V36.47" stroke="white" stroke-width="6" stroke-linecap="round" stroke-linejoin="round"/>
<path d="M53.25 37.21V23.5H62.6V39.5" stroke="white" stroke-width="6" stroke-linecap="round" stroke-linejoin="round"/>
<path d="M38.95 23.5V3" stroke="white" stroke-width="6" stroke-linecap="round" stroke-linejoin="round"/>
<path d="M35.3901 6.85938H42.2901" stroke="white" stroke-width="6" stroke-linecap="round" stroke-linejoin="round"/>
<path d="M35.3901 14.8125H42.2901" stroke="white" stroke-width="6" stroke-linecap="round" stroke-linejoin="round"/>
<path d="M64.49 17.56C64.49 23.15 61.55 23.5 57.93 23.5C54.31 23.5 51.37 23.16 51.37 17.56C51.37 11.96 54.31 3.25 57.93 3.25C61.55 3.25 64.49 11.97 64.49 17.56Z" stroke="white" stroke-width="6" stroke-linecap="round" stroke-linejoin="round"/>
<path d="M4 58H68" stroke="white" stroke-width="6" stroke-linecap="round" stroke-linejoin="round"/>
</g>
<defs>
<clipPath id="clip0_85_13620">
<rect width="72" height="73" fill="white"/>
</clipPath>
</defs>
</svg>
