<svg width="76" height="73" viewBox="0 0 76 73" fill="none" xmlns="http://www.w3.org/2000/svg">
<g clip-path="url(#clip0_85_13678)">
<path d="M61.7689 66.612C64.8729 66.612 67.3893 64.0956 67.3893 60.9915C67.3893 57.8874 64.8729 55.3711 61.7689 55.3711C58.6648 55.3711 56.1484 57.8874 56.1484 60.9915C56.1484 64.0956 58.6648 66.612 61.7689 66.612Z" stroke="white" stroke-width="6" stroke-linecap="round" stroke-linejoin="round"/>
<path d="M42.7152 22.3971C45.8192 22.3971 48.3356 19.8808 48.3356 16.7767C48.3356 13.6726 45.8192 11.1562 42.7152 11.1562C39.6111 11.1562 37.0947 13.6726 37.0947 16.7767C37.0947 19.8808 39.6111 22.3971 42.7152 22.3971Z" stroke="white" stroke-width="6" stroke-linecap="round" stroke-linejoin="round"/>
<path d="M8.43098 56.7877C11.5351 56.7877 14.0514 54.2714 14.0514 51.1673C14.0514 48.0632 11.5351 45.5469 8.43098 45.5469C5.3269 45.5469 2.81055 48.0632 2.81055 51.1673C2.81055 54.2714 5.3269 56.7877 8.43098 56.7877Z" stroke="white" stroke-width="6" stroke-linecap="round" stroke-linejoin="round"/>
<path d="M54.434 25.0968C56.8602 28.2818 58.3028 32.2535 58.3028 36.5719C58.3028 47.0353 49.8159 55.5221 39.3526 55.5221C28.8892 55.5221 20.4023 47.0353 20.4023 36.5719C20.4023 30.2583 23.4936 24.6659 28.2428 21.2188" stroke="white" stroke-width="6" stroke-linecap="round" stroke-linejoin="round"/>
<path d="M48.9544 68.5884C45.7133 69.6282 42.2661 70.1809 38.6784 70.1809C30.8285 70.1809 23.6063 67.5018 17.8828 62.9961" stroke="white" stroke-width="6" stroke-linecap="round" stroke-linejoin="round"/>
<path d="M4.99219 36.4976C4.99219 17.894 20.0737 2.8125 38.6773 2.8125C57.2809 2.8125 72.3624 17.894 72.3624 36.4976C72.3624 40.8441 71.5381 44.9938 70.0486 48.797" stroke="white" stroke-width="6" stroke-linecap="round" stroke-linejoin="round"/>
<path d="M39.3431 42.1159C42.4472 42.1159 44.9635 39.5995 44.9635 36.4954C44.9635 33.3914 42.4472 30.875 39.3431 30.875C36.239 30.875 33.7227 33.3914 33.7227 36.4954C33.7227 39.5995 36.239 42.1159 39.3431 42.1159Z" stroke="white" stroke-width="6" stroke-linecap="round" stroke-linejoin="round"/>
</g>
<defs>
<clipPath id="clip0_85_13678">
<rect width="75.1826" height="73" fill="white"/>
</clipPath>
</defs>
</svg>
