<svg width="79" height="73" viewBox="0 0 79 73" fill="none" xmlns="http://www.w3.org/2000/svg">
<g clip-path="url(#clip0_85_13602)">
<path d="M12.9814 35.0195H65.5695V61.3136C65.5695 66.1536 61.6449 70.0782 56.8048 70.0782H21.7461C16.9061 70.0782 12.9814 66.1536 12.9814 61.3136V35.0195Z" stroke="white" stroke-width="6" stroke-linecap="round" stroke-linejoin="round"/>
<path d="M43.7472 2.92376L32.1343 4.23047L33.147 13.2305L44.7599 11.9238L43.7472 2.92376Z" stroke="white" stroke-width="6" stroke-linecap="round" stroke-linejoin="round"/>
<path d="M7.02148 16.1753L70.8965 8.98828" stroke="white" stroke-width="6" stroke-linecap="round" stroke-linejoin="round"/>
<path d="M12.9813 52.8716H8.43337C5.38521 52.8716 2.91162 50.398 2.91162 47.3499C2.91162 44.3017 5.38521 41.8281 8.43337 41.8281H12.9813" stroke="white" stroke-width="6" stroke-linecap="round" stroke-linejoin="round"/>
<path d="M65.5693 52.8716H70.1172C73.1654 52.8716 75.639 50.398 75.639 47.3499C75.639 44.3017 73.1654 41.8281 70.1172 41.8281H65.5693" stroke="white" stroke-width="6" stroke-linecap="round" stroke-linejoin="round"/>
<path d="M36.6851 34.0449C36.6851 29.3801 40.4636 25.6016 45.1284 25.6016C49.7931 25.6016 53.5717 29.3801 53.5717 34.0449" stroke="white" stroke-width="6" stroke-linecap="round" stroke-linejoin="round"/>
<path d="M64.1089 26.8975C66.5292 26.8975 68.4912 24.9354 68.4912 22.5151C68.4912 20.0949 66.5292 18.1328 64.1089 18.1328C61.6886 18.1328 59.7266 20.0949 59.7266 22.5151C59.7266 24.9354 61.6886 26.8975 64.1089 26.8975Z" stroke="white" stroke-width="6" stroke-linecap="round" stroke-linejoin="round"/>
</g>
<defs>
<clipPath id="clip0_85_13602">
<rect width="78.5607" height="73" fill="white"/>
</clipPath>
</defs>
</svg>
