<svg width="73" height="73" viewBox="0 0 73 73" fill="none" xmlns="http://www.w3.org/2000/svg">
<g clip-path="url(#clip0_85_13655)">
<path d="M33.4584 3.03906H13.1807V15.2057H33.4584V3.03906Z" stroke="white" stroke-width="6" stroke-linecap="round" stroke-linejoin="round"/>
<path d="M43.5976 69.9583H3.04199L9.12533 27.375H37.5142L43.5976 69.9583Z" stroke="white" stroke-width="6" stroke-linecap="round" stroke-linejoin="round"/>
<path d="M69.1172 3.03906H50.8672V30.2011H69.1172V3.03906Z" stroke="white" stroke-width="6" stroke-linecap="round" stroke-linejoin="round"/>
<path d="M50.8672 3.03906V32.3506C50.8672 34.2161 51.4958 36.031 52.6415 37.5113L54.6591 40.0967C57.3054 43.4932 58.7451 47.6806 58.7451 51.9896V69.9659" stroke="white" stroke-width="6" stroke-linecap="round" stroke-linejoin="round"/>
<path d="M9.125 27.3744L13.1806 14.7109" stroke="white" stroke-width="6" stroke-linecap="round" stroke-linejoin="round"/>
<path d="M33.459 14.7109L37.5145 27.3744" stroke="white" stroke-width="6" stroke-linecap="round" stroke-linejoin="round"/>
<path d="M6.41797 57.7891H41.5695" stroke="white" stroke-width="6" stroke-linecap="round" stroke-linejoin="round"/>
<path d="M50.8672 12.1641H69.1172" stroke="white" stroke-width="6" stroke-linecap="round" stroke-linejoin="round"/>
<path d="M50.8672 21.2891H69.1172" stroke="white" stroke-width="6" stroke-linecap="round" stroke-linejoin="round"/>
<path d="M23.6541 49.6788C25.8939 49.6788 27.7096 46.5013 27.7096 42.5816C27.7096 38.6619 25.8939 35.4844 23.6541 35.4844C21.4142 35.4844 19.5985 38.6619 19.5985 42.5816C19.5985 46.5013 21.4142 49.6788 23.6541 49.6788Z" fill="white"/>
</g>
<defs>
<clipPath id="clip0_85_13655">
<rect width="72.1585" height="73" fill="white"/>
</clipPath>
</defs>
</svg>
